<svg width="512" height="512" viewBox="0 0 512 512" xmlns="http://www.w3.org/2000/svg"><title>sprite</title><desc>Created with Sketch.</desc><defs><filter x="-50%" y="-50%" width="200%" height="200%" filterUnits="objectBoundingBox" id="a"><feOffset dy="2" in="SourceAlpha" result="shadowOffsetOuter1"/><feGaussianBlur stdDeviation="2" in="shadowOffsetOuter1" result="shadowBlurOuter1"/><feColorMatrix values="0 0 0 0 0 0 0 0 0 0 0 0 0 0 0 0 0 0 0.35 0" in="shadowBlurOuter1" result="shadowMatrixOuter1"/><feMerge><feMergeNode in="shadowMatrixOuter1"/><feMergeNode in="SourceGraphic"/></feMerge></filter></defs><path d="M72.934 22.564v-.558c0-2.165-1.357-2.78-3.24-2.78-.858 0-1.155-.73-1.155-1.49 0-.737.296-1.497 1.153-1.497 1.473 0 2.713-.353 2.713-2.87 0-1.933-1.003-2.578-2.598-2.578-1.917 0-2.625.79-2.625 1.964 0 .876-.413 1.462-1.828 1.462-1.71 0-1.976-.41-1.976-1.64 0-2.08 1.476-5.095 6.458-5.095 3.57 0 6.222 1.348 6.222 5.243 0 2.313-.853 4.186-2.298 4.86 1.74.673 3.006 1.99 3.006 4.42v.558c0 4.714-3.184 6.5-7.075 6.5-4.837 0-6.785-2.96-6.785-5.33 0-1.17.5-1.493 1.827-1.493 1.565 0 1.977.41 1.977 1.35 0 1.317 1.18 2.134 3.068 2.134 2.21 0 3.154-.938 3.154-3.16zm11.82-11.742v14.724h3.07c1.943 0 3.095-1.082 3.095-3.362v-7.996c0-2.283-1.153-3.366-3.097-3.366h-3.068zm3.07-3.34c3.89 0 6.93 1.82 6.93 6.706v7.996c0 4.888-3.04 6.7-6.93 6.7H82.6c-1.003 0-1.682-.553-1.682-1.17V8.658c0-.616.68-1.174 1.682-1.174h5.223zm18.45 19.18c2.36 0 3.774-1.23 3.774-4.01v-.502c0-2.808-1.414-3.833-3.774-3.833h-3.983v8.345h3.984zm-3.983-10.394h3.69c2.387 0 3.536-.997 3.536-3.426 0-2.37-1.474-3.132-3.625-3.132h-3.6v6.558zm-2.476-7.904c0-.588.56-.88 1.12-.88h5.073c3.243 0 5.987.91 5.987 5.006 0 2.46-.97 4.158-2.506 4.8 1.826.734 3.038 1.994 3.038 4.98v.525c0 4.483-2.568 6.09-5.84 6.09h-5.75c-.68 0-1.122-.408-1.122-.847V8.364zm26.826 13.584l-3.272-11.007-3.333 11.008h6.605zm-10.88 5.912c0-.086.028-.145.058-.232l6.015-19.47c.178-.584.857-.847 1.535-.847.678 0 1.358.294 1.53.848l6.02 19.47c0 .087.03.146.03.204 0 .586-.826 1.053-1.537 1.053-.41 0-.765-.174-.88-.554l-1.3-4.36h-7.753l-1.298 4.36c-.123.38-.476.555-.916.555-.65 0-1.504-.41-1.504-1.025zm28.066-6.908c-.267.497-.62.673-.973.673-.297 0-.65-.176-.917-.673l-4.42-8.432v15.49c0 .582-.62.875-1.24.875s-1.24-.293-1.24-.875V8.686c0-.88.59-1.203 1.24-1.203.887 0 1.443.53 1.977 1.554l4.628 8.812 4.662-8.813c.558-1.024 1.09-1.554 1.977-1.554.645 0 1.236.323 1.236 1.203V28.01c0 .582-.62.875-1.237.875-.62 0-1.24-.293-1.24-.875V12.64l-4.454 8.312zm19.042 5.71c2.36 0 3.774-1.23 3.774-4.01v-.502c0-2.808-1.414-3.833-3.774-3.833h-3.98v8.345h3.98zm-3.98-10.394h3.685c2.388 0 3.54-.997 3.54-3.426 0-2.37-1.477-3.132-3.628-3.132h-3.597v6.558zm-2.48-7.904c0-.588.563-.88 1.125-.88h5.068c3.248 0 5.99.91 5.99 5.006 0 2.46-.973 4.158-2.505 4.8 1.827.734 3.035 1.994 3.035 4.98v.525c0 4.483-2.564 6.09-5.84 6.09h-5.747c-.68 0-1.124-.408-1.124-.847V8.364zm22.938-4.04c-.12.056-.207.116-.325.116-.5 0-.884-.527-.884-.994 0-.263.116-.5.383-.643l3.448-1.82c.088-.026.21-.056.297-.056.502 0 .823.528.823.995 0 .265-.117.558-.413.703l-3.33 1.698zm4.924 4.01c0-.585.59-.85 1.24-.85.587 0 1.236.265 1.236.85V22.68c0 4.656-2.83 6.383-6.46 6.383-3.625 0-6.426-1.727-6.426-6.384V8.333c0-.585.618-.85 1.238-.85s1.24.265 1.24.85V22.68c0 2.84 1.473 4.157 3.95 4.157 2.48 0 3.982-1.318 3.982-4.158V8.333zM68.32 44.954c0-.75-.69-1.502-1.53-1.502-.706 0-1.448.567-1.448 1.502v1.668c0 .352.622 1.235 1.48 1.235.79 0 1.497-.768 1.497-1.535v-1.368zm-3.11-2.62v.5c.386-.65 1.193-1.267 2.27-1.267 1.68 0 3.007 1.535 3.007 3.387v1.368c0 1.787-1.378 3.422-2.94 3.422-1.01 0-1.884-.634-2.205-1.318v4.17c0 .353-.502.685-1.11.685-.62 0-1.058-.33-1.058-.683V42.334c0-.4.454-.667 1.027-.667.588 0 1.01.267 1.01.667zm10.806 3.854h-.254c-1.124 0-2.184.117-2.184 1.05 0 .62.386.904.892.904.69 0 1.546-.784 1.546-1.603v-.352zm2.168-1.368v4.09c0 .383-.453.684-1.058.684-.555 0-.977-.3-.977-.684v-.484c-.604.684-1.396 1.318-2.556 1.318-1.193 0-2.184-.7-2.184-2.22 0-1.918 1.598-2.454 3.917-2.454h.69v-.216c0-.718-.37-1.535-1.48-1.535-1.294 0-1.514.516-1.916.516-.488 0-.74-.584-.74-1.068 0-.684 1.496-1.2 2.69-1.2 2.623 0 3.614 1.567 3.614 3.252zm3.78 4.09c0 .333-.503.683-1.09.683-.64 0-1.077-.35-1.077-.684v-6.576c0-.4.437-.667 1.076-.667.52 0 .957.266.957.667v.5c.322-.65 1.127-1.268 2.254-1.268 1.547 0 2.89 1.535 2.89 3.387v3.956c0 .45-.553.683-1.09.683-.505 0-1.08-.233-1.08-.684v-3.957c0-.75-.652-1.5-1.46-1.5-.69 0-1.38.566-1.38 1.5v3.956zm10.943-3.99c.353 0 .487-.082.487-.45 0-.784-.672-1.318-1.48-1.318-.757 0-1.46.5-1.46 1.302v.467h2.453zm2.523-.216c0 1.416-.81 1.485-1.563 1.485h-3.414v.25c0 .967.788 1.603 1.966 1.603 1.11 0 1.562-.636 2.068-.636.503 0 .822.617.822.95 0 .568-1.16 1.387-2.958 1.387-2.386 0-4.07-1.37-4.07-3.422v-1.418c0-1.802 1.63-3.338 3.684-3.338 1.848 0 3.464 1.286 3.464 3.138zm3.61-6.993v11.2c0 .333-.505.683-1.093.683-.64 0-1.076-.35-1.076-.684v-11.2c0-.4.438-.665 1.077-.665.588 0 1.093.265 1.093.666zm6.15 7.21c.353 0 .488-.082.488-.45 0-.784-.672-1.318-1.48-1.318-.757 0-1.46.5-1.46 1.302v.467h2.452zm2.523-.216c0 1.416-.808 1.485-1.563 1.485h-3.413v.25c0 .967.788 1.603 1.966 1.603 1.11 0 1.563-.636 2.07-.636.5 0 .82.617.82.95 0 .568-1.16 1.387-2.957 1.387-2.387 0-4.07-1.37-4.07-3.422v-1.418c0-1.802 1.63-3.338 3.683-3.338 1.848 0 3.463 1.286 3.463 3.138zm5.056 2.686c0-1.468-3.986-.55-3.986-3.338 0-1.183.757-2.486 3.01-2.486 1.362 0 2.673.467 2.673 1.084 0 .3-.286 1.037-.79 1.037-.4 0-.924-.486-1.85-.486-.84 0-1.177.42-1.177.754 0 1.217 4.035.383 4.035 3.353 0 1.487-1.11 2.438-3.092 2.438-1.716 0-3.044-.7-3.044-1.437 0-.35.302-.95.722-.95.49 0 .86.752 2.27.752.992 0 1.227-.384 1.227-.72zm4.2-.85c0 1.1.96 2.168 2.085 2.168 1.178 0 2.052-1.15 2.052-1.65V44.72c0-1.334-1.025-2.12-2.035-2.12-1.16 0-2.1 1.05-2.1 2.12v1.82zm5.23-9.28v11.9c0 .216-.22.433-.52.433-.287 0-.522-.217-.522-.434v-.733c-.37.684-1.263 1.284-2.303 1.284-1.598 0-2.976-1.517-2.976-3.17v-1.82c0-1.717 1.362-3.12 3.007-3.12 1.11 0 1.866.617 2.22 1.27v-5.61c0-.234.252-.4.572-.4.3 0 .52.166.52.4zm6.267 7.91c.672 0 .84-.1.84-.566 0-1.068-.857-2.103-2.102-2.103-1.16 0-2.1.92-2.1 2.037v.634h3.362zm1.9-.533c0 1.285-.723 1.337-1.465 1.337h-3.798v.617c0 1.334 1.076 2.17 2.555 2.17 1.328 0 1.648-.67 2.017-.67.27 0 .47.318.47.518 0 .4-.957 1.103-2.52 1.103-2.12 0-3.615-1.267-3.615-3.17v-1.872c0-1.666 1.447-3.07 3.212-3.07 1.663 0 3.144 1.27 3.144 3.04zm1.36 1.902v-1.786c0-1.77 1.007-3.155 3.243-3.155 1.43 0 2.37.635 2.37 1.084 0 .233-.217.534-.486.534-.32 0-.605-.618-1.832-.618-1.464 0-2.204.818-2.204 2.154v1.785c0 1.35.74 2.168 2.22 2.168 1.295 0 1.564-.634 1.9-.634.302 0 .504.284.504.534 0 .45-.975 1.103-2.456 1.103-2.235 0-3.26-1.352-3.26-3.17zm12.086-1.82c0-1.068-.943-2.12-2.12-2.12-1.176 0-2.084 1.052-2.084 2.12v1.82c0 1.118.924 2.167 2.083 2.167 1.177 0 2.12-1.05 2.12-2.168v-1.82zm1.092 0v1.82c0 1.652-1.497 3.17-3.212 3.17-1.697 0-3.176-1.5-3.176-3.17v-1.82c0-1.668 1.428-3.122 3.176-3.122 1.715 0 3.212 1.404 3.212 3.122zm5.108-2.12c-1.11 0-2.218.918-2.218 2.436v4.123c0 .216-.236.433-.555.433-.302 0-.538-.217-.538-.434V42.1c0-.234.236-.4.538-.4.286 0 .52.166.52.4v.817c.37-.665 1.16-1.318 2.253-1.318h.588c.237 0 .438.233.438.5s-.2.5-.437.5h-.587zm6.47 3.373h-.707c-1.547 0-2.975.148-2.975 1.433 0 .97.64 1.386 1.465 1.386 1.076 0 2.218-1.003 2.218-1.75v-1.07zm1.093-1.153v4.34c0 .25-.22.433-.538.433-.286 0-.506-.183-.506-.434v-.735c-.586.668-1.41 1.287-2.538 1.287-1.277 0-2.286-.703-2.286-2.204 0-1.82 1.58-2.286 3.918-2.286h.857v-.402c0-1.068-.537-2.27-1.985-2.27-1.126 0-1.53.485-1.798.485-.286 0-.437-.334-.437-.584 0-.433 1.193-.85 2.27-.85 2.253 0 3.043 1.553 3.043 3.22zm3.11 2.32c0 1.085.402 1.47 1.562 1.47h.47c.303 0 .505.232.505.482 0 .267-.202.5-.504.5h-.472c-1.733 0-2.657-.733-2.657-2.452v-8.794c0-.233.286-.402.54-.402.27 0 .555.17.555.402V41.7h2.168c.22 0 .387.217.387.45 0 .236-.168.45-.387.45h-2.168v4.54zm5.023-5.04v7.06c0 .216-.253.433-.556.433-.302 0-.537-.217-.537-.433V42.1c0-.233.235-.4.537-.4.303 0 .555.167.555.4zm.167-3.436c0 .367-.32.698-.723.698-.42 0-.756-.33-.756-.698 0-.37.336-.686.756-.686.404 0 .723.317.723.686zm1.21 3.753c-.035-.05-.068-.183-.068-.25 0-.284.368-.5.654-.5.168 0 .336.083.403.248l2.22 6.01 2.22-5.94c.066-.168.134-.318.386-.318s.674.216.674.482c0 .1-.036.2-.07.267l-2.705 7.043c-.067.167-.27.267-.504.267-.236 0-.44-.084-.506-.267l-2.706-7.043zm12.775 2.303c0-1.068-.943-2.12-2.12-2.12-1.176 0-2.083 1.052-2.083 2.12v1.82c0 1.118.923 2.167 2.083 2.167 1.176 0 2.12-1.05 2.12-2.168v-1.82zm1.092 0v1.82c0 1.652-1.497 3.17-3.21 3.17-1.7 0-3.178-1.5-3.178-3.17v-1.82c0-1.668 1.43-3.122 3.177-3.122 1.714 0 3.21 1.404 3.21 3.122zm5.63 2.887c0-2.22-4.153-.967-4.153-3.74 0-1.066.74-2.268 2.656-2.268 1.11 0 2.252.417 2.252.817 0 .183-.183.567-.452.567-.268 0-.79-.467-1.783-.467-1.244 0-1.68.75-1.68 1.3 0 1.903 4.17.704 4.17 3.74 0 1.32-.992 2.154-2.707 2.154-1.58 0-2.64-.7-2.64-1.202 0-.217.168-.5.387-.5.37 0 .705.786 2.218.786 1.28 0 1.734-.553 1.734-1.187zM8.416 7.365c-1.607 0-2.913 1.288-2.913 2.888v17.77c4.928-.354 12.8-.582 21.682-.582 8.876 0 16.756.23 21.683.583v-17.77c0-1.596-1.298-2.888-2.914-2.888H8.416zm18.77 22.97c-8.882 0-16.755-.23-21.683-.584v17.77c0 1.597 1.298 2.89 2.913 2.89h37.538c1.608 0 2.914-1.29 2.914-2.89V29.75c-4.927.355-12.807.585-21.683.585z" filter="url(#a)" fill="#fff" fill-rule="evenodd"/></svg>