<svg width="512" height="512" viewBox="0 0 512 512" xmlns="http://www.w3.org/2000/svg"><title>flame</title><desc>Created with Sketch.</desc><path d="M264 480c-101.632 0-184-85.744-184-182 0-22.352.496-40.496 16-58-1.68 10.144 22.352 96.88 100.88 92.336-3.408-65.904-21.232-227.36 61.552-283.168C251.12 136.912 272.608 254.784 368.464 272c-5.488-35.184-4.832-93.712 19.808-104.528 2.656 53.904 42.512 87.152 42.512 138.96C430.784 400.256 340.016 480 264 480zm150.48-368.752c-70.16 20-83.008 76.72-78.48 112.752-50.048-58.848-48-126.512-48-224-160.512 60.528-123.184 235.008-128 288-40.368-33.04-48-112-48-112-42.624 21.936-64 80.496-64 128 0 114.88 93.12 208 208 208s208-93.12 208-208c0-68.272-50.128-99.76-49.52-192.752z" fill="#000" fill-rule="evenodd"/></svg>