<svg width="512" height="512" viewBox="0 0 512 512" xmlns="http://www.w3.org/2000/svg"><title>phone</title><desc>Created with Sketch.</desc><path d="M473.045 133.218c-28 50.814-90.17 129.033-142.214 180.618-59.997 61.984-201.437 146.748-201.437 146.748-10.92 5.475-41.223 5.884-49.557-2.06L49.68 429.795c-6.225-9.942-9.025-21.458 0-28.726l60.328-43.106c10.21-6.59 21.822-7.93 30.156 0l37.17 35.397c8.747-5.867 148.375-93.274 226.045-213.607l-38.062-36.262c-8.334-7.928-6.917-19.004 0-28.742l45.24-57.453c8.335-10.62 21.84-7.944 30.157 0l30.172 28.727c11.825 10.603 8.4 35.318 2.158 47.196zm23.683-67.71l-47.4-45.15c-13.076-12.477-34.305-12.477-47.4 0l-71.097 90.3c-10.853 15.276-13.076 32.675 0 45.15l29.02 27.642c-21.51 27.53-47.333 57.547-76.402 85.235-32.873 31.307-69.435 59.766-102.308 83.144l-28.048-26.698c-13.076-12.476-31.34-10.368-47.4 0l-94.797 67.726c-15.893 10.46-13.093 32.675 0 45.15l47.4 45.135c26.186 24.95 60.228 16.96 94.797 0 0 0 104.63-55.942 194.208-141.273 84.258-80.264 149.428-186.06 149.428-186.06 13.587-35.603 26.186-65.368 0-90.303z" fill="#000" fill-rule="evenodd"/></svg>