<svg width="512" height="512" viewBox="0 0 512 512" xmlns="http://www.w3.org/2000/svg"><title>store</title><desc>Created with Sketch.</desc><path d="M32.64 160l74.544-128h297.152l76.128 128H32.64zM480 224c-.24 22.096-25.696 32.016-48 32-25.712-.016-48.88-15.584-48.88-32H368c0 16.144-28.656 32-53.328 32-23.664 0-51.184-16.352-51.184-32h-15.504c0 16.144-28 32-51.648 32-24.672 0-52.832-11.36-52.832-32h-15.152c0 16.096-24.704 32.496-48.432 32.496-24.064 0-47.92-10.4-47.92-32.496v-32h448v32zm-16 160H48.048L48 288h31.424c17.184 0 44.432-15.328 55.968-38.784 12.944 22.8 37.104 38.784 60.176 38.784 24.368 0 51.2-14.496 60.16-35.456 8.976 20.464 35.248 35.456 59.12 35.456 23.68 0 48.208-17.408 60.624-41.184C389.984 270.816 401.696 288 432 288c4.688 0 27.904.768 32 0v96zm0 64c0 17.664-16.8 32-35.024 32H82.496c-18.224 0-34.448-14.336-34.448-32v-32H464v32zM418.464 0H93.008L0 160v64c0 17.04 6.128 35.664 16.016 48l.48 176c0 35.344 29.552 64 66 64h346.48C465.424 512 496 483.344 496 448V272c11.2-13.184 16-26.72 16-48v-64L418.464 0z" fill="#000" fill-rule="evenodd"/></svg>