<svg width="512" height="512" viewBox="0 0 512 512" xmlns="http://www.w3.org/2000/svg"><title>user</title><desc>Created with Sketch.</desc><path d="M403.364 408c0 39.76-35.868 72-80.106 72H189.742c-44.238 0-80.106-32.24-80.106-72v-48c0-34.016 26.322-62.336 61.602-69.872C195.308 308.864 224.68 320 256.5 320s61.193-11.136 85.262-29.872c35.28 7.536 61.602 35.856 61.602 69.872v48zm-261.09-248c0-70.688 51.14-128 114.226-128s114.227 57.312 114.227 128-51.14 128-114.227 128c-63.086 0-114.227-57.312-114.227-128zm227.654 101.648C390.798 234 403.364 198.592 403.364 160c0-88.352-65.746-160-146.864-160-81.118 0-146.864 71.648-146.864 160 0 38.592 12.565 74 33.436 101.648C104.725 274.64 77 309.968 77 352v64c0 53.008 43.847 96 97.91 96h163.18c54.063 0 97.91-42.992 97.91-96v-64c0-42.032-27.725-77.36-66.072-90.352z" fill="#000" fill-rule="evenodd"/></svg>