<svg width="512" height="512" viewBox="0 0 512 512" xmlns="http://www.w3.org/2000/svg"><title>pencil</title><desc>Created with Sketch.</desc><path d="M310 112.094H202V48.04c-.558-15.82.378-16.526 18-16.013h72c17.64.112 18.072-.53 18 16.013v64.054zm0 240.2c-36.972-.016-97.524 0-108 0V144.12h108v208.174zm-54 116.21l-54-84.183h108l-54 84.184zM310 0H202c-21.78 0-36 12.474-36 32.027v355.705l72 113.087c10.872 14.907 25.128 14.907 36 0l72-113.088V32.027C346 12.474 331.78.017 310 0z" fill="#000" fill-rule="evenodd"/></svg>