<svg width="512" height="512" viewBox="0 0 512 512" xmlns="http://www.w3.org/2000/svg"><title>mail</title><desc>Created with Sketch.</desc><path d="M480 384c0 3.248-.624 6.32-1.52 9.248L336 240l144-112v256zM56.896 415.136L201.28 261.28 256 302.64l52.352-41.616 146.752 154.112c-2.288.528-395.92.528-398.208 0zM32 384V128l144 112L33.52 393.248c-.896-2.928-1.52-6-1.52-9.248zM464 96L256 256 48 96h416zm-16-32H64C28.656 64 0 92.656 0 128v256c0 35.344 28.656 64 64 64h384c35.344 0 64-28.656 64-64V128c0-35.344-28.656-64-64-64z" fill="#000" fill-rule="evenodd"/></svg>