<svg width="512" height="512" viewBox="0 0 512 512" xmlns="http://www.w3.org/2000/svg"><title>twitter</title><desc>Created with Sketch.</desc><path d="M400.083 195.262c4.416 98.248-68.856 207.786-198.548 207.786-39.446 0-76.163-11.563-107.076-31.382 37.058 4.368 74.048-5.914 103.416-28.928-30.568-.563-56.365-20.757-65.253-48.51 10.946 2.093 21.714 1.48 31.544-1.195-33.59-6.752-56.782-37.013-56.026-69.376 9.417 5.233 20.19 8.376 31.64 8.74-31.11-20.792-39.915-61.87-21.617-93.26 34.452 42.26 85.925 70.07 143.977 72.983-10.19-43.694 22.958-85.772 68.045-85.772 20.093 0 38.246 8.482 50.988 22.06 15.912-3.133 30.86-8.946 44.36-16.95-5.218 16.31-16.295 30-30.716 38.645 14.13-1.686 27.593-5.442 40.12-11-9.363 14.01-21.204 26.312-34.854 36.16M449.863 0H62.137C27.82 0 0 27.82 0 62.136v387.728C0 484.18 27.82 512 62.136 512h387.728C484.18 512 512 484.18 512 449.864V62.136C512 27.82 484.18 0 449.864 0" fill="#000" fill-rule="evenodd"/></svg>