<svg width="512" height="512" viewBox="0 0 512 512" xmlns="http://www.w3.org/2000/svg"><title>paint</title><desc>Created with Sketch.</desc><path d="M475.764 89.903l-203.01 200.68-22.352-22.092L453.428 67.813c6.176-6.103 16.176-6.103 22.336 0 6.176 6.104 6.176 15.988 0 22.09zM216.898 345.818c-2.064-2.035-22.352-22.09-22.352-22.09l33.52-33.146 22.336 22.09-33.504 33.146zm-33.52 77.295c-15.745 14.626-86.097 47.226-127.522 15.62 0 0 14.417-11.263 25.33-33.866 26.063-69.318 91.023-59.05 91.023-59.05l22.336 22.076c.224.224 16.688 29.364-11.17 55.22zM498.115 45.72c-18.512-18.294-48.528-18.294-67.04 0l-274.85 271.71c-33.65-.768-80.257 11.167-100.37 77.136C40.48 429.456 0 427.696 0 427.696c84.05 93.345 183.105 40.448 205.714 17.508 19.888-20.153 22.752-44.823 20.624-64.56l271.778-268.65c18.512-18.31 18.512-47.98 0-66.273z" fill="#000" fill-rule="evenodd"/></svg>