<svg width="512" height="512" viewBox="0 0 512 512" xmlns="http://www.w3.org/2000/svg"><title>pin</title><desc>Created with Sketch.</desc><path d="M256 240c-26.512 0-48-21.488-48-48s21.488-48 48-48 48 21.488 48 48-21.488 48-48 48zm0-128c-44.176 0-80 35.808-80 80s35.824 80 80 80 80-35.808 80-80-35.824-80-80-80zm0 352c-26.608.144-160-205.104-160-272 0-88.352 71.632-160 160-160s160 71.648 160 160c0 66-133.808 272.144-160 272zm0-464C149.968 0 64 85.968 64 192c0 80.288 160.08 320.176 192 320 31.424.176 192-240.8 192-320C448 85.968 362.032 0 256 0z" fill="#000" fill-rule="evenodd"/></svg>