<svg width="512" height="512" viewBox="0 0 512 512" xmlns="http://www.w3.org/2000/svg"><title>reload</title><desc>Created with Sketch.</desc><path d="M379.84 32H496c8.832 0 16-7.2 16-16s-7.168-16-16-16H336c-1.936 0-16 0-16 16v160c0 8.8 7.168 16 16 16s16-7.2 16-16V53.76c75.648 36 128 112.96 128 202.24 0 123.68-100.288 224-224 224S32 379.68 32 256c0-112.8 83.488-205.92 192-221.44V2.24C97.744 18.08 0 125.44 0 256c0 141.44 114.624 256 256 256s256-114.56 256-256c0-96.48-53.376-180.32-132.16-224" fill="#000" fill-rule="evenodd"/></svg>