<svg width="512" height="512" viewBox="0 0 512 512" xmlns="http://www.w3.org/2000/svg"><title>tool</title><desc>Created with Sketch.</desc><path d="M441.547 243.992c-39.214 39.184-98.162 45.727-144.607 20.72L94.818 466.75c-13.68 13.664-35.853 13.664-49.55 0-13.662-13.683-13.662-35.82 0-49.503l202.156-202.04c-24.988-46.394-18.438-105.274 20.758-144.46 23.505-23.486 54.172-34.657 84.96-35.033-32.254 34.3-31.828 88.14 1.723 121.67 33.533 33.515 87.398 33.942 121.716 1.71-.374 30.763-11.53 61.408-35.033 84.895zm55.86-152.214c-8.63 9.703-22.958 22.053-43.494 40.86-21.748 21.727-52.535 21.727-74.282 0-21.763-21.762-21.763-52.51 0-74.254 20.042-20.036 41.585-43.763 41.244-43.865C362.624-12.35 291.414-1.966 243.416 46c-43.75 43.712-56.22 106.674-37.815 161.523L20.52 392.515c-27.36 27.33-27.36 71.657 0 98.987 27.358 27.33 71.706 27.33 99.064 0L304.65 306.527c54.922 18.43 117.913 5.927 161.663-37.784 47.93-47.914 57.89-118.802 31.094-176.965z" fill="#000" fill-rule="evenodd"/></svg>