<svg width="512" height="512" viewBox="0 0 512 512" xmlns="http://www.w3.org/2000/svg"><title>sound</title><desc>Created with Sketch.</desc><path d="M231.226 439.038l-115.613-80.083V153.027l115.613-80.083v366.094zM82.58 310.905c0 10.122-7.4 18.305-16.515 18.305H49.548c-9.117 0-16.516-8.183-16.516-18.305V201.077c0-10.104 7.4-18.305 16.516-18.305h16.517c9.116 0 16.516 8.2 16.516 18.305v109.828zm148.646-274.57L82.58 146.163H33.033c-18.234 0-33.032 16.4-33.032 36.61V329.21c0 20.208 14.798 36.61 33.032 36.61h49.55l148.644 109.827c18.234 0 33.032-16.4 33.032-36.61V72.945c0-20.208-14.798-36.61-33.032-36.61zM412.903 255.99c0-64.487-43.14-117.332-99.097-126.283v36.61c37.69 8.474 66.065 45.395 66.065 89.674 0 44.28-28.374 81.2-66.064 89.675v36.61c55.957-8.95 99.097-61.797 99.097-126.284zM313.806 0v37.58C410.79 58.28 478.968 145.942 478.968 255.99c0 109.426-66.065 194.195-165.162 218.412V512C425.72 493.842 512 386.74 512 255.99S425.72 18.14 313.806 0z" fill="#000" fill-rule="evenodd"/></svg>