<svg width="512" height="512" viewBox="0 0 512 512" xmlns="http://www.w3.org/2000/svg"><title>instagram</title><desc>Created with Sketch.</desc><path d="M181.404 258.326c0 40.984 33.398 74.206 74.595 74.206 41.197 0 74.594-33.222 74.594-74.206S297.198 184.12 256 184.12c-41.198 0-74.596 33.222-74.596 74.206zm-26.668 0c0-30.06 13.366-57.052 34.47-75.47 7.402-6.457 15.756-11.853 24.828-15.958 12.703-5.747 26.79-8.977 41.632-8.977 14.842 0 28.928 3.23 41.63 8.978 9.074 4.105 17.428 9.5 24.83 15.96 21.105 18.416 34.468 45.41 34.468 75.468 0 55.363-45.275 100.405-100.928 100.405-55.652 0-100.93-45.04-100.93-100.404zM465.716 58.28c0-8.924-7.274-16.158-16.244-16.158h-54.74c-8.975 0-16.244 7.234-16.244 16.158v55.655c0 8.924 7.27 16.158 16.243 16.158h54.742c8.97 0 16.242-7.234 16.242-16.158V58.28h.002zM512 100.737v66.16H349C325.237 142.896 292.203 128 255.665 128c-36.54 0-69.572 14.894-93.333 38.898H0v-66.16c0-33.954 16.904-63.962 42.78-82.212v108.476h20.76V7.254c4.71-1.884 9.593-3.42 14.623-4.587v124.336h20.763V.058C99.706.04 100.48 0 101.264 0h11.99v127h20.762V0h276.72C466.664 0 512 45.1 512 100.737zm-149.562 82.12H512v228.405C512 466.9 466.664 512 410.736 512H101.264C45.34 512 0 466.898 0 411.262V182.857h148.894c-15.242 21.302-24.235 47.332-24.235 75.47 0 71.976 58.653 130.326 131.007 130.326 72.353 0 131.007-58.35 131.007-130.327-.002-28.14-8.996-54.168-24.236-75.47z" fill="#000" fill-rule="evenodd"/></svg>