<svg width="512" height="512" viewBox="0 0 512 512" xmlns="http://www.w3.org/2000/svg"><title>facebook</title><desc>Created with Sketch.</desc><path d="M340.185 137.517h-39.752c-14.03 0-16.956 5.747-16.956 20.267v35.078h56.708l-5.456 61.578h-51.253V438.4h-73.46V255.22h-38.2v-62.358h38.2v-49.108c0-46.09 24.647-70.154 79.31-70.154h50.858v63.917zM449.865 0H62.134C27.82 0 0 27.82 0 62.136v387.728C0 484.18 27.82 512 62.136 512h387.728C484.18 512 512 484.18 512 449.864V62.136C512 27.82 484.182 0 449.864 0z" fill="#000" fill-rule="evenodd"/></svg>