<?xml version="1.0" encoding="UTF-8" standalone="no"?>
<svg width="189px" height="58px" viewBox="0 0 189 58" version="1.1" xmlns="http://www.w3.org/2000/svg" xmlns:xlink="http://www.w3.org/1999/xlink" xmlns:sketch="http://www.bohemiancoding.com/sketch/ns">
    <!-- Generator: Sketch 3.2.2 (9983) - http://www.bohemiancoding.com/sketch -->
    <title>logo 3dbambu</title>
    <desc>Created with Sketch.</desc>
    <defs>
        <path d="M3.41635914,0.803705569 C1.80854298,0.803705569 0.503242752,2.09206669 0.503242752,3.69185899 L0.503242752,3.69185899 L0.503242752,21.4619737 C5.43126465,21.1079061 13.3041484,20.879894 22.1854187,20.879894 L22.1854187,20.879894 C31.0610867,20.879894 38.94144,21.1079061 43.8675945,21.4619737 L43.8675945,21.4619737 L43.8675945,3.69185899 C43.8675945,2.0957742 42.5697639,0.803705569 40.9544782,0.803705569 L40.9544782,0.803705569 L3.41635914,0.803705569 Z M22.1854187,23.7736087 C13.3041484,23.7736087 5.43126465,23.5437428 0.503242752,23.1896752 L0.503242752,23.1896752 L0.503242752,40.9597899 C0.503242752,42.5558747 1.80107345,43.8479433 3.41635914,43.8479433 L3.41635914,43.8479433 L40.9544782,43.8479433 C42.5622943,43.8479433 43.8675945,42.5595822 43.8675945,40.9597899 L43.8675945,40.9597899 L43.8675945,23.1896752 C38.94144,23.5437428 31.0610867,23.7736087 22.1854187,23.7736087 L22.1854187,23.7736087 Z" id="path-1"></path>
    </defs>
    <g id="Page-1" stroke="none" stroke-width="1" fill="none" fill-rule="evenodd" sketch:type="MSPage">
        <g id="logo-3dbambu" sketch:type="MSLayerGroup" transform="translate(3.000000, 0.000000)">
            <g id="Group-51" transform="translate(57.000000, 0.000000)" fill="#FFFFFF" sketch:type="MSShapeGroup">
                <path d="M10.9344571,22.5637449 L10.9344571,22.0057641 C10.9344571,19.8405759 9.57687013,19.2251286 7.69268139,19.2251286 C6.83555291,19.2251286 6.53863913,18.4947483 6.53863913,17.7347079 C6.53863913,16.9987664 6.83555291,16.238726 7.69268139,16.238726 C9.16604603,16.238726 10.4059879,15.8865122 10.4059879,13.3709639 C10.4059879,11.4374954 9.40320358,10.7923879 7.80845909,10.7923879 C5.89065747,10.7923879 5.18291958,11.5820884 5.18291958,12.7555166 C5.18291958,13.6323437 4.77022809,14.2181309 3.3547523,14.2181309 C1.64423012,14.2181309 1.37906183,13.8084506 1.37906183,12.5775559 C1.37906183,10.4994943 2.85616123,7.48343167 7.83833721,7.48343167 C11.4087722,7.48343167 14.060455,8.83111301 14.060455,12.7258565 C14.060455,15.0393452 13.2070613,16.9116398 11.7617074,17.5845536 C13.5021077,18.2593212 14.7681929,19.5773424 14.7681929,22.0057641 L14.7681929,22.5637449 C14.7681929,27.277849 11.5843061,29.063017 7.69268139,29.063017 C2.85616123,29.063017 0.90848149,26.1044208 0.90848149,23.7334656 C0.90848149,22.5637449 1.40707256,22.2411912 2.73478138,22.2411912 C4.29964775,22.2411912 4.71233924,22.6508715 4.71233924,23.5888725 C4.71233924,24.9068938 5.89065747,25.7244006 7.78044836,25.7244006 C9.98956162,25.7244006 10.9344571,24.7863996 10.9344571,22.5637449" id="Fill-1"></path>
                <path d="M22.754987,10.822048 L22.754987,25.5464399 L25.8230962,25.5464399 C27.7670411,25.5464399 28.919216,24.4638459 28.919216,22.1837247 L28.919216,14.1884708 C28.919216,11.9046421 27.7670411,10.822048 25.8230962,10.822048 L22.754987,10.822048 Z M25.8230962,7.48343167 C29.7147209,7.48343167 32.7529519,9.30196729 32.7529519,14.1884708 L32.7529519,22.1837247 C32.7529519,27.072082 29.7147209,28.8850563 25.8230962,28.8850563 L20.6000279,28.8850563 C19.5972436,28.8850563 18.9175164,28.330783 18.9175164,27.7153356 L18.9175164,8.65685985 C18.9175164,8.04141252 19.5972436,7.48343167 20.6000279,7.48343167 L25.8230962,7.48343167 Z" id="Fill-3"></path>
                <path d="M44.273767,26.6622163 C46.6341382,26.6622163 48.0477466,25.4313216 48.0477466,22.6506861 L48.0477466,22.1501717 C48.0477466,19.3417299 46.6341382,18.3166022 44.273767,18.3166022 L40.2906405,18.3166022 L40.2906405,26.6622163 L44.273767,26.6622163 Z M40.2906405,16.2682007 L43.9787206,16.2682007 C46.3671025,16.2682007 47.5155427,15.2708795 47.5155427,12.8424578 C47.5155427,10.4715026 46.042178,9.70960846 43.8909536,9.70960846 L40.2906405,9.70960846 L40.2906405,16.2682007 Z M37.8144916,8.36378087 C37.8144916,7.7761399 38.3728389,7.48324629 38.934921,7.48324629 L44.0067313,7.48324629 C47.2503744,7.48324629 49.993559,8.39344098 49.993559,12.490244 C49.993559,14.9501795 49.0225202,16.6482209 47.4875319,17.2914746 C49.3138318,18.0237086 50.5257629,19.2842634 50.5257629,22.2706659 L50.5257629,22.7952792 C50.5257629,27.2776636 47.9581123,28.8848709 44.6864585,28.8848709 L38.934921,28.8848709 C38.2551938,28.8848709 37.8144916,28.4770444 37.8144916,28.037704 L37.8144916,8.36378087 Z" id="Fill-5"></path>
                <path d="M64.6398118,21.9481122 L61.368158,10.9405031 L58.0348806,21.9481122 L64.6398118,21.9481122 Z M53.7604425,27.8597433 C53.7604425,27.7744705 53.7884533,27.7151503 53.8183314,27.6280237 L59.8331698,8.15801384 C60.0105711,7.57408038 60.6902983,7.31084689 61.368158,7.31084689 C62.0460178,7.31084689 62.725745,7.60374049 62.8994115,8.15801384 L68.9179847,27.6280237 C68.9179847,27.7151503 68.9478628,27.7744705 68.9478628,27.831937 C68.9478628,28.4177242 68.1224798,28.8848709 67.4110072,28.8848709 C67.0001831,28.8848709 66.6453804,28.7106178 66.5296027,28.3305976 L65.2299046,23.9687074 L57.4765333,23.9687074 L56.1787026,28.3305976 C56.0573228,28.7106178 55.7043875,28.8848709 55.2636853,28.8848709 C54.6138363,28.8848709 53.7604425,28.4751906 53.7604425,27.8597433 L53.7604425,27.8597433 Z" id="Fill-7"></path>
                <path d="M81.8257046,20.9524593 C81.558669,21.4492662 81.2057337,21.6253731 80.8527984,21.6253731 C80.5558847,21.6253731 80.2029494,21.4492662 79.9359137,20.9524593 L75.5158198,12.5197187 L75.5158198,28.0097123 C75.5158198,28.591792 74.8958489,28.8846856 74.275878,28.8846856 C73.6559071,28.8846856 73.0359361,28.591792 73.0359361,28.0097123 L73.0359361,8.68614921 C73.0359361,7.80561463 73.6260289,7.48306091 74.275878,7.48306091 C75.1628846,7.48306091 75.7193645,8.01323542 76.2534358,9.03650929 L80.8808092,17.8492701 L85.5417954,9.03650929 C86.1001427,8.01323542 86.6323467,7.48306091 87.5193533,7.48306091 C88.1654675,7.48306091 88.7555603,7.80561463 88.7555603,8.68614921 L88.7555603,28.0097123 C88.7555603,28.591792 88.1355894,28.8846856 87.5193533,28.8846856 C86.8993823,28.8846856 86.2794114,28.591792 86.2794114,28.0097123 L86.2794114,12.6402129 L81.8257046,20.9524593 Z" id="Fill-9"></path>
                <path d="M100.867775,26.6622163 C103.228147,26.6622163 104.641755,25.4313216 104.641755,22.6506861 L104.641755,22.1501717 C104.641755,19.3417299 103.228147,18.3166022 100.867775,18.3166022 L96.8883837,18.3166022 L96.8883837,26.6622163 L100.867775,26.6622163 Z M96.8883837,16.2682007 L100.572729,16.2682007 C102.961111,16.2682007 104.113286,15.2708795 104.113286,12.8424578 C104.113286,10.4715026 102.636186,9.70960846 100.484962,9.70960846 L96.8883837,9.70960846 L96.8883837,16.2682007 Z M94.4085,8.36378087 C94.4085,7.7761399 94.9705821,7.48324629 95.5326642,7.48324629 L100.60074,7.48324629 C103.848118,7.48324629 106.589435,8.39344098 106.589435,12.490244 C106.589435,14.9501795 105.616529,16.6482209 104.085275,17.2914746 C105.911575,18.0237086 107.119771,19.2842634 107.119771,22.2706659 L107.119771,22.7952792 C107.119771,27.2776636 104.555855,28.8848709 101.280467,28.8848709 L95.5326642,28.8848709 C94.852937,28.8848709 94.4085,28.4770444 94.4085,28.037704 L94.4085,8.36378087 Z" id="Fill-11"></path>
                <path d="M117.34593,4.32296134 C117.226418,4.38042781 117.138651,4.43974803 117.021006,4.43974803 C116.51868,4.43974803 116.135867,3.91328104 116.135867,3.44613428 C116.135867,3.18290078 116.251644,2.94747364 116.51868,2.8028806 L119.967735,0.984344971 C120.055502,0.956538616 120.176882,0.926878504 120.264649,0.926878504 C120.766975,0.926878504 121.088164,1.45519925 121.088164,1.92234602 C121.088164,2.18743327 120.970519,2.48032688 120.675473,2.62491992 L117.34593,4.32296134 Z M122.270217,8.33449151 C122.270217,7.74870429 122.86031,7.48361704 123.510159,7.48361704 C124.096517,7.48361704 124.746366,7.74870429 124.746366,8.33449151 L124.746366,22.6788632 C124.746366,27.3355008 121.915415,29.0632024 118.287091,29.0632024 C114.660635,29.0632024 111.859561,27.3355008 111.859561,22.6788632 L111.859561,8.33449151 C111.859561,7.74870429 112.477665,7.48361704 113.097636,7.48361704 C113.717607,7.48361704 114.337577,7.74870429 114.337577,8.33449151 L114.337577,22.6788632 C114.337577,25.518819 115.810942,26.8368402 118.287091,26.8368402 C120.766975,26.8368402 122.270217,25.518819 122.270217,22.6788632 L122.270217,8.33449151 Z" id="Fill-13"></path>
                <path d="M6.31884823,44.9536074 C6.31884823,44.2028359 5.62978416,43.4520643 4.78946213,43.4520643 C4.08359162,43.4520643 3.34224084,44.0193139 3.34224084,44.9536074 L3.34224084,46.6219887 C3.34224084,46.9742026 3.96407915,47.8565909 4.82307501,47.8565909 C5.61297772,47.8565909 6.31884823,47.0891355 6.31884823,46.3216801 L6.31884823,44.9536074 Z M3.2096567,42.3342488 L3.2096567,42.8329094 C3.59620484,42.1840945 4.40291399,41.5667934 5.4785262,41.5667934 C7.15917027,41.5667934 8.48687908,43.1017042 8.48687908,44.9536074 L8.48687908,46.3216801 C8.48687908,48.1087019 7.10875094,49.7437155 5.54575196,49.7437155 C4.53736552,49.7437155 3.6634306,49.1097307 3.34224084,48.4256943 L3.34224084,52.5966476 C3.34224084,52.9488614 2.839915,53.2806839 2.23301576,53.2806839 C1.61117745,53.2806839 1.17420999,52.9488614 1.17420999,52.5966476 L1.17420999,42.3342488 C1.17420999,41.9338373 1.62798389,41.6668963 2.20127026,41.6668963 C2.7876283,41.6668963 3.2096567,41.9338373 3.2096567,42.3342488 L3.2096567,42.3342488 Z" id="Fill-15"></path>
                <path d="M14.0163848,46.1882096 L13.7624208,46.1882096 C12.6382567,46.1882096 11.5775835,46.3049963 11.5775835,47.2392898 C11.5775835,47.8565909 11.9641317,48.1420695 12.4701923,48.1420695 C13.1592563,48.1420695 14.0163848,47.3579303 14.0163848,46.5385697 L14.0163848,46.1882096 Z M16.1844157,44.8201369 L16.1844157,48.9095249 C16.1844157,49.2932526 15.7306418,49.5935612 15.1256099,49.5935612 C14.5709974,49.5935612 14.148969,49.2932526 14.148969,48.9095249 L14.148969,48.4256943 C13.5458045,49.1097307 12.7540344,49.7437155 11.59439,49.7437155 C10.4011327,49.7437155 9.40955268,49.0429954 9.40955268,47.5247684 C9.40955268,45.6061299 11.0080319,45.0703941 13.3273207,45.0703941 L14.0163848,45.0703941 L14.0163848,44.8535046 C14.0163848,44.1361006 13.6466431,43.3185938 12.537418,43.3185938 C11.2433221,43.3185938 11.022971,43.835792 10.6214838,43.835792 C10.1322296,43.835792 9.88013302,43.2518585 9.88013302,42.7680279 C9.88013302,42.0839916 11.3759062,41.5667934 12.5710309,41.5667934 C15.1928357,41.5667934 16.1844157,43.1350718 16.1844157,44.8201369 L16.1844157,44.8201369 Z" id="Fill-17"></path>
                <path d="M19.9649311,48.9091541 C19.9649311,49.2428304 19.4607379,49.5931905 18.8725125,49.5931905 C18.2338677,49.5931905 17.7969003,49.2428304 17.7969003,48.9091541 L17.7969003,42.333878 C17.7969003,41.9334665 18.2338677,41.6665255 18.8725125,41.6665255 C19.3935122,41.6665255 19.8304796,41.9334665 19.8304796,42.333878 L19.8304796,42.8343924 C20.1516694,42.1837237 20.9565111,41.5664226 22.08441,41.5664226 C23.6306026,41.5664226 24.9751178,43.1013334 24.9751178,44.9532367 L24.9751178,48.9091541 C24.9751178,49.3596171 24.4205053,49.5931905 23.8826992,49.5931905 C23.378506,49.5931905 22.8052196,49.3596171 22.8052196,48.9091541 L22.8052196,44.9532367 C22.8052196,44.2024651 22.1516358,43.4535473 21.3430593,43.4535473 C20.6539952,43.4535473 19.9649311,44.0189432 19.9649311,44.9532367 L19.9649311,48.9091541 Z" id="Fill-19"></path>
                <path d="M30.906671,44.9209813 C31.2596062,44.9209813 31.3940578,44.8375623 31.3940578,44.4705184 C31.3940578,43.6863791 30.7218001,43.1524971 29.915091,43.1524971 C29.1569338,43.1524971 28.4529306,43.6511578 28.4529306,44.4538346 L28.4529306,44.9209813 L30.906671,44.9209813 Z M33.4295045,44.7040917 C33.4295045,46.1203621 32.6209279,46.1889511 31.8665055,46.1889511 L28.4529306,46.1889511 L28.4529306,46.4392083 C28.4529306,47.4068695 29.240966,48.0427081 30.4192842,48.0427081 C31.5285093,48.0427081 31.9822832,47.4068695 32.4883438,47.4068695 C32.9906696,47.4068695 33.309992,48.0241705 33.309992,48.3578468 C33.309992,48.9250965 32.1503476,49.7444571 30.3520584,49.7444571 C27.9655439,49.7444571 26.2830324,48.3745306 26.2830324,46.3224216 L26.2830324,44.9042975 C26.2830324,43.1024457 27.9132572,41.5656811 29.9655103,41.5656811 C31.8142188,41.5656811 33.4295045,42.8521885 33.4295045,44.7040917 L33.4295045,44.7040917 Z" id="Fill-21"></path>
                <path d="M37.0395279,37.7106081 L37.0395279,48.9091541 C37.0395279,49.2428304 36.5353347,49.5931905 35.9471093,49.5931905 C35.3084646,49.5931905 34.8714971,49.2428304 34.8714971,48.9091541 L34.8714971,37.7106081 C34.8714971,37.3101965 35.3084646,37.0451093 35.9471093,37.0451093 C36.5353347,37.0451093 37.0395279,37.3101965 37.0395279,37.7106081" id="Fill-23"></path>
                <path d="M43.1904985,44.9209813 C43.5434338,44.9209813 43.6778853,44.8375623 43.6778853,44.4705184 C43.6778853,43.6863791 43.0056277,43.1524971 42.1989185,43.1524971 C41.4407613,43.1524971 40.7367582,43.6511578 40.7367582,44.4538346 L40.7367582,44.9209813 L43.1904985,44.9209813 Z M45.713332,44.7040917 C45.713332,46.1203621 44.9047555,46.1889511 44.150333,46.1889511 L40.7367582,46.1889511 L40.7367582,46.4392083 C40.7367582,47.4068695 41.5247935,48.0427081 42.7031117,48.0427081 C43.8123368,48.0427081 44.2661107,47.4068695 44.7721713,47.4068695 C45.2744972,47.4068695 45.5938195,48.0241705 45.5938195,48.3578468 C45.5938195,48.9250965 44.4341751,49.7444571 42.635886,49.7444571 C40.2493714,49.7444571 38.5668599,48.3745306 38.5668599,46.3224216 L38.5668599,44.9042975 C38.5668599,43.1024457 40.1970847,41.5656811 42.2493378,41.5656811 C44.0980463,41.5656811 45.713332,42.8521885 45.713332,44.7040917 L45.713332,44.7040917 Z" id="Fill-25"></path>
                <path d="M50.7694563,47.390371 C50.7694563,45.9221955 46.7844625,46.8398052 46.7844625,44.0517547 C46.7844625,42.8690577 47.5407523,41.5658665 49.7946828,41.5658665 C51.1560044,41.5658665 52.4669068,42.0330133 52.4669068,42.6503144 C52.4669068,42.950623 52.1811973,43.6865645 51.6770041,43.6865645 C51.2755169,43.6865645 50.7526499,43.2008802 49.8282956,43.2008802 C48.9879736,43.2008802 48.6499774,43.6198293 48.6499774,43.9535055 C48.6499774,45.1714239 52.6853906,44.3372332 52.6853906,47.306952 C52.6853906,48.7936651 51.5761655,49.7446424 49.5930055,49.7446424 C47.8768811,49.7446424 46.5491723,49.0439223 46.5491723,48.3079807 C46.5491723,47.9594744 46.8516882,47.3570034 47.2718493,47.3570034 C47.7611034,47.3570034 48.1308451,48.1096287 49.5425861,48.1096287 C50.5341661,48.1096287 50.7694563,47.725901 50.7694563,47.390371" id="Fill-27"></path>
                <path d="M54.9710665,46.5394966 C54.9710665,47.6406282 55.930901,48.7083923 57.0550651,48.7083923 C58.2333834,48.7083923 59.1073183,47.5572092 59.1073183,47.0566948 L59.1073183,44.7209609 C59.1073183,43.3862559 58.0821254,42.6002629 57.0718716,42.6002629 C55.9122272,42.6002629 54.9710665,43.6513431 54.9710665,44.7209609 L54.9710665,46.5394966 Z M60.1997369,37.259589 L60.1997369,49.1588552 C60.1997369,49.3757448 59.9812532,49.5926344 59.6787373,49.5926344 C59.3930278,49.5926344 59.1577376,49.3757448 59.1577376,49.1588552 L59.1577376,48.4266212 C58.7879959,49.1106575 57.8953872,49.7112748 56.8552552,49.7112748 C55.256776,49.7112748 53.8786478,48.1930478 53.8786478,46.5394966 L53.8786478,44.7209609 C53.8786478,43.0025282 55.2418369,41.5992341 56.8870007,41.5992341 C57.9962258,41.5992341 58.7525156,42.2165352 59.1073183,42.8690577 L59.1073183,37.259589 C59.1073183,37.0260156 59.3594149,36.8591775 59.6787373,36.8591775 C59.9812532,36.8591775 60.1997369,37.0260156 60.1997369,37.259589 L60.1997369,37.259589 Z" id="Fill-29"></path>
                <path d="M66.4672322,45.1708678 C67.1394898,45.1708678 67.3075542,45.0707649 67.3075542,44.6036181 C67.3075542,43.5358541 66.4504257,42.5014577 65.2048817,42.5014577 C64.0452373,42.5014577 63.1040766,43.4190674 63.1040766,44.5368829 L63.1040766,45.1708678 L66.4672322,45.1708678 Z M68.3682273,44.6369857 C68.3682273,45.9216394 67.643683,45.9735445 66.9023322,45.9735445 L63.1040766,45.9735445 L63.1040766,46.5908456 C63.1040766,47.9236969 64.1796888,48.7597413 65.6586556,48.7597413 C66.9882318,48.7597413 67.3075542,48.090535 67.6772959,48.090535 C67.9461989,48.090535 68.1478762,48.4075275 68.1478762,48.6077333 C68.1478762,49.0081448 67.1899091,49.7107187 65.6269101,49.7107187 C63.5074312,49.7107187 62.011658,48.4427489 62.011658,46.5389404 L62.011658,44.6684996 C62.011658,43.0019721 63.4588793,41.598678 65.2235555,41.598678 C66.8873932,41.598678 68.3682273,42.8685016 68.3682273,44.6369857 L68.3682273,44.6369857 Z" id="Fill-31"></path>
                <path d="M69.726001,46.5394966 L69.726001,44.7543286 C69.726001,42.9839906 70.7343874,41.5992341 72.9696441,41.5992341 C74.4000589,41.5992341 75.3412196,42.2350728 75.3412196,42.683682 C75.3412196,42.9172554 75.1227359,43.217564 74.8538328,43.217564 C74.5345104,43.217564 74.2488009,42.6002629 73.0219308,42.6002629 C71.557903,42.6002629 70.8184197,43.4177698 70.8184197,44.7543286 L70.8184197,46.5394966 C70.8184197,47.8908854 71.557903,48.7083923 73.0368698,48.7083923 C74.3328331,48.7083923 74.6017362,48.0744074 74.937865,48.0744074 C75.2403809,48.0744074 75.4420582,48.3580322 75.4420582,48.6082894 C75.4420582,49.0587523 74.4672847,49.7112748 72.9864505,49.7112748 C70.7511939,49.7112748 69.726001,48.3580322 69.726001,46.5394966" id="Fill-33"></path>
                <path d="M81.8128197,44.7200341 C81.8128197,43.65227 80.8697916,42.599336 79.6933408,42.599336 C78.5168899,42.599336 77.6093421,43.65227 77.6093421,44.7200341 L77.6093421,46.5385697 C77.6093421,47.6582389 78.5336964,48.7074654 79.6933408,48.7074654 C80.8697916,48.7074654 81.8128197,47.6582389 81.8128197,46.5385697 L81.8128197,44.7200341 Z M82.9052383,44.7200341 L82.9052383,46.5385697 C82.9052383,48.1921209 81.4075977,49.7103479 79.6933408,49.7103479 C77.9958903,49.7103479 76.5169235,48.2088047 76.5169235,46.5385697 L76.5169235,44.7200341 C76.5169235,43.0516528 77.9454709,41.5983073 79.6933408,41.5983073 C81.4075977,41.5983073 82.9052383,43.0016013 82.9052383,44.7200341 L82.9052383,44.7200341 Z" id="Fill-35"></path>
                <path d="M88.0130891,42.6002629 C86.9019967,42.6002629 85.794639,43.5178726 85.794639,45.0360996 L85.794639,49.1588552 C85.794639,49.3757448 85.5593488,49.5926344 85.2400264,49.5926344 C84.9375105,49.5926344 84.7022203,49.3757448 84.7022203,49.1588552 L84.7022203,42.0997485 C84.7022203,41.8661751 84.9375105,41.7011908 85.2400264,41.7011908 C85.5257359,41.7011908 85.7610261,41.8661751 85.7610261,42.0997485 L85.7610261,42.9172554 C86.1289004,42.2517566 86.9206705,41.5992341 88.0130891,41.5992341 L88.6013146,41.5992341 C88.8366047,41.5992341 89.038282,41.8328075 89.038282,42.0997485 C89.038282,42.3666895 88.8366047,42.6002629 88.6013146,42.6002629 L88.0130891,42.6002629 Z" id="Fill-37"></path>
                <path d="M94.4833821,45.972803 L93.7756442,45.972803 C92.2294516,45.972803 90.8009042,46.1211036 90.8009042,47.4057572 C90.8009042,48.3752721 91.4395489,48.7923675 92.2649319,48.7923675 C93.3405441,48.7923675 94.4833821,47.7894849 94.4833821,47.0405671 L94.4833821,45.972803 Z M95.5758007,44.8197662 L95.5758007,49.1594113 C95.5758007,49.4096685 95.357317,49.5931905 95.0379946,49.5931905 C94.7522851,49.5931905 94.531934,49.4096685 94.531934,49.1594113 L94.531934,48.4253236 C93.945576,49.0926761 93.1220604,49.7118309 91.9941615,49.7118309 C90.716872,49.7118309 89.7084855,49.009257 89.7084855,47.5077138 C89.7084855,45.6891782 91.288291,45.2220315 93.6262536,45.2220315 L94.4833821,45.2220315 L94.4833821,44.8197662 C94.4833821,43.7520021 93.945576,42.5507676 92.4983547,42.5507676 C91.3723232,42.5507676 90.9689686,43.0345982 90.7000655,43.0345982 C90.414356,43.0345982 90.2630981,42.7009219 90.2630981,42.4506647 C90.2630981,42.0168856 91.4563554,41.5997903 92.5319676,41.5997903 C94.785898,41.5997903 95.5758007,43.1532386 95.5758007,44.8197662 L95.5758007,44.8197662 Z" id="Fill-39"></path>
                <path d="M98.6849923,47.1404846 C98.6849923,48.2249324 99.0883468,48.6086601 100.247991,48.6086601 L100.718572,48.6086601 C101.021088,48.6086601 101.222765,48.8422335 101.222765,49.0924907 C101.222765,49.3594317 101.021088,49.5930051 100.718572,49.5930051 L100.247991,49.5930051 C98.5150605,49.5930051 97.5907062,48.8589173 97.5907062,47.1404846 L97.5907062,38.3462613 C97.5907062,38.112688 97.8764157,37.9439961 98.1285123,37.9439961 C98.3992828,37.9439961 98.6849923,38.112688 98.6849923,38.3462613 L98.6849923,41.6997078 L100.853023,41.6997078 C101.071507,41.6997078 101.239571,41.9165973 101.239571,42.1501707 C101.239571,42.3855979 101.071507,42.6006337 100.853023,42.6006337 L98.6849923,42.6006337 L98.6849923,47.1404846 Z" id="Fill-41"></path>
                <path d="M103.708998,42.10049 L103.708998,49.1595967 C103.708998,49.3764863 103.456901,49.5933759 103.154385,49.5933759 C102.851869,49.5933759 102.616579,49.3764863 102.616579,49.1595967 L102.616579,42.10049 C102.616579,41.8669166 102.851869,41.7000785 103.154385,41.7000785 C103.456901,41.7000785 103.708998,41.8669166 103.708998,42.10049 M103.877062,38.6636245 C103.877062,39.0306684 103.55774,39.3624909 103.154385,39.3624909 C102.734224,39.3624909 102.398095,39.0306684 102.398095,38.6636245 C102.398095,38.2947269 102.734224,37.9777344 103.154385,37.9777344 C103.55774,37.9777344 103.877062,38.2947269 103.877062,38.6636245" id="Fill-43"></path>
                <path d="M105.085819,42.4172971 C105.052206,42.3672457 105.018593,42.2337752 105.018593,42.1670399 C105.018593,41.8834151 105.388335,41.6665255 105.674044,41.6665255 C105.842108,41.6665255 106.010173,41.7499446 106.077399,41.914929 L108.297716,47.9248092 L110.516166,41.983518 C110.583392,41.8166798 110.650618,41.6665255 110.902714,41.6665255 C111.154811,41.6665255 111.576839,41.8834151 111.576839,42.1485023 C111.576839,42.250459 111.541359,42.3505619 111.507746,42.4172971 L108.801909,49.45972 C108.734684,49.6265581 108.533006,49.726661 108.297716,49.726661 C108.062426,49.726661 107.858881,49.6432419 107.791656,49.45972 L105.085819,42.4172971 Z" id="Fill-45"></path>
                <path d="M117.862075,44.7200341 C117.862075,43.65227 116.919047,42.599336 115.742596,42.599336 C114.566145,42.599336 113.658597,43.65227 113.658597,44.7200341 L113.658597,46.5385697 C113.658597,47.6582389 114.582951,48.7074654 115.742596,48.7074654 C116.919047,48.7074654 117.862075,47.6582389 117.862075,46.5385697 L117.862075,44.7200341 Z M118.954493,44.7200341 L118.954493,46.5385697 C118.954493,48.1921209 117.456853,49.7103479 115.742596,49.7103479 C114.045145,49.7103479 112.566179,48.2088047 112.566179,46.5385697 L112.566179,44.7200341 C112.566179,43.0516528 113.994726,41.5983073 115.742596,41.5983073 C117.456853,41.5983073 118.954493,43.0016013 118.954493,44.7200341 L118.954493,44.7200341 Z" id="Fill-47"></path>
                <path d="M124.583904,47.607446 C124.583904,45.3884988 120.430846,46.6397848 120.430846,43.8684181 C120.430846,42.8006541 121.170329,41.5994195 123.086264,41.5994195 C124.197356,41.5994195 125.338327,42.0165148 125.338327,42.4169264 C125.338327,42.6004483 125.155323,42.984176 124.88642,42.984176 C124.617517,42.984176 124.09465,42.5170292 123.10307,42.5170292 C121.859393,42.5170292 121.424293,43.2678008 121.424293,43.8183666 C121.424293,45.7203213 125.592291,44.5209406 125.592291,47.5573945 C125.592291,48.8772695 124.600711,49.7114602 122.886454,49.7114602 C121.304781,49.7114602 120.245975,49.0088863 120.245975,48.5083719 C120.245975,48.2914823 120.414039,48.0078575 120.632523,48.0078575 C121.002265,48.0078575 121.338394,48.7938505 122.850973,48.7938505 C124.13013,48.7938505 124.583904,48.2414309 124.583904,47.607446" id="Fill-49"></path>
            </g>
            <g id="Group-54" transform="translate(0.000000, 6.561271)">
                <mask id="mask-2" sketch:name="Clip 53" fill="white">
                    <use xlink:href="#path-1"></use>
                </mask>
                <g id="Clip-53"></g>
                <path d="M-14.0716761,-13.6685754 L58.4425134,-13.6685754 L58.4425134,58.3202243 L-14.0716761,58.3202243 L-14.0716761,-13.6685754 Z" id="Fill-52" fill="#FFFFFF" sketch:type="MSShapeGroup" mask="url(#mask-2)"></path>
            </g>
        </g>
    </g>
</svg>