<?xml version="1.0" encoding="UTF-8" standalone="no"?>
<svg width="140px" height="28px" viewBox="0 0 140 28" version="1.1" xmlns="http://www.w3.org/2000/svg" xmlns:xlink="http://www.w3.org/1999/xlink" xmlns:sketch="http://www.bohemiancoding.com/sketch/ns">
    <!-- Generator: Sketch 3.3.2 (12043) - http://www.bohemiancoding.com/sketch -->
    <title>logo</title>
    <desc>Created with Sketch.</desc>
    <defs></defs>
    <g id="Page-1" stroke="none" stroke-width="1" fill="none" fill-rule="evenodd" sketch:type="MSPage">
        <g id="logo" sketch:type="MSLayerGroup" transform="translate(0.000000, 1.000000)">
            <path d="M2.295,25.071 L2.787,18.141 L3.014,13.09 L3.077,10.843 C3.093,10.192 3.102,9.566 3.102,8.965 L3.089,7.747 C4.419,7.764 5.414,7.772 6.075,7.772 C6.591,7.772 7.49,7.764 8.769,7.747 C8.567,10.175 8.438,12.32 8.379,14.181 L15.288,14.181 C15.33,13.486 15.37,12.547 15.408,11.365 C15.445,10.182 15.464,9.374 15.464,8.942 C15.464,8.713 15.456,8.314 15.439,7.747 L18.443,7.772 C18.755,7.772 19.643,7.764 21.105,7.747 C20.803,12.096 20.609,15.33 20.526,17.45 C20.441,19.569 20.399,22.109 20.399,25.071 L17.63,25.045 C17.215,25.045 16.224,25.054 14.657,25.071 C14.869,23.057 15.013,20.713 15.089,18.04 L8.175,18.04 L7.962,25.071 L5.015,25.045 C4.641,25.045 3.735,25.054 2.295,25.071" id="Fill-1" fill="#1B1A19" sketch:type="MSShapeGroup"></path>
            <path d="M32.408,14.968 C33.567,14.985 34.671,14.994 35.721,14.994 C37.515,14.994 38.919,14.985 39.934,14.968 C39.824,16.127 39.712,17.769 39.599,19.893 C39.484,22.017 39.415,23.62 39.39,24.703 C38.416,24.88 37.61,25.009 36.971,25.09 C36.333,25.17 35.565,25.242 34.668,25.306 C33.771,25.369 32.972,25.401 32.269,25.401 C31.118,25.401 29.989,25.308 28.88,25.122 C27.772,24.936 26.78,24.635 25.904,24.221 C25.028,23.806 24.298,23.244 23.714,22.533 C23.13,21.822 22.68,20.98 22.363,20.007 C22.045,19.034 21.886,18.027 21.886,16.986 C21.886,15.269 22.314,13.673 23.169,12.201 C24.023,10.73 25.252,9.564 26.856,8.705 C28.459,7.846 30.53,7.417 33.068,7.417 C34.921,7.417 36.973,7.641 39.223,8.089 C39.223,9.325 39.278,10.7 39.389,12.214 C38.779,12.011 38.287,11.857 37.91,11.751 C37.533,11.645 37.093,11.548 36.59,11.459 C36.086,11.37 35.608,11.304 35.156,11.262 C34.703,11.22 34.299,11.199 33.943,11.199 C33.013,11.199 32.133,11.332 31.304,11.599 C30.475,11.865 29.762,12.275 29.166,12.83 C28.569,13.384 28.123,14.046 27.827,14.816 C27.53,15.586 27.382,16.398 27.382,17.253 C27.382,18.124 27.551,18.9 27.89,19.582 C28.228,20.263 28.766,20.781 29.502,21.136 C30.238,21.492 31.059,21.669 31.964,21.669 C32.716,21.669 33.542,21.56 34.439,21.339 L34.584,18.585 C34.032,18.56 33.706,18.547 33.604,18.547 L32.256,18.56 L32.345,16.999 C32.353,16.83 32.366,16.586 32.382,16.269 C32.399,15.952 32.408,15.519 32.408,14.968" id="Fill-2" fill="#1B1A19" sketch:type="MSShapeGroup"></path>
            <path d="M41.071,25.071 C41.284,23.074 41.437,21.446 41.53,20.185 C41.709,17.883 41.842,15.597 41.932,13.325 C42.021,11.053 42.066,9.193 42.066,7.747 C43.215,7.764 44.234,7.772 45.122,7.772 C45.722,7.772 46.585,7.764 47.709,7.747 L47.403,12.341 L47.021,19.524 L46.97,21.289 C48.426,21.314 49.374,21.327 49.814,21.327 C52.04,21.327 53.725,21.297 54.867,21.238 L54.588,25.071 C52.362,25.054 50.243,25.045 48.229,25.045 C45.505,25.045 43.119,25.054 41.071,25.071" id="Fill-3" fill="#1B1A19" sketch:type="MSShapeGroup"></path>
            <path d="M65.03,22.742 C64.93,23.273 64.843,23.813 64.771,24.362 C64.253,24.453 63.78,24.516 63.349,24.553 C62.918,24.589 62.547,24.607 62.239,24.607 C61.558,24.607 60.909,24.512 60.289,24.321 C59.669,24.13 59.111,23.83 58.614,23.419 C58.118,23.009 57.757,22.51 57.535,21.925 C57.313,21.34 57.202,20.7 57.202,20.006 C57.202,19.252 57.335,18.556 57.604,17.916 C57.871,17.276 58.255,16.737 58.757,16.296 C59.259,15.856 59.852,15.528 60.537,15.313 C61.222,15.098 61.937,14.99 62.681,14.99 C63.417,14.99 64.219,15.073 65.09,15.241 C65.105,15.645 65.118,15.931 65.131,16.099 L65.179,16.827 C64.667,16.691 64.24,16.598 63.9,16.548 C63.56,16.498 63.235,16.473 62.926,16.473 C62.44,16.473 61.975,16.547 61.527,16.694 C61.081,16.842 60.686,17.077 60.343,17.399 C60,17.721 59.737,18.11 59.554,18.566 C59.37,19.022 59.278,19.498 59.278,19.992 C59.278,20.583 59.391,21.111 59.618,21.578 C59.845,22.046 60.209,22.425 60.71,22.715 C61.212,23.005 61.833,23.15 62.572,23.15 C63.258,23.15 64.076,23.014 65.03,22.742" id="Fill-4" fill="#1B1A19" sketch:type="MSShapeGroup"></path>
            <path d="M69.376,17.358 C69.898,17.358 70.398,17.437 70.877,17.593 C71.355,17.75 71.762,17.981 72.095,18.287 C72.429,18.593 72.68,18.968 72.848,19.41 C73.015,19.853 73.099,20.319 73.099,20.809 C73.099,21.326 73.011,21.826 72.834,22.306 C72.657,22.787 72.4,23.204 72.065,23.555 C71.729,23.907 71.31,24.17 70.809,24.345 C70.307,24.52 69.773,24.607 69.206,24.607 C68.679,24.607 68.179,24.529 67.705,24.373 C67.23,24.216 66.826,23.981 66.49,23.668 C66.154,23.355 65.899,22.974 65.725,22.524 C65.549,22.075 65.462,21.605 65.462,21.115 C65.462,20.616 65.542,20.14 65.701,19.686 C65.859,19.232 66.108,18.828 66.446,18.474 C66.784,18.121 67.216,17.846 67.743,17.651 C68.269,17.456 68.814,17.358 69.376,17.358 L69.376,17.358 Z M69.376,18.76 C68.982,18.76 68.631,18.857 68.321,19.05 C68.012,19.242 67.781,19.529 67.63,19.911 C67.477,20.292 67.402,20.707 67.402,21.156 C67.402,21.551 67.464,21.903 67.588,22.211 C67.713,22.52 67.917,22.77 68.199,22.96 C68.482,23.15 68.818,23.246 69.207,23.246 C69.604,23.246 69.954,23.147 70.254,22.95 C70.555,22.752 70.781,22.462 70.932,22.079 C71.083,21.695 71.159,21.272 71.159,20.809 C71.159,20.433 71.101,20.089 70.983,19.781 C70.865,19.473 70.667,19.226 70.39,19.039 C70.112,18.853 69.773,18.76 69.376,18.76 L69.376,18.76 Z" id="Fill-5" fill="#1B1A19" sketch:type="MSShapeGroup"></path>
            <path d="M73.519,24.444 C73.623,23.414 73.709,22.257 73.779,20.972 C73.849,19.688 73.889,18.538 73.897,17.522 C74.315,17.531 74.649,17.535 74.899,17.535 C75.194,17.535 75.508,17.531 75.84,17.522 L75.764,18.678 C75.905,18.479 76.028,18.32 76.135,18.202 C76.242,18.084 76.377,17.969 76.544,17.855 C76.71,17.742 76.886,17.651 77.074,17.583 C77.262,17.515 77.474,17.46 77.707,17.419 C77.941,17.378 78.185,17.358 78.439,17.358 C78.843,17.358 79.23,17.409 79.6,17.511 C79.97,17.613 80.269,17.775 80.495,17.998 C80.722,18.22 80.872,18.463 80.944,18.726 C81.017,18.989 81.053,19.268 81.053,19.564 C81.053,19.686 81.046,19.881 81.033,20.148 L80.893,23.124 C80.874,23.536 80.863,23.977 80.859,24.444 C80.499,24.435 80.193,24.43 79.939,24.43 C79.593,24.43 79.246,24.435 78.895,24.444 C78.932,24.049 78.977,23.361 79.032,22.378 C79.087,21.396 79.114,20.746 79.114,20.428 C79.114,20.069 79.058,19.781 78.944,19.564 C78.831,19.346 78.655,19.18 78.417,19.067 C78.179,18.954 77.922,18.896 77.645,18.896 C77.373,18.896 77.119,18.948 76.884,19.053 C76.648,19.158 76.444,19.309 76.271,19.509 C76.09,19.713 75.95,19.965 75.85,20.265 C75.746,20.583 75.669,21.106 75.619,21.837 C75.573,22.486 75.537,23.355 75.509,24.444 C75.159,24.435 74.843,24.43 74.561,24.43 C74.275,24.43 73.928,24.435 73.519,24.444" id="Fill-6" fill="#1B1A19" sketch:type="MSShapeGroup"></path>
            <path d="M81.609,24.315 L81.459,22.817 C81.903,22.999 82.28,23.125 82.589,23.195 C82.898,23.265 83.181,23.3 83.44,23.3 C83.698,23.3 83.916,23.27 84.093,23.209 C84.27,23.147 84.402,23.056 84.488,22.936 C84.574,22.815 84.617,22.69 84.617,22.559 C84.617,22.499 84.612,22.445 84.6,22.395 C84.589,22.345 84.568,22.293 84.539,22.238 C84.509,22.184 84.476,22.133 84.437,22.085 C84.398,22.038 84.345,21.983 84.277,21.922 C84.209,21.861 84.111,21.783 83.984,21.687 L83.617,21.394 C83.263,21.118 82.993,20.9 82.807,20.741 C82.621,20.583 82.464,20.42 82.337,20.254 C82.21,20.089 82.114,19.914 82.048,19.73 C81.982,19.546 81.949,19.359 81.949,19.169 C81.949,18.837 82.05,18.522 82.252,18.223 C82.454,17.923 82.748,17.704 83.133,17.565 C83.519,17.427 83.973,17.358 84.495,17.358 C85.089,17.358 85.774,17.428 86.55,17.569 L86.639,18.992 C86.112,18.778 85.606,18.671 85.121,18.671 C84.858,18.671 84.627,18.698 84.43,18.75 C84.233,18.802 84.091,18.882 84.004,18.988 C83.919,19.095 83.876,19.214 83.876,19.346 C83.876,19.423 83.889,19.499 83.916,19.573 C83.944,19.648 83.991,19.727 84.059,19.809 C84.127,19.89 84.206,19.967 84.294,20.04 C84.382,20.112 84.567,20.255 84.849,20.469 C85.13,20.682 85.376,20.875 85.587,21.047 C85.798,21.22 85.972,21.394 86.108,21.568 C86.244,21.743 86.348,21.93 86.421,22.13 C86.494,22.329 86.53,22.531 86.53,22.735 C86.53,23.075 86.425,23.391 86.217,23.682 C86.008,23.972 85.693,24.199 85.271,24.362 C84.849,24.525 84.376,24.607 83.855,24.607 C83.583,24.607 83.251,24.585 82.861,24.543 C82.471,24.5 82.053,24.423 81.609,24.315" id="Fill-7" fill="#1B1A19" sketch:type="MSShapeGroup"></path>
            <path d="M91.455,23.021 C91.401,23.271 91.315,23.734 91.197,24.41 C90.815,24.496 90.516,24.55 90.298,24.573 C90.08,24.596 89.877,24.607 89.686,24.607 C89.35,24.607 89.049,24.575 88.784,24.512 C88.518,24.448 88.299,24.336 88.127,24.175 C87.954,24.014 87.837,23.825 87.777,23.61 C87.715,23.395 87.684,23.171 87.684,22.939 C87.684,22.88 87.686,22.801 87.691,22.702 C87.696,22.601 87.714,22.279 87.746,21.735 L87.901,18.903 L86.922,18.903 C86.945,18.631 86.965,18.193 86.983,17.589 L88.008,17.589 C88.036,17.327 88.063,16.879 88.089,16.249 L88.894,16.092 C89.063,16.06 89.387,15.985 89.87,15.867 C89.837,16.48 89.818,17.054 89.814,17.589 L91.544,17.589 C91.512,18.202 91.496,18.64 91.496,18.903 L89.76,18.903 C89.665,20.75 89.617,21.819 89.617,22.109 C89.617,22.39 89.648,22.608 89.709,22.762 C89.77,22.917 89.869,23.028 90.005,23.096 C90.141,23.164 90.286,23.198 90.441,23.198 C90.554,23.198 90.674,23.189 90.798,23.171 C90.923,23.153 91.142,23.103 91.455,23.021" id="Fill-8" fill="#1B1A19" sketch:type="MSShapeGroup"></path>
            <path d="M91.684,24.444 L91.881,21.21 L91.936,19.332 C91.945,18.947 91.949,18.558 91.949,18.168 C91.949,18.1 91.945,17.885 91.936,17.522 C92.358,17.531 92.669,17.535 92.868,17.535 C93.1,17.535 93.407,17.531 93.788,17.522 L93.754,18.481 C93.926,18.236 94.073,18.054 94.196,17.934 C94.318,17.814 94.456,17.71 94.607,17.623 C94.76,17.538 94.929,17.472 95.115,17.426 C95.3,17.381 95.491,17.358 95.687,17.358 C95.868,17.358 96.054,17.381 96.244,17.426 C96.244,17.848 96.265,18.383 96.306,19.032 C96.038,18.96 95.795,18.924 95.578,18.924 C95.314,18.924 95.082,18.963 94.879,19.043 C94.678,19.122 94.496,19.242 94.335,19.404 C94.174,19.564 94.041,19.763 93.937,19.999 C93.851,20.19 93.788,20.437 93.746,20.741 C93.711,20.977 93.681,21.381 93.657,21.952 C93.632,22.524 93.62,23.087 93.62,23.641 C93.62,23.854 93.627,24.122 93.641,24.444 C93.295,24.435 92.979,24.43 92.693,24.43 C92.411,24.43 92.075,24.435 91.684,24.444" id="Fill-9" fill="#1B1A19" sketch:type="MSShapeGroup"></path>
            <path d="M103.43,24.444 C103.03,24.435 102.724,24.43 102.511,24.43 C102.243,24.43 101.939,24.435 101.598,24.444 L101.611,23.314 C101.484,23.504 101.372,23.658 101.277,23.773 C101.182,23.889 101.057,24.003 100.903,24.114 C100.749,24.225 100.581,24.313 100.399,24.379 C100.218,24.445 100.01,24.5 99.777,24.543 C99.543,24.585 99.294,24.607 99.032,24.607 C98.523,24.607 98.081,24.533 97.705,24.386 C97.328,24.238 97.029,24.015 96.81,23.715 C96.59,23.416 96.48,22.987 96.48,22.429 L96.48,22.286 L96.59,20.53 L96.693,18.216 C96.698,18.03 96.7,17.798 96.7,17.522 C97.13,17.531 97.468,17.535 97.713,17.535 C97.971,17.535 98.284,17.531 98.651,17.522 L98.425,20.625 C98.411,20.866 98.4,21.069 98.394,21.234 C98.387,21.4 98.384,21.52 98.384,21.592 C98.384,21.918 98.432,22.189 98.53,22.405 C98.627,22.621 98.797,22.786 99.04,22.898 C99.282,23.012 99.542,23.068 99.818,23.068 C100.081,23.068 100.331,23.019 100.566,22.919 C100.78,22.829 100.962,22.702 101.114,22.538 C101.266,22.375 101.394,22.155 101.499,21.877 C101.575,21.678 101.634,21.401 101.674,21.047 C101.706,20.798 101.736,20.369 101.763,19.761 C101.801,19.025 101.827,18.279 101.841,17.522 C102.29,17.531 102.634,17.535 102.87,17.535 C103.138,17.535 103.44,17.531 103.776,17.522 C103.722,18.17 103.666,18.981 103.607,19.955 C103.548,20.928 103.507,21.731 103.484,22.364 C103.462,22.997 103.444,23.69 103.43,24.444" id="Fill-10" fill="#1B1A19" sketch:type="MSShapeGroup"></path>
            <path d="M109.845,22.871 C109.823,23.058 109.789,23.269 109.744,23.504 C109.698,23.74 109.65,24.033 109.6,24.382 C108.952,24.532 108.312,24.607 107.681,24.607 C107.313,24.607 106.959,24.573 106.619,24.505 C106.279,24.437 105.962,24.315 105.669,24.141 C105.376,23.966 105.119,23.736 104.897,23.45 C104.675,23.164 104.508,22.818 104.397,22.412 C104.286,22.006 104.23,21.587 104.23,21.156 C104.23,20.585 104.322,20.035 104.505,19.509 C104.689,18.982 104.958,18.553 105.312,18.219 C105.666,17.886 106.06,17.659 106.493,17.539 C106.926,17.419 107.408,17.358 107.94,17.358 C108.234,17.358 108.539,17.376 108.852,17.409 C109.165,17.443 109.534,17.513 109.961,17.617 L110.063,19.107 C109.388,18.876 108.8,18.76 108.296,18.76 C107.989,18.76 107.697,18.812 107.424,18.917 C107.149,19.021 106.914,19.186 106.717,19.41 C106.52,19.635 106.379,19.895 106.295,20.19 C106.211,20.485 106.17,20.787 106.17,21.095 C106.17,21.526 106.237,21.899 106.37,22.215 C106.504,22.53 106.733,22.773 107.06,22.946 C107.386,23.119 107.757,23.205 108.174,23.205 C108.378,23.205 108.626,23.179 108.918,23.127 C109.21,23.075 109.52,22.989 109.845,22.871" id="Fill-11" fill="#1B1A19" sketch:type="MSShapeGroup"></path>
            <path d="M114.785,23.021 C114.73,23.271 114.644,23.734 114.525,24.41 C114.144,24.496 113.845,24.55 113.627,24.573 C113.409,24.596 113.205,24.607 113.015,24.607 C112.679,24.607 112.378,24.575 112.112,24.512 C111.847,24.448 111.628,24.336 111.456,24.175 C111.283,24.014 111.167,23.825 111.105,23.61 C111.044,23.395 111.014,23.171 111.014,22.939 C111.014,22.88 111.016,22.801 111.02,22.702 C111.024,22.601 111.043,22.279 111.075,21.735 L111.231,18.903 L110.251,18.903 C110.274,18.631 110.294,18.193 110.312,17.589 L111.337,17.589 C111.364,17.327 111.392,16.879 111.419,16.249 L112.223,16.092 C112.391,16.06 112.717,15.985 113.198,15.867 C113.165,16.48 113.147,17.054 113.143,17.589 L114.873,17.589 C114.841,18.202 114.825,18.64 114.825,18.903 L113.089,18.903 C112.994,20.75 112.946,21.819 112.946,22.109 C112.946,22.39 112.977,22.608 113.038,22.762 C113.099,22.917 113.198,23.028 113.334,23.096 C113.47,23.164 113.616,23.198 113.77,23.198 C113.883,23.198 114.002,23.189 114.127,23.171 C114.252,23.153 114.471,23.103 114.785,23.021" id="Fill-12" fill="#1B1A19" sketch:type="MSShapeGroup"></path>
            <path d="M118.743,17.358 C119.265,17.358 119.766,17.437 120.244,17.593 C120.723,17.75 121.129,17.981 121.462,18.287 C121.796,18.593 122.047,18.968 122.214,19.41 C122.382,19.853 122.466,20.319 122.466,20.809 C122.466,21.326 122.378,21.826 122.201,22.306 C122.024,22.787 121.768,23.204 121.431,23.555 C121.096,23.907 120.677,24.17 120.176,24.345 C119.675,24.52 119.14,24.607 118.573,24.607 C118.046,24.607 117.546,24.529 117.072,24.373 C116.598,24.216 116.193,23.981 115.857,23.668 C115.522,23.355 115.266,22.974 115.091,22.524 C114.917,22.075 114.83,21.605 114.83,21.115 C114.83,20.616 114.909,20.14 115.067,19.686 C115.226,19.232 115.475,18.828 115.813,18.474 C116.151,18.121 116.583,17.846 117.109,17.651 C117.636,17.456 118.18,17.358 118.743,17.358 L118.743,17.358 Z M118.743,18.76 C118.35,18.76 117.998,18.857 117.688,19.05 C117.378,19.242 117.148,19.529 116.997,19.911 C116.845,20.292 116.769,20.707 116.769,21.156 C116.769,21.551 116.832,21.903 116.956,22.211 C117.08,22.52 117.284,22.77 117.566,22.96 C117.848,23.15 118.185,23.246 118.574,23.246 C118.971,23.246 119.32,23.147 119.621,22.95 C119.922,22.752 120.148,22.462 120.299,22.079 C120.451,21.695 120.527,21.272 120.527,20.809 C120.527,20.433 120.467,20.089 120.35,19.781 C120.232,19.473 120.034,19.226 119.757,19.039 C119.479,18.853 119.141,18.76 118.743,18.76 L118.743,18.76 Z" id="Fill-13" fill="#1B1A19" sketch:type="MSShapeGroup"></path>
            <path d="M122.926,24.444 L123.123,21.21 L123.177,19.332 C123.187,18.947 123.191,18.558 123.191,18.168 C123.191,18.1 123.187,17.885 123.177,17.522 C123.6,17.531 123.911,17.535 124.11,17.535 C124.342,17.535 124.648,17.531 125.029,17.522 L124.996,18.481 C125.168,18.236 125.315,18.054 125.438,17.934 C125.56,17.814 125.697,17.71 125.85,17.623 C126.001,17.538 126.17,17.472 126.356,17.426 C126.542,17.381 126.733,17.358 126.929,17.358 C127.11,17.358 127.296,17.381 127.486,17.426 C127.486,17.848 127.507,18.383 127.548,19.032 C127.28,18.96 127.037,18.924 126.819,18.924 C126.556,18.924 126.324,18.963 126.121,19.043 C125.919,19.122 125.738,19.242 125.577,19.404 C125.416,19.564 125.283,19.763 125.179,19.999 C125.092,20.19 125.029,20.437 124.988,20.741 C124.953,20.977 124.923,21.381 124.899,21.952 C124.874,22.524 124.862,23.087 124.862,23.641 C124.862,23.854 124.869,24.122 124.882,24.444 C124.537,24.435 124.221,24.43 123.935,24.43 C123.653,24.43 123.317,24.435 122.926,24.444" id="Fill-14" fill="#1B1A19" sketch:type="MSShapeGroup"></path>
            <path d="M133.828,22.898 C133.769,23.167 133.685,23.647 133.576,24.342 C133.085,24.446 132.673,24.516 132.337,24.553 C132.001,24.589 131.663,24.607 131.323,24.607 C130.729,24.607 130.196,24.548 129.727,24.43 C129.257,24.313 128.845,24.096 128.491,23.781 C128.137,23.466 127.876,23.08 127.708,22.621 C127.541,22.163 127.456,21.683 127.456,21.18 C127.456,20.622 127.555,20.082 127.749,19.558 C127.944,19.035 128.218,18.606 128.569,18.273 C128.921,17.94 129.321,17.704 129.771,17.565 C130.22,17.427 130.69,17.358 131.18,17.358 C131.643,17.358 132.083,17.416 132.501,17.532 C132.918,17.647 133.269,17.836 133.552,18.099 C133.835,18.361 134.053,18.677 134.205,19.046 C134.357,19.416 134.433,19.827 134.433,20.279 C134.433,20.492 134.411,20.712 134.365,20.939 L129.376,20.945 C129.367,21.113 129.363,21.247 129.363,21.347 C129.363,21.651 129.415,21.93 129.519,22.184 C129.623,22.439 129.775,22.653 129.976,22.831 C130.175,23.007 130.413,23.138 130.69,23.222 C130.966,23.306 131.239,23.348 131.506,23.348 C131.82,23.348 132.159,23.314 132.524,23.246 C132.889,23.178 133.324,23.062 133.828,22.898 L133.828,22.898 Z M129.431,20.148 L132.616,20.155 C132.616,19.939 132.609,19.778 132.596,19.674 C132.582,19.57 132.551,19.452 132.504,19.318 C132.456,19.185 132.391,19.067 132.31,18.966 C132.228,18.864 132.133,18.78 132.024,18.711 C131.915,18.644 131.789,18.592 131.646,18.556 C131.503,18.52 131.35,18.502 131.187,18.502 C130.996,18.502 130.811,18.531 130.632,18.59 C130.453,18.648 130.288,18.734 130.139,18.847 C129.989,18.96 129.868,19.086 129.774,19.227 C129.681,19.367 129.612,19.502 129.567,19.63 C129.521,19.759 129.476,19.932 129.431,20.148 L129.431,20.148 Z" id="Fill-15" fill="#1B1A19" sketch:type="MSShapeGroup"></path>
            <path d="M134.58,24.315 L134.43,22.817 C134.875,22.999 135.251,23.125 135.56,23.195 C135.869,23.265 136.152,23.3 136.412,23.3 C136.67,23.3 136.887,23.27 137.064,23.209 C137.241,23.147 137.373,23.056 137.46,22.936 C137.545,22.815 137.588,22.69 137.588,22.559 C137.588,22.499 137.583,22.445 137.571,22.395 C137.561,22.345 137.54,22.293 137.51,22.238 C137.48,22.184 137.447,22.133 137.408,22.085 C137.37,22.038 137.316,21.983 137.249,21.922 C137.18,21.861 137.083,21.783 136.956,21.687 L136.588,21.394 C136.234,21.118 135.964,20.9 135.778,20.741 C135.591,20.583 135.435,20.42 135.309,20.254 C135.182,20.089 135.085,19.914 135.019,19.73 C134.953,19.546 134.92,19.359 134.92,19.169 C134.92,18.837 135.021,18.522 135.224,18.223 C135.425,17.923 135.719,17.704 136.105,17.565 C136.49,17.427 136.944,17.358 137.466,17.358 C138.061,17.358 138.746,17.428 139.521,17.569 L139.61,18.992 C139.084,18.778 138.578,18.671 138.092,18.671 C137.829,18.671 137.599,18.698 137.401,18.75 C137.204,18.802 137.062,18.882 136.976,18.988 C136.89,19.095 136.847,19.214 136.847,19.346 C136.847,19.423 136.86,19.499 136.887,19.573 C136.915,19.648 136.962,19.727 137.03,19.809 C137.099,19.89 137.177,19.967 137.265,20.04 C137.354,20.112 137.538,20.255 137.82,20.469 C138.102,20.682 138.348,20.875 138.559,21.047 C138.77,21.22 138.943,21.394 139.08,21.568 C139.216,21.743 139.32,21.93 139.393,22.13 C139.465,22.329 139.501,22.531 139.501,22.735 C139.501,23.075 139.397,23.391 139.188,23.682 C138.98,23.972 138.664,24.199 138.242,24.362 C137.82,24.525 137.348,24.607 136.827,24.607 C136.554,24.607 136.223,24.585 135.833,24.543 C135.442,24.5 135.025,24.423 134.58,24.315" id="Fill-16" fill="#1B1A19" sketch:type="MSShapeGroup"></path>
            <path d="M0.976,26.345 L54.961,26.345 M0.652,6.024 L19.319,0.149 L54.444,6.315" id="Stroke-17" stroke="#1B1A19" sketch:type="MSShapeGroup"></path>
        </g>
    </g>
</svg>