<?xml version="1.0" encoding="UTF-8" standalone="no"?>
<svg width="512px" height="512px" viewBox="0 0 512 512" version="1.1" xmlns="http://www.w3.org/2000/svg" xmlns:xlink="http://www.w3.org/1999/xlink" xmlns:sketch="http://www.bohemiancoding.com/sketch/ns">
    <!-- Generator: Sketch 3.2.2 (9983) - http://www.bohemiancoding.com/sketch -->
    <title>sprite</title>
    <desc>Created with Sketch.</desc>
    <defs>
        <filter x="-50%" y="-50%" width="200%" height="200%" filterUnits="objectBoundingBox" id="filter-1">
            <feOffset dx="0" dy="2" in="SourceAlpha" result="shadowOffsetOuter1"></feOffset>
            <feGaussianBlur stdDeviation="2" in="shadowOffsetOuter1" result="shadowBlurOuter1"></feGaussianBlur>
            <feColorMatrix values="0 0 0 0 0   0 0 0 0 0   0 0 0 0 0  0 0 0 0.35 0" in="shadowBlurOuter1" type="matrix" result="shadowMatrixOuter1"></feColorMatrix>
            <feMerge>
                <feMergeNode in="shadowMatrixOuter1"></feMergeNode>
                <feMergeNode in="SourceGraphic"></feMergeNode>
            </feMerge>
        </filter>
    </defs>
    <g id="Page-1" stroke="none" stroke-width="1" fill="none" fill-rule="evenodd" sketch:type="MSPage">
        <g id="sprite" sketch:type="MSArtboardGroup" filter="url(#filter-1)" fill="#FFFFFF">
            <path d="M72.9344571,22.5637449 L72.9344571,22.0057641 C72.9344571,19.8405759 71.5768701,19.2251286 69.6926814,19.2251286 C68.8355529,19.2251286 68.5386391,18.4947483 68.5386391,17.7347079 C68.5386391,16.9987664 68.8355529,16.238726 69.6926814,16.238726 C71.166046,16.238726 72.4059879,15.8865122 72.4059879,13.3709639 C72.4059879,11.4374954 71.4032036,10.7923879 69.8084591,10.7923879 C67.8906575,10.7923879 67.1829196,11.5820884 67.1829196,12.7555166 C67.1829196,13.6323437 66.7702281,14.2181309 65.3547523,14.2181309 C63.6442301,14.2181309 63.3790618,13.8084506 63.3790618,12.5775559 C63.3790618,10.4994943 64.8561612,7.48343167 69.8383372,7.48343167 C73.4087722,7.48343167 76.060455,8.83111301 76.060455,12.7258565 C76.060455,15.0393452 75.2070613,16.9116398 73.7617074,17.5845536 C75.5021077,18.2593212 76.7681929,19.5773424 76.7681929,22.0057641 L76.7681929,22.5637449 C76.7681929,27.277849 73.5843061,29.063017 69.6926814,29.063017 C64.8561612,29.063017 62.9084815,26.1044208 62.9084815,23.7334656 C62.9084815,22.5637449 63.4070726,22.2411912 64.7347814,22.2411912 C66.2996477,22.2411912 66.7123392,22.6508715 66.7123392,23.5888725 C66.7123392,24.9068938 67.8906575,25.7244006 69.7804484,25.7244006 C71.9895616,25.7244006 72.9344571,24.7863996 72.9344571,22.5637449 Z M84.754987,10.822048 L84.754987,25.5464399 L87.8230962,25.5464399 C89.7670411,25.5464399 90.919216,24.4638459 90.919216,22.1837247 L90.919216,14.1884708 C90.919216,11.9046421 89.7670411,10.822048 87.8230962,10.822048 L84.754987,10.822048 Z M87.8230962,7.48343167 C91.7147209,7.48343167 94.7529519,9.30196729 94.7529519,14.1884708 L94.7529519,22.1837247 C94.7529519,27.072082 91.7147209,28.8850563 87.8230962,28.8850563 L82.6000279,28.8850563 C81.5972436,28.8850563 80.9175164,28.330783 80.9175164,27.7153356 L80.9175164,8.65685985 C80.9175164,8.04141252 81.5972436,7.48343167 82.6000279,7.48343167 L87.8230962,7.48343167 Z M106.273767,26.6622163 C108.634138,26.6622163 110.047747,25.4313216 110.047747,22.6506861 L110.047747,22.1501717 C110.047747,19.3417299 108.634138,18.3166022 106.273767,18.3166022 L102.29064,18.3166022 L102.29064,26.6622163 L106.273767,26.6622163 Z M102.29064,16.2682007 L105.978721,16.2682007 C108.367102,16.2682007 109.515543,15.2708795 109.515543,12.8424578 C109.515543,10.4715026 108.042178,9.70960846 105.890954,9.70960846 L102.29064,9.70960846 L102.29064,16.2682007 L102.29064,16.2682007 Z M99.8144916,8.36378087 C99.8144916,7.7761399 100.372839,7.48324629 100.934921,7.48324629 L106.006731,7.48324629 C109.250374,7.48324629 111.993559,8.39344098 111.993559,12.490244 C111.993559,14.9501795 111.02252,16.6482209 109.487532,17.2914746 C111.313832,18.0237086 112.525763,19.2842634 112.525763,22.2706659 L112.525763,22.7952792 C112.525763,27.2776636 109.958112,28.8848709 106.686458,28.8848709 L100.934921,28.8848709 C100.255194,28.8848709 99.8144916,28.4770444 99.8144916,28.037704 L99.8144916,8.36378087 Z M126.639812,21.9481122 L123.368158,10.9405031 L120.034881,21.9481122 L126.639812,21.9481122 Z M115.760443,27.8597433 C115.760443,27.7744705 115.788453,27.7151503 115.818331,27.6280237 L121.83317,8.15801384 C122.010571,7.57408038 122.690298,7.31084689 123.368158,7.31084689 C124.046018,7.31084689 124.725745,7.60374049 124.899412,8.15801384 L130.917985,27.6280237 C130.917985,27.7151503 130.947863,27.7744705 130.947863,27.831937 C130.947863,28.4177242 130.12248,28.8848709 129.411007,28.8848709 C129.000183,28.8848709 128.64538,28.7106178 128.529603,28.3305976 L127.229905,23.9687074 L119.476533,23.9687074 L118.178703,28.3305976 C118.057323,28.7106178 117.704388,28.8848709 117.263685,28.8848709 C116.613836,28.8848709 115.760443,28.4751906 115.760443,27.8597433 Z M143.825705,20.9524593 C143.558669,21.4492662 143.205734,21.6253731 142.852798,21.6253731 C142.555885,21.6253731 142.202949,21.4492662 141.935914,20.9524593 L137.51582,12.5197187 L137.51582,28.0097123 C137.51582,28.591792 136.895849,28.8846856 136.275878,28.8846856 C135.655907,28.8846856 135.035936,28.591792 135.035936,28.0097123 L135.035936,8.68614921 C135.035936,7.80561463 135.626029,7.48306091 136.275878,7.48306091 C137.162885,7.48306091 137.719365,8.01323542 138.253436,9.03650929 L142.880809,17.8492701 L147.541795,9.03650929 C148.100143,8.01323542 148.632347,7.48306091 149.519353,7.48306091 C150.165468,7.48306091 150.75556,7.80561463 150.75556,8.68614921 L150.75556,28.0097123 C150.75556,28.591792 150.135589,28.8846856 149.519353,28.8846856 C148.899382,28.8846856 148.279411,28.591792 148.279411,28.0097123 L148.279411,12.6402129 L143.825705,20.9524593 Z M162.867775,26.6622163 C165.228147,26.6622163 166.641755,25.4313216 166.641755,22.6506861 L166.641755,22.1501717 C166.641755,19.3417299 165.228147,18.3166022 162.867775,18.3166022 L158.888384,18.3166022 L158.888384,26.6622163 L162.867775,26.6622163 Z M158.888384,16.2682007 L162.572729,16.2682007 C164.961111,16.2682007 166.113286,15.2708795 166.113286,12.8424578 C166.113286,10.4715026 164.636186,9.70960846 162.484962,9.70960846 L158.888384,9.70960846 L158.888384,16.2682007 L158.888384,16.2682007 Z M156.4085,8.36378087 C156.4085,7.7761399 156.970582,7.48324629 157.532664,7.48324629 L162.60074,7.48324629 C165.848118,7.48324629 168.589435,8.39344098 168.589435,12.490244 C168.589435,14.9501795 167.616529,16.6482209 166.085275,17.2914746 C167.911575,18.0237086 169.119771,19.2842634 169.119771,22.2706659 L169.119771,22.7952792 C169.119771,27.2776636 166.555855,28.8848709 163.280467,28.8848709 L157.532664,28.8848709 C156.852937,28.8848709 156.4085,28.4770444 156.4085,28.037704 L156.4085,8.36378087 Z M179.34593,4.32296134 C179.226418,4.38042781 179.138651,4.43974803 179.021006,4.43974803 C178.51868,4.43974803 178.135867,3.91328104 178.135867,3.44613428 C178.135867,3.18290078 178.251644,2.94747364 178.51868,2.8028806 L181.967735,0.984344971 C182.055502,0.956538616 182.176882,0.926878504 182.264649,0.926878504 C182.766975,0.926878504 183.088164,1.45519925 183.088164,1.92234602 C183.088164,2.18743327 182.970519,2.48032688 182.675473,2.62491992 L179.34593,4.32296134 Z M184.270217,8.33449151 C184.270217,7.74870429 184.86031,7.48361704 185.510159,7.48361704 C186.096517,7.48361704 186.746366,7.74870429 186.746366,8.33449151 L186.746366,22.6788632 C186.746366,27.3355008 183.915415,29.0632024 180.287091,29.0632024 C176.660635,29.0632024 173.859561,27.3355008 173.859561,22.6788632 L173.859561,8.33449151 C173.859561,7.74870429 174.477665,7.48361704 175.097636,7.48361704 C175.717607,7.48361704 176.337577,7.74870429 176.337577,8.33449151 L176.337577,22.6788632 C176.337577,25.518819 177.810942,26.8368402 180.287091,26.8368402 C182.766975,26.8368402 184.270217,25.518819 184.270217,22.6788632 L184.270217,8.33449151 Z M68.3188482,44.9536074 C68.3188482,44.2028359 67.6297842,43.4520643 66.7894621,43.4520643 C66.0835916,43.4520643 65.3422408,44.0193139 65.3422408,44.9536074 L65.3422408,46.6219887 C65.3422408,46.9742026 65.9640791,47.8565909 66.823075,47.8565909 C67.6129777,47.8565909 68.3188482,47.0891355 68.3188482,46.3216801 L68.3188482,44.9536074 Z M65.2096567,42.3342488 L65.2096567,42.8329094 C65.5962048,42.1840945 66.402914,41.5667934 67.4785262,41.5667934 C69.1591703,41.5667934 70.4868791,43.1017042 70.4868791,44.9536074 L70.4868791,46.3216801 C70.4868791,48.1087019 69.1087509,49.7437155 67.545752,49.7437155 C66.5373655,49.7437155 65.6634306,49.1097307 65.3422408,48.4256943 L65.3422408,52.5966476 C65.3422408,52.9488614 64.839915,53.2806839 64.2330158,53.2806839 C63.6111774,53.2806839 63.17421,52.9488614 63.17421,52.5966476 L63.17421,42.3342488 C63.17421,41.9338373 63.6279839,41.6668963 64.2012703,41.6668963 C64.7876283,41.6668963 65.2096567,41.9338373 65.2096567,42.3342488 Z M76.0163848,46.1882096 L75.7624208,46.1882096 C74.6382567,46.1882096 73.5775835,46.3049963 73.5775835,47.2392898 C73.5775835,47.8565909 73.9641317,48.1420695 74.4701923,48.1420695 C75.1592563,48.1420695 76.0163848,47.3579303 76.0163848,46.5385697 L76.0163848,46.1882096 Z M78.1844157,44.8201369 L78.1844157,48.9095249 C78.1844157,49.2932526 77.7306418,49.5935612 77.1256099,49.5935612 C76.5709974,49.5935612 76.148969,49.2932526 76.148969,48.9095249 L76.148969,48.4256943 C75.5458045,49.1097307 74.7540344,49.7437155 73.59439,49.7437155 C72.4011327,49.7437155 71.4095527,49.0429954 71.4095527,47.5247684 C71.4095527,45.6061299 73.0080319,45.0703941 75.3273207,45.0703941 L76.0163848,45.0703941 L76.0163848,44.8535046 C76.0163848,44.1361006 75.6466431,43.3185938 74.537418,43.3185938 C73.2433221,43.3185938 73.022971,43.835792 72.6214838,43.835792 C72.1322296,43.835792 71.880133,43.2518585 71.880133,42.7680279 C71.880133,42.0839916 73.3759062,41.5667934 74.5710309,41.5667934 C77.1928357,41.5667934 78.1844157,43.1350718 78.1844157,44.8201369 Z M81.9649311,48.9091541 C81.9649311,49.2428304 81.4607379,49.5931905 80.8725125,49.5931905 C80.2338677,49.5931905 79.7969003,49.2428304 79.7969003,48.9091541 L79.7969003,42.333878 C79.7969003,41.9334665 80.2338677,41.6665255 80.8725125,41.6665255 C81.3935122,41.6665255 81.8304796,41.9334665 81.8304796,42.333878 L81.8304796,42.8343924 C82.1516694,42.1837237 82.9565111,41.5664226 84.08441,41.5664226 C85.6306026,41.5664226 86.9751178,43.1013334 86.9751178,44.9532367 L86.9751178,48.9091541 C86.9751178,49.3596171 86.4205053,49.5931905 85.8826992,49.5931905 C85.378506,49.5931905 84.8052196,49.3596171 84.8052196,48.9091541 L84.8052196,44.9532367 C84.8052196,44.2024651 84.1516358,43.4535473 83.3430593,43.4535473 C82.6539952,43.4535473 81.9649311,44.0189432 81.9649311,44.9532367 L81.9649311,48.9091541 Z M92.906671,44.9209813 C93.2596062,44.9209813 93.3940578,44.8375623 93.3940578,44.4705184 C93.3940578,43.6863791 92.7218001,43.1524971 91.915091,43.1524971 C91.1569338,43.1524971 90.4529306,43.6511578 90.4529306,44.4538346 L90.4529306,44.9209813 L92.906671,44.9209813 Z M95.4295045,44.7040917 C95.4295045,46.1203621 94.6209279,46.1889511 93.8665055,46.1889511 L90.4529306,46.1889511 L90.4529306,46.4392083 C90.4529306,47.4068695 91.240966,48.0427081 92.4192842,48.0427081 C93.5285093,48.0427081 93.9822832,47.4068695 94.4883438,47.4068695 C94.9906696,47.4068695 95.309992,48.0241705 95.309992,48.3578468 C95.309992,48.9250965 94.1503476,49.7444571 92.3520584,49.7444571 C89.9655439,49.7444571 88.2830324,48.3745306 88.2830324,46.3224216 L88.2830324,44.9042975 C88.2830324,43.1024457 89.9132572,41.5656811 91.9655103,41.5656811 C93.8142188,41.5656811 95.4295045,42.8521885 95.4295045,44.7040917 Z M99.0395279,37.7106081 L99.0395279,48.9091541 C99.0395279,49.2428304 98.5353347,49.5931905 97.9471093,49.5931905 C97.3084646,49.5931905 96.8714971,49.2428304 96.8714971,48.9091541 L96.8714971,37.7106081 C96.8714971,37.3101965 97.3084646,37.0451093 97.9471093,37.0451093 C98.5353347,37.0451093 99.0395279,37.3101965 99.0395279,37.7106081 Z M105.190498,44.9209813 C105.543434,44.9209813 105.677885,44.8375623 105.677885,44.4705184 C105.677885,43.6863791 105.005628,43.1524971 104.198918,43.1524971 C103.440761,43.1524971 102.736758,43.6511578 102.736758,44.4538346 L102.736758,44.9209813 L105.190498,44.9209813 Z M107.713332,44.7040917 C107.713332,46.1203621 106.904755,46.1889511 106.150333,46.1889511 L102.736758,46.1889511 L102.736758,46.4392083 C102.736758,47.4068695 103.524793,48.0427081 104.703112,48.0427081 C105.812337,48.0427081 106.266111,47.4068695 106.772171,47.4068695 C107.274497,47.4068695 107.593819,48.0241705 107.593819,48.3578468 C107.593819,48.9250965 106.434175,49.7444571 104.635886,49.7444571 C102.249371,49.7444571 100.56686,48.3745306 100.56686,46.3224216 L100.56686,44.9042975 C100.56686,43.1024457 102.197085,41.5656811 104.249338,41.5656811 C106.098046,41.5656811 107.713332,42.8521885 107.713332,44.7040917 Z M112.769456,47.390371 C112.769456,45.9221955 108.784462,46.8398052 108.784462,44.0517547 C108.784462,42.8690577 109.540752,41.5658665 111.794683,41.5658665 C113.156004,41.5658665 114.466907,42.0330133 114.466907,42.6503144 C114.466907,42.950623 114.181197,43.6865645 113.677004,43.6865645 C113.275517,43.6865645 112.75265,43.2008802 111.828296,43.2008802 C110.987974,43.2008802 110.649977,43.6198293 110.649977,43.9535055 C110.649977,45.1714239 114.685391,44.3372332 114.685391,47.306952 C114.685391,48.7936651 113.576166,49.7446424 111.593005,49.7446424 C109.876881,49.7446424 108.549172,49.0439223 108.549172,48.3079807 C108.549172,47.9594744 108.851688,47.3570034 109.271849,47.3570034 C109.761103,47.3570034 110.130845,48.1096287 111.542586,48.1096287 C112.534166,48.1096287 112.769456,47.725901 112.769456,47.390371 Z M116.971066,46.5394966 C116.971066,47.6406282 117.930901,48.7083923 119.055065,48.7083923 C120.233383,48.7083923 121.107318,47.5572092 121.107318,47.0566948 L121.107318,44.7209609 C121.107318,43.3862559 120.082125,42.6002629 119.071872,42.6002629 C117.912227,42.6002629 116.971066,43.6513431 116.971066,44.7209609 L116.971066,46.5394966 Z M122.199737,37.259589 L122.199737,49.1588552 C122.199737,49.3757448 121.981253,49.5926344 121.678737,49.5926344 C121.393028,49.5926344 121.157738,49.3757448 121.157738,49.1588552 L121.157738,48.4266212 C120.787996,49.1106575 119.895387,49.7112748 118.855255,49.7112748 C117.256776,49.7112748 115.878648,48.1930478 115.878648,46.5394966 L115.878648,44.7209609 C115.878648,43.0025282 117.241837,41.5992341 118.887001,41.5992341 C119.996226,41.5992341 120.752516,42.2165352 121.107318,42.8690577 L121.107318,37.259589 C121.107318,37.0260156 121.359415,36.8591775 121.678737,36.8591775 C121.981253,36.8591775 122.199737,37.0260156 122.199737,37.259589 Z M128.467232,45.1708678 C129.13949,45.1708678 129.307554,45.0707649 129.307554,44.6036181 C129.307554,43.5358541 128.450426,42.5014577 127.204882,42.5014577 C126.045237,42.5014577 125.104077,43.4190674 125.104077,44.5368829 L125.104077,45.1708678 L128.467232,45.1708678 Z M130.368227,44.6369857 C130.368227,45.9216394 129.643683,45.9735445 128.902332,45.9735445 L125.104077,45.9735445 L125.104077,46.5908456 C125.104077,47.9236969 126.179689,48.7597413 127.658656,48.7597413 C128.988232,48.7597413 129.307554,48.090535 129.677296,48.090535 C129.946199,48.090535 130.147876,48.4075275 130.147876,48.6077333 C130.147876,49.0081448 129.189909,49.7107187 127.62691,49.7107187 C125.507431,49.7107187 124.011658,48.4427489 124.011658,46.5389404 L124.011658,44.6684996 C124.011658,43.0019721 125.458879,41.598678 127.223556,41.598678 C128.887393,41.598678 130.368227,42.8685016 130.368227,44.6369857 Z M131.726001,46.5394966 L131.726001,44.7543286 C131.726001,42.9839906 132.734387,41.5992341 134.969644,41.5992341 C136.400059,41.5992341 137.34122,42.2350728 137.34122,42.683682 C137.34122,42.9172554 137.122736,43.217564 136.853833,43.217564 C136.53451,43.217564 136.248801,42.6002629 135.021931,42.6002629 C133.557903,42.6002629 132.81842,43.4177698 132.81842,44.7543286 L132.81842,46.5394966 C132.81842,47.8908854 133.557903,48.7083923 135.03687,48.7083923 C136.332833,48.7083923 136.601736,48.0744074 136.937865,48.0744074 C137.240381,48.0744074 137.442058,48.3580322 137.442058,48.6082894 C137.442058,49.0587523 136.467285,49.7112748 134.986451,49.7112748 C132.751194,49.7112748 131.726001,48.3580322 131.726001,46.5394966 Z M143.81282,44.7200341 C143.81282,43.65227 142.869792,42.599336 141.693341,42.599336 C140.51689,42.599336 139.609342,43.65227 139.609342,44.7200341 L139.609342,46.5385697 C139.609342,47.6582389 140.533696,48.7074654 141.693341,48.7074654 C142.869792,48.7074654 143.81282,47.6582389 143.81282,46.5385697 L143.81282,44.7200341 Z M144.905238,44.7200341 L144.905238,46.5385697 C144.905238,48.1921209 143.407598,49.7103479 141.693341,49.7103479 C139.99589,49.7103479 138.516924,48.2088047 138.516924,46.5385697 L138.516924,44.7200341 C138.516924,43.0516528 139.945471,41.5983073 141.693341,41.5983073 C143.407598,41.5983073 144.905238,43.0016013 144.905238,44.7200341 Z M150.013089,42.6002629 C148.901997,42.6002629 147.794639,43.5178726 147.794639,45.0360996 L147.794639,49.1588552 C147.794639,49.3757448 147.559349,49.5926344 147.240026,49.5926344 C146.937511,49.5926344 146.70222,49.3757448 146.70222,49.1588552 L146.70222,42.0997485 C146.70222,41.8661751 146.937511,41.7011908 147.240026,41.7011908 C147.525736,41.7011908 147.761026,41.8661751 147.761026,42.0997485 L147.761026,42.9172554 C148.1289,42.2517566 148.92067,41.5992341 150.013089,41.5992341 L150.601315,41.5992341 C150.836605,41.5992341 151.038282,41.8328075 151.038282,42.0997485 C151.038282,42.3666895 150.836605,42.6002629 150.601315,42.6002629 L150.013089,42.6002629 Z M156.483382,45.972803 L155.775644,45.972803 C154.229452,45.972803 152.800904,46.1211036 152.800904,47.4057572 C152.800904,48.3752721 153.439549,48.7923675 154.264932,48.7923675 C155.340544,48.7923675 156.483382,47.7894849 156.483382,47.0405671 L156.483382,45.972803 Z M157.575801,44.8197662 L157.575801,49.1594113 C157.575801,49.4096685 157.357317,49.5931905 157.037995,49.5931905 C156.752285,49.5931905 156.531934,49.4096685 156.531934,49.1594113 L156.531934,48.4253236 C155.945576,49.0926761 155.12206,49.7118309 153.994161,49.7118309 C152.716872,49.7118309 151.708485,49.009257 151.708485,47.5077138 C151.708485,45.6891782 153.288291,45.2220315 155.626254,45.2220315 L156.483382,45.2220315 L156.483382,44.8197662 C156.483382,43.7520021 155.945576,42.5507676 154.498355,42.5507676 C153.372323,42.5507676 152.968969,43.0345982 152.700065,43.0345982 C152.414356,43.0345982 152.263098,42.7009219 152.263098,42.4506647 C152.263098,42.0168856 153.456355,41.5997903 154.531968,41.5997903 C156.785898,41.5997903 157.575801,43.1532386 157.575801,44.8197662 Z M160.684992,47.1404846 C160.684992,48.2249324 161.088347,48.6086601 162.247991,48.6086601 L162.718572,48.6086601 C163.021088,48.6086601 163.222765,48.8422335 163.222765,49.0924907 C163.222765,49.3594317 163.021088,49.5930051 162.718572,49.5930051 L162.247991,49.5930051 C160.515061,49.5930051 159.590706,48.8589173 159.590706,47.1404846 L159.590706,38.3462613 C159.590706,38.112688 159.876416,37.9439961 160.128512,37.9439961 C160.399283,37.9439961 160.684992,38.112688 160.684992,38.3462613 L160.684992,41.6997078 L162.853023,41.6997078 C163.071507,41.6997078 163.239571,41.9165973 163.239571,42.1501707 C163.239571,42.3855979 163.071507,42.6006337 162.853023,42.6006337 L160.684992,42.6006337 L160.684992,47.1404846 Z M165.708998,42.10049 L165.708998,49.1595967 C165.708998,49.3764863 165.456901,49.5933759 165.154385,49.5933759 C164.851869,49.5933759 164.616579,49.3764863 164.616579,49.1595967 L164.616579,42.10049 C164.616579,41.8669166 164.851869,41.7000785 165.154385,41.7000785 C165.456901,41.7000785 165.708998,41.8669166 165.708998,42.10049 Z M165.877062,38.6636245 C165.877062,39.0306684 165.55774,39.3624909 165.154385,39.3624909 C164.734224,39.3624909 164.398095,39.0306684 164.398095,38.6636245 C164.398095,38.2947269 164.734224,37.9777344 165.154385,37.9777344 C165.55774,37.9777344 165.877062,38.2947269 165.877062,38.6636245 Z M167.085819,42.4172971 C167.052206,42.3672457 167.018593,42.2337752 167.018593,42.1670399 C167.018593,41.8834151 167.388335,41.6665255 167.674044,41.6665255 C167.842108,41.6665255 168.010173,41.7499446 168.077399,41.914929 L170.297716,47.9248092 L172.516166,41.983518 C172.583392,41.8166798 172.650618,41.6665255 172.902714,41.6665255 C173.154811,41.6665255 173.576839,41.8834151 173.576839,42.1485023 C173.576839,42.250459 173.541359,42.3505619 173.507746,42.4172971 L170.801909,49.45972 C170.734684,49.6265581 170.533006,49.726661 170.297716,49.726661 C170.062426,49.726661 169.858881,49.6432419 169.791656,49.45972 L167.085819,42.4172971 Z M179.862075,44.7200341 C179.862075,43.65227 178.919047,42.599336 177.742596,42.599336 C176.566145,42.599336 175.658597,43.65227 175.658597,44.7200341 L175.658597,46.5385697 C175.658597,47.6582389 176.582951,48.7074654 177.742596,48.7074654 C178.919047,48.7074654 179.862075,47.6582389 179.862075,46.5385697 L179.862075,44.7200341 Z M180.954493,44.7200341 L180.954493,46.5385697 C180.954493,48.1921209 179.456853,49.7103479 177.742596,49.7103479 C176.045145,49.7103479 174.566179,48.2088047 174.566179,46.5385697 L174.566179,44.7200341 C174.566179,43.0516528 175.994726,41.5983073 177.742596,41.5983073 C179.456853,41.5983073 180.954493,43.0016013 180.954493,44.7200341 Z M186.583904,47.607446 C186.583904,45.3884988 182.430846,46.6397848 182.430846,43.8684181 C182.430846,42.8006541 183.170329,41.5994195 185.086264,41.5994195 C186.197356,41.5994195 187.338327,42.0165148 187.338327,42.4169264 C187.338327,42.6004483 187.155323,42.984176 186.88642,42.984176 C186.617517,42.984176 186.09465,42.5170292 185.10307,42.5170292 C183.859393,42.5170292 183.424293,43.2678008 183.424293,43.8183666 C183.424293,45.7203213 187.592291,44.5209406 187.592291,47.5573945 C187.592291,48.8772695 186.600711,49.7114602 184.886454,49.7114602 C183.304781,49.7114602 182.245975,49.0088863 182.245975,48.5083719 C182.245975,48.2914823 182.414039,48.0078575 182.632523,48.0078575 C183.002265,48.0078575 183.338394,48.7938505 184.850973,48.7938505 C186.13013,48.7938505 186.583904,48.2414309 186.583904,47.607446 Z M8.41635914,7.36497657 C6.80854298,7.36497657 5.50324275,8.65333769 5.50324275,10.25313 L5.50324275,28.0232447 C10.4312646,27.6691771 18.3041484,27.441165 27.1854187,27.441165 C36.0610867,27.441165 43.94144,27.6691771 48.8675945,28.0232447 L48.8675945,10.25313 C48.8675945,8.6570452 47.5697639,7.36497657 45.9544782,7.36497657 L8.41635914,7.36497657 Z M27.1854187,30.3348797 C18.3041484,30.3348797 10.4312646,30.1050138 5.50324275,29.7509462 L5.50324275,29.7509462 L5.50324275,47.5210609 C5.50324275,49.1171457 6.80107345,50.4092143 8.41635914,50.4092143 L8.41635914,50.4092143 L45.9544782,50.4092143 C47.5622943,50.4092143 48.8675945,49.1208532 48.8675945,47.5210609 L48.8675945,47.5210609 L48.8675945,29.7509462 C43.94144,30.1050138 36.0610867,30.3348797 27.1854187,30.3348797 L27.1854187,30.3348797 L27.1854187,30.3348797 Z" id="Fill-1" sketch:type="MSShapeGroup"></path>
        </g>
    </g>
</svg>