<?xml version="1.0" encoding="UTF-8" standalone="no"?>
<svg width="512px" height="512px" viewBox="0 0 512 512" version="1.1" xmlns="http://www.w3.org/2000/svg" xmlns:xlink="http://www.w3.org/1999/xlink" xmlns:sketch="http://www.bohemiancoding.com/sketch/ns">
    <!-- Generator: Sketch 3.3.2 (12043) - http://www.bohemiancoding.com/sketch -->
    <title>sprite</title>
    <desc>Created with Sketch.</desc>
    <defs>
        <filter x="-50%" y="-50%" width="200%" height="200%" filterUnits="objectBoundingBox" id="filter-1">
            <feOffset dx="1" dy="2" in="SourceAlpha" result="shadowOffsetOuter1"></feOffset>
            <feGaussianBlur stdDeviation="2" in="shadowOffsetOuter1" result="shadowBlurOuter1"></feGaussianBlur>
            <feColorMatrix values="0 0 0 0 0.524075255   0 0 0 0 0.524075255   0 0 0 0 0.524075255  0 0 0 0.35 0" in="shadowBlurOuter1" type="matrix" result="shadowMatrixOuter1"></feColorMatrix>
            <feMerge>
                <feMergeNode in="shadowMatrixOuter1"></feMergeNode>
                <feMergeNode in="SourceGraphic"></feMergeNode>
            </feMerge>
        </filter>
        <filter x="-50%" y="-50%" width="200%" height="200%" filterUnits="objectBoundingBox" id="filter-2">
            <feOffset dx="1" dy="2" in="SourceAlpha" result="shadowOffsetOuter1"></feOffset>
            <feGaussianBlur stdDeviation="2" in="shadowOffsetOuter1" result="shadowBlurOuter1"></feGaussianBlur>
            <feColorMatrix values="0 0 0 0 0.524075255   0 0 0 0 0.524075255   0 0 0 0 0.524075255  0 0 0 0.35 0" in="shadowBlurOuter1" type="matrix" result="shadowMatrixOuter1"></feColorMatrix>
            <feMerge>
                <feMergeNode in="shadowMatrixOuter1"></feMergeNode>
                <feMergeNode in="SourceGraphic"></feMergeNode>
            </feMerge>
        </filter>
        <filter x="-50%" y="-50%" width="200%" height="200%" filterUnits="objectBoundingBox" id="filter-3">
            <feOffset dx="1" dy="2" in="SourceAlpha" result="shadowOffsetOuter1"></feOffset>
            <feGaussianBlur stdDeviation="2" in="shadowOffsetOuter1" result="shadowBlurOuter1"></feGaussianBlur>
            <feColorMatrix values="0 0 0 0 0.524075255   0 0 0 0 0.524075255   0 0 0 0 0.524075255  0 0 0 0.35 0" in="shadowBlurOuter1" type="matrix" result="shadowMatrixOuter1"></feColorMatrix>
            <feMerge>
                <feMergeNode in="shadowMatrixOuter1"></feMergeNode>
                <feMergeNode in="SourceGraphic"></feMergeNode>
            </feMerge>
        </filter>
        <filter x="-50%" y="-50%" width="200%" height="200%" filterUnits="objectBoundingBox" id="filter-4">
            <feOffset dx="1" dy="2" in="SourceAlpha" result="shadowOffsetOuter1"></feOffset>
            <feGaussianBlur stdDeviation="2" in="shadowOffsetOuter1" result="shadowBlurOuter1"></feGaussianBlur>
            <feColorMatrix values="0 0 0 0 0.524075255   0 0 0 0 0.524075255   0 0 0 0 0.524075255  0 0 0 0.35 0" in="shadowBlurOuter1" type="matrix" result="shadowMatrixOuter1"></feColorMatrix>
            <feMerge>
                <feMergeNode in="shadowMatrixOuter1"></feMergeNode>
                <feMergeNode in="SourceGraphic"></feMergeNode>
            </feMerge>
        </filter>
        <filter x="-50%" y="-50%" width="200%" height="200%" filterUnits="objectBoundingBox" id="filter-5">
            <feOffset dx="1" dy="2" in="SourceAlpha" result="shadowOffsetOuter1"></feOffset>
            <feGaussianBlur stdDeviation="2" in="shadowOffsetOuter1" result="shadowBlurOuter1"></feGaussianBlur>
            <feColorMatrix values="0 0 0 0 0.524075255   0 0 0 0 0.524075255   0 0 0 0 0.524075255  0 0 0 0.35 0" in="shadowBlurOuter1" type="matrix" result="shadowMatrixOuter1"></feColorMatrix>
            <feMerge>
                <feMergeNode in="shadowMatrixOuter1"></feMergeNode>
                <feMergeNode in="SourceGraphic"></feMergeNode>
            </feMerge>
        </filter>
        <filter x="-50%" y="-50%" width="200%" height="200%" filterUnits="objectBoundingBox" id="filter-6">
            <feOffset dx="1" dy="2" in="SourceAlpha" result="shadowOffsetOuter1"></feOffset>
            <feGaussianBlur stdDeviation="2" in="shadowOffsetOuter1" result="shadowBlurOuter1"></feGaussianBlur>
            <feColorMatrix values="0 0 0 0 0.524075255   0 0 0 0 0.524075255   0 0 0 0 0.524075255  0 0 0 0.35 0" in="shadowBlurOuter1" type="matrix" result="shadowMatrixOuter1"></feColorMatrix>
            <feMerge>
                <feMergeNode in="shadowMatrixOuter1"></feMergeNode>
                <feMergeNode in="SourceGraphic"></feMergeNode>
            </feMerge>
        </filter>
        <filter x="-50%" y="-50%" width="200%" height="200%" filterUnits="objectBoundingBox" id="filter-7">
            <feOffset dx="1" dy="2" in="SourceAlpha" result="shadowOffsetOuter1"></feOffset>
            <feGaussianBlur stdDeviation="2" in="shadowOffsetOuter1" result="shadowBlurOuter1"></feGaussianBlur>
            <feColorMatrix values="0 0 0 0 0.524075255   0 0 0 0 0.524075255   0 0 0 0 0.524075255  0 0 0 0.35 0" in="shadowBlurOuter1" type="matrix" result="shadowMatrixOuter1"></feColorMatrix>
            <feMerge>
                <feMergeNode in="shadowMatrixOuter1"></feMergeNode>
                <feMergeNode in="SourceGraphic"></feMergeNode>
            </feMerge>
        </filter>
        <filter x="-50%" y="-50%" width="200%" height="200%" filterUnits="objectBoundingBox" id="filter-8">
            <feOffset dx="1" dy="2" in="SourceAlpha" result="shadowOffsetOuter1"></feOffset>
            <feGaussianBlur stdDeviation="2" in="shadowOffsetOuter1" result="shadowBlurOuter1"></feGaussianBlur>
            <feColorMatrix values="0 0 0 0 0.524075255   0 0 0 0 0.524075255   0 0 0 0 0.524075255  0 0 0 0.35 0" in="shadowBlurOuter1" type="matrix" result="shadowMatrixOuter1"></feColorMatrix>
            <feMerge>
                <feMergeNode in="shadowMatrixOuter1"></feMergeNode>
                <feMergeNode in="SourceGraphic"></feMergeNode>
            </feMerge>
        </filter>
        <filter x="-50%" y="-50%" width="200%" height="200%" filterUnits="objectBoundingBox" id="filter-9">
            <feOffset dx="1" dy="2" in="SourceAlpha" result="shadowOffsetOuter1"></feOffset>
            <feGaussianBlur stdDeviation="2" in="shadowOffsetOuter1" result="shadowBlurOuter1"></feGaussianBlur>
            <feColorMatrix values="0 0 0 0 0.524075255   0 0 0 0 0.524075255   0 0 0 0 0.524075255  0 0 0 0.35 0" in="shadowBlurOuter1" type="matrix" result="shadowMatrixOuter1"></feColorMatrix>
            <feMerge>
                <feMergeNode in="shadowMatrixOuter1"></feMergeNode>
                <feMergeNode in="SourceGraphic"></feMergeNode>
            </feMerge>
        </filter>
        <filter x="-50%" y="-50%" width="200%" height="200%" filterUnits="objectBoundingBox" id="filter-10">
            <feOffset dx="1" dy="2" in="SourceAlpha" result="shadowOffsetOuter1"></feOffset>
            <feGaussianBlur stdDeviation="2" in="shadowOffsetOuter1" result="shadowBlurOuter1"></feGaussianBlur>
            <feColorMatrix values="0 0 0 0 0.524075255   0 0 0 0 0.524075255   0 0 0 0 0.524075255  0 0 0 0.35 0" in="shadowBlurOuter1" type="matrix" result="shadowMatrixOuter1"></feColorMatrix>
            <feMerge>
                <feMergeNode in="shadowMatrixOuter1"></feMergeNode>
                <feMergeNode in="SourceGraphic"></feMergeNode>
            </feMerge>
        </filter>
        <filter x="-50%" y="-50%" width="200%" height="200%" filterUnits="objectBoundingBox" id="filter-11">
            <feOffset dx="1" dy="2" in="SourceAlpha" result="shadowOffsetOuter1"></feOffset>
            <feGaussianBlur stdDeviation="2" in="shadowOffsetOuter1" result="shadowBlurOuter1"></feGaussianBlur>
            <feColorMatrix values="0 0 0 0 0.524075255   0 0 0 0 0.524075255   0 0 0 0 0.524075255  0 0 0 0.35 0" in="shadowBlurOuter1" type="matrix" result="shadowMatrixOuter1"></feColorMatrix>
            <feMerge>
                <feMergeNode in="shadowMatrixOuter1"></feMergeNode>
                <feMergeNode in="SourceGraphic"></feMergeNode>
            </feMerge>
        </filter>
        <filter x="-50%" y="-50%" width="200%" height="200%" filterUnits="objectBoundingBox" id="filter-12">
            <feOffset dx="1" dy="2" in="SourceAlpha" result="shadowOffsetOuter1"></feOffset>
            <feGaussianBlur stdDeviation="2" in="shadowOffsetOuter1" result="shadowBlurOuter1"></feGaussianBlur>
            <feColorMatrix values="0 0 0 0 0.524075255   0 0 0 0 0.524075255   0 0 0 0 0.524075255  0 0 0 0.35 0" in="shadowBlurOuter1" type="matrix" result="shadowMatrixOuter1"></feColorMatrix>
            <feMerge>
                <feMergeNode in="shadowMatrixOuter1"></feMergeNode>
                <feMergeNode in="SourceGraphic"></feMergeNode>
            </feMerge>
        </filter>
        <filter x="-50%" y="-50%" width="200%" height="200%" filterUnits="objectBoundingBox" id="filter-13">
            <feOffset dx="1" dy="2" in="SourceAlpha" result="shadowOffsetOuter1"></feOffset>
            <feGaussianBlur stdDeviation="2" in="shadowOffsetOuter1" result="shadowBlurOuter1"></feGaussianBlur>
            <feColorMatrix values="0 0 0 0 0.524075255   0 0 0 0 0.524075255   0 0 0 0 0.524075255  0 0 0 0.35 0" in="shadowBlurOuter1" type="matrix" result="shadowMatrixOuter1"></feColorMatrix>
            <feMerge>
                <feMergeNode in="shadowMatrixOuter1"></feMergeNode>
                <feMergeNode in="SourceGraphic"></feMergeNode>
            </feMerge>
        </filter>
        <filter x="-50%" y="-50%" width="200%" height="200%" filterUnits="objectBoundingBox" id="filter-14">
            <feOffset dx="1" dy="2" in="SourceAlpha" result="shadowOffsetOuter1"></feOffset>
            <feGaussianBlur stdDeviation="2" in="shadowOffsetOuter1" result="shadowBlurOuter1"></feGaussianBlur>
            <feColorMatrix values="0 0 0 0 0.524075255   0 0 0 0 0.524075255   0 0 0 0 0.524075255  0 0 0 0.35 0" in="shadowBlurOuter1" type="matrix" result="shadowMatrixOuter1"></feColorMatrix>
            <feMerge>
                <feMergeNode in="shadowMatrixOuter1"></feMergeNode>
                <feMergeNode in="SourceGraphic"></feMergeNode>
            </feMerge>
        </filter>
        <filter x="-50%" y="-50%" width="200%" height="200%" filterUnits="objectBoundingBox" id="filter-15">
            <feOffset dx="1" dy="2" in="SourceAlpha" result="shadowOffsetOuter1"></feOffset>
            <feGaussianBlur stdDeviation="2" in="shadowOffsetOuter1" result="shadowBlurOuter1"></feGaussianBlur>
            <feColorMatrix values="0 0 0 0 0.524075255   0 0 0 0 0.524075255   0 0 0 0 0.524075255  0 0 0 0.35 0" in="shadowBlurOuter1" type="matrix" result="shadowMatrixOuter1"></feColorMatrix>
            <feMerge>
                <feMergeNode in="shadowMatrixOuter1"></feMergeNode>
                <feMergeNode in="SourceGraphic"></feMergeNode>
            </feMerge>
        </filter>
        <filter x="-50%" y="-50%" width="200%" height="200%" filterUnits="objectBoundingBox" id="filter-16">
            <feOffset dx="1" dy="2" in="SourceAlpha" result="shadowOffsetOuter1"></feOffset>
            <feGaussianBlur stdDeviation="2" in="shadowOffsetOuter1" result="shadowBlurOuter1"></feGaussianBlur>
            <feColorMatrix values="0 0 0 0 0.524075255   0 0 0 0 0.524075255   0 0 0 0 0.524075255  0 0 0 0.35 0" in="shadowBlurOuter1" type="matrix" result="shadowMatrixOuter1"></feColorMatrix>
            <feMerge>
                <feMergeNode in="shadowMatrixOuter1"></feMergeNode>
                <feMergeNode in="SourceGraphic"></feMergeNode>
            </feMerge>
        </filter>
        <filter x="-50%" y="-50%" width="200%" height="200%" filterUnits="objectBoundingBox" id="filter-17">
            <feOffset dx="1" dy="2" in="SourceAlpha" result="shadowOffsetOuter1"></feOffset>
            <feGaussianBlur stdDeviation="1.5" in="shadowOffsetOuter1" result="shadowBlurOuter1"></feGaussianBlur>
            <feColorMatrix values="0 0 0 0 0.525490196   0 0 0 0 0.525490196   0 0 0 0 0.525490196  0 0 0 0.42 0" in="shadowBlurOuter1" type="matrix" result="shadowMatrixOuter1"></feColorMatrix>
            <feMerge>
                <feMergeNode in="shadowMatrixOuter1"></feMergeNode>
                <feMergeNode in="SourceGraphic"></feMergeNode>
            </feMerge>
        </filter>
        <filter x="-50%" y="-50%" width="200%" height="200%" filterUnits="objectBoundingBox" id="filter-18">
            <feOffset dx="1" dy="2" in="SourceAlpha" result="shadowOffsetOuter1"></feOffset>
            <feGaussianBlur stdDeviation="1.5" in="shadowOffsetOuter1" result="shadowBlurOuter1"></feGaussianBlur>
            <feColorMatrix values="0 0 0 0 0.525490196   0 0 0 0 0.525490196   0 0 0 0 0.525490196  0 0 0 0.42 0" in="shadowBlurOuter1" type="matrix" result="shadowMatrixOuter1"></feColorMatrix>
            <feMerge>
                <feMergeNode in="shadowMatrixOuter1"></feMergeNode>
                <feMergeNode in="SourceGraphic"></feMergeNode>
            </feMerge>
        </filter>
        <filter x="-50%" y="-50%" width="200%" height="200%" filterUnits="objectBoundingBox" id="filter-19">
            <feOffset dx="1" dy="2" in="SourceAlpha" result="shadowOffsetOuter1"></feOffset>
            <feGaussianBlur stdDeviation="1.5" in="shadowOffsetOuter1" result="shadowBlurOuter1"></feGaussianBlur>
            <feColorMatrix values="0 0 0 0 0.525490196   0 0 0 0 0.525490196   0 0 0 0 0.525490196  0 0 0 0.42 0" in="shadowBlurOuter1" type="matrix" result="shadowMatrixOuter1"></feColorMatrix>
            <feMerge>
                <feMergeNode in="shadowMatrixOuter1"></feMergeNode>
                <feMergeNode in="SourceGraphic"></feMergeNode>
            </feMerge>
        </filter>
        <filter x="-50%" y="-50%" width="200%" height="200%" filterUnits="objectBoundingBox" id="filter-20">
            <feOffset dx="1" dy="2" in="SourceAlpha" result="shadowOffsetOuter1"></feOffset>
            <feGaussianBlur stdDeviation="1.5" in="shadowOffsetOuter1" result="shadowBlurOuter1"></feGaussianBlur>
            <feColorMatrix values="0 0 0 0 0.525490196   0 0 0 0 0.525490196   0 0 0 0 0.525490196  0 0 0 0.42 0" in="shadowBlurOuter1" type="matrix" result="shadowMatrixOuter1"></feColorMatrix>
            <feMerge>
                <feMergeNode in="shadowMatrixOuter1"></feMergeNode>
                <feMergeNode in="SourceGraphic"></feMergeNode>
            </feMerge>
        </filter>
        <filter x="-50%" y="-50%" width="200%" height="200%" filterUnits="objectBoundingBox" id="filter-21">
            <feOffset dx="1" dy="2" in="SourceAlpha" result="shadowOffsetOuter1"></feOffset>
            <feGaussianBlur stdDeviation="1.5" in="shadowOffsetOuter1" result="shadowBlurOuter1"></feGaussianBlur>
            <feColorMatrix values="0 0 0 0 0.525490196   0 0 0 0 0.525490196   0 0 0 0 0.525490196  0 0 0 0.42 0" in="shadowBlurOuter1" type="matrix" result="shadowMatrixOuter1"></feColorMatrix>
            <feMerge>
                <feMergeNode in="shadowMatrixOuter1"></feMergeNode>
                <feMergeNode in="SourceGraphic"></feMergeNode>
            </feMerge>
        </filter>
        <filter x="-50%" y="-50%" width="200%" height="200%" filterUnits="objectBoundingBox" id="filter-22">
            <feOffset dx="1" dy="2" in="SourceAlpha" result="shadowOffsetOuter1"></feOffset>
            <feGaussianBlur stdDeviation="1.5" in="shadowOffsetOuter1" result="shadowBlurOuter1"></feGaussianBlur>
            <feColorMatrix values="0 0 0 0 0.525490196   0 0 0 0 0.525490196   0 0 0 0 0.525490196  0 0 0 0.42 0" in="shadowBlurOuter1" type="matrix" result="shadowMatrixOuter1"></feColorMatrix>
            <feMerge>
                <feMergeNode in="shadowMatrixOuter1"></feMergeNode>
                <feMergeNode in="SourceGraphic"></feMergeNode>
            </feMerge>
        </filter>
        <filter x="-50%" y="-50%" width="200%" height="200%" filterUnits="objectBoundingBox" id="filter-23">
            <feOffset dx="1" dy="2" in="SourceAlpha" result="shadowOffsetOuter1"></feOffset>
            <feGaussianBlur stdDeviation="1.5" in="shadowOffsetOuter1" result="shadowBlurOuter1"></feGaussianBlur>
            <feColorMatrix values="0 0 0 0 0.525490196   0 0 0 0 0.525490196   0 0 0 0 0.525490196  0 0 0 0.42 0" in="shadowBlurOuter1" type="matrix" result="shadowMatrixOuter1"></feColorMatrix>
            <feMerge>
                <feMergeNode in="shadowMatrixOuter1"></feMergeNode>
                <feMergeNode in="SourceGraphic"></feMergeNode>
            </feMerge>
        </filter>
        <filter x="-50%" y="-50%" width="200%" height="200%" filterUnits="objectBoundingBox" id="filter-24">
            <feOffset dx="1" dy="2" in="SourceAlpha" result="shadowOffsetOuter1"></feOffset>
            <feGaussianBlur stdDeviation="1.5" in="shadowOffsetOuter1" result="shadowBlurOuter1"></feGaussianBlur>
            <feColorMatrix values="0 0 0 0 0.525490196   0 0 0 0 0.525490196   0 0 0 0 0.525490196  0 0 0 0.42 0" in="shadowBlurOuter1" type="matrix" result="shadowMatrixOuter1"></feColorMatrix>
            <feMerge>
                <feMergeNode in="shadowMatrixOuter1"></feMergeNode>
                <feMergeNode in="SourceGraphic"></feMergeNode>
            </feMerge>
        </filter>
        <filter x="-50%" y="-50%" width="200%" height="200%" filterUnits="objectBoundingBox" id="filter-25">
            <feOffset dx="1" dy="2" in="SourceAlpha" result="shadowOffsetOuter1"></feOffset>
            <feGaussianBlur stdDeviation="1.5" in="shadowOffsetOuter1" result="shadowBlurOuter1"></feGaussianBlur>
            <feColorMatrix values="0 0 0 0 0.525490196   0 0 0 0 0.525490196   0 0 0 0 0.525490196  0 0 0 0.42 0" in="shadowBlurOuter1" type="matrix" result="shadowMatrixOuter1"></feColorMatrix>
            <feMerge>
                <feMergeNode in="shadowMatrixOuter1"></feMergeNode>
                <feMergeNode in="SourceGraphic"></feMergeNode>
            </feMerge>
        </filter>
        <filter x="-50%" y="-50%" width="200%" height="200%" filterUnits="objectBoundingBox" id="filter-26">
            <feOffset dx="1" dy="2" in="SourceAlpha" result="shadowOffsetOuter1"></feOffset>
            <feGaussianBlur stdDeviation="1.5" in="shadowOffsetOuter1" result="shadowBlurOuter1"></feGaussianBlur>
            <feColorMatrix values="0 0 0 0 0.525490196   0 0 0 0 0.525490196   0 0 0 0 0.525490196  0 0 0 0.42 0" in="shadowBlurOuter1" type="matrix" result="shadowMatrixOuter1"></feColorMatrix>
            <feMerge>
                <feMergeNode in="shadowMatrixOuter1"></feMergeNode>
                <feMergeNode in="SourceGraphic"></feMergeNode>
            </feMerge>
        </filter>
        <filter x="-50%" y="-50%" width="200%" height="200%" filterUnits="objectBoundingBox" id="filter-27">
            <feOffset dx="1" dy="2" in="SourceAlpha" result="shadowOffsetOuter1"></feOffset>
            <feGaussianBlur stdDeviation="1.5" in="shadowOffsetOuter1" result="shadowBlurOuter1"></feGaussianBlur>
            <feColorMatrix values="0 0 0 0 0.525490196   0 0 0 0 0.525490196   0 0 0 0 0.525490196  0 0 0 0.42 0" in="shadowBlurOuter1" type="matrix" result="shadowMatrixOuter1"></feColorMatrix>
            <feMerge>
                <feMergeNode in="shadowMatrixOuter1"></feMergeNode>
                <feMergeNode in="SourceGraphic"></feMergeNode>
            </feMerge>
        </filter>
        <filter x="-50%" y="-50%" width="200%" height="200%" filterUnits="objectBoundingBox" id="filter-28">
            <feOffset dx="1" dy="2" in="SourceAlpha" result="shadowOffsetOuter1"></feOffset>
            <feGaussianBlur stdDeviation="1.5" in="shadowOffsetOuter1" result="shadowBlurOuter1"></feGaussianBlur>
            <feColorMatrix values="0 0 0 0 0.525490196   0 0 0 0 0.525490196   0 0 0 0 0.525490196  0 0 0 0.42 0" in="shadowBlurOuter1" type="matrix" result="shadowMatrixOuter1"></feColorMatrix>
            <feMerge>
                <feMergeNode in="shadowMatrixOuter1"></feMergeNode>
                <feMergeNode in="SourceGraphic"></feMergeNode>
            </feMerge>
        </filter>
        <filter x="-50%" y="-50%" width="200%" height="200%" filterUnits="objectBoundingBox" id="filter-29">
            <feOffset dx="1" dy="2" in="SourceAlpha" result="shadowOffsetOuter1"></feOffset>
            <feGaussianBlur stdDeviation="1.5" in="shadowOffsetOuter1" result="shadowBlurOuter1"></feGaussianBlur>
            <feColorMatrix values="0 0 0 0 0.525490196   0 0 0 0 0.525490196   0 0 0 0 0.525490196  0 0 0 0.42 0" in="shadowBlurOuter1" type="matrix" result="shadowMatrixOuter1"></feColorMatrix>
            <feMerge>
                <feMergeNode in="shadowMatrixOuter1"></feMergeNode>
                <feMergeNode in="SourceGraphic"></feMergeNode>
            </feMerge>
        </filter>
        <filter x="-50%" y="-50%" width="200%" height="200%" filterUnits="objectBoundingBox" id="filter-30">
            <feOffset dx="1" dy="2" in="SourceAlpha" result="shadowOffsetOuter1"></feOffset>
            <feGaussianBlur stdDeviation="1.5" in="shadowOffsetOuter1" result="shadowBlurOuter1"></feGaussianBlur>
            <feColorMatrix values="0 0 0 0 0.525490196   0 0 0 0 0.525490196   0 0 0 0 0.525490196  0 0 0 0.42 0" in="shadowBlurOuter1" type="matrix" result="shadowMatrixOuter1"></feColorMatrix>
            <feMerge>
                <feMergeNode in="shadowMatrixOuter1"></feMergeNode>
                <feMergeNode in="SourceGraphic"></feMergeNode>
            </feMerge>
        </filter>
        <filter x="-50%" y="-50%" width="200%" height="200%" filterUnits="objectBoundingBox" id="filter-31">
            <feOffset dx="1" dy="2" in="SourceAlpha" result="shadowOffsetOuter1"></feOffset>
            <feGaussianBlur stdDeviation="1.5" in="shadowOffsetOuter1" result="shadowBlurOuter1"></feGaussianBlur>
            <feColorMatrix values="0 0 0 0 0.525490196   0 0 0 0 0.525490196   0 0 0 0 0.525490196  0 0 0 0.42 0" in="shadowBlurOuter1" type="matrix" result="shadowMatrixOuter1"></feColorMatrix>
            <feMerge>
                <feMergeNode in="shadowMatrixOuter1"></feMergeNode>
                <feMergeNode in="SourceGraphic"></feMergeNode>
            </feMerge>
        </filter>
        <filter x="-50%" y="-50%" width="200%" height="200%" filterUnits="objectBoundingBox" id="filter-32">
            <feOffset dx="1" dy="2" in="SourceAlpha" result="shadowOffsetOuter1"></feOffset>
            <feGaussianBlur stdDeviation="1.5" in="shadowOffsetOuter1" result="shadowBlurOuter1"></feGaussianBlur>
            <feColorMatrix values="0 0 0 0 0.525490196   0 0 0 0 0.525490196   0 0 0 0 0.525490196  0 0 0 0.42 0" in="shadowBlurOuter1" type="matrix" result="shadowMatrixOuter1"></feColorMatrix>
            <feMerge>
                <feMergeNode in="shadowMatrixOuter1"></feMergeNode>
                <feMergeNode in="SourceGraphic"></feMergeNode>
            </feMerge>
        </filter>
    </defs>
    <g id="Page-1" stroke="none" stroke-width="1" fill="none" fill-rule="evenodd" sketch:type="MSPage">
        <g id="sprite" sketch:type="MSArtboardGroup">
            <g id="logo" sketch:type="MSLayerGroup" transform="translate(2.000000, 3.000000)">
                <path d="M3.26488095,44.6029762 L4.14345238,32.2279762 L4.54880952,23.2083333 L4.66130952,19.1958333 C4.68988095,18.0333333 4.70595238,16.9154762 4.70595238,15.8422619 L4.6827381,13.6672619 C7.0577381,13.697619 8.83452381,13.7119048 10.014881,13.7119048 C10.9363095,13.7119048 12.5416667,13.697619 14.8255952,13.6672619 C14.464881,18.0029762 14.2345238,21.8333333 14.1291667,25.1565476 L26.4666667,25.1565476 C26.5416667,23.9154762 26.6130952,22.2386905 26.6809524,20.1279762 C26.7470238,18.0154762 26.7809524,16.572619 26.7809524,15.8011905 C26.7809524,15.3922619 26.7666667,14.6797619 26.7363095,13.6672619 L32.1005952,13.7119048 C32.6577381,13.7119048 34.2434524,13.697619 36.8541667,13.6672619 C36.314881,21.4333333 35.9684524,27.2083333 35.8202381,30.9940476 C35.6684524,34.7779762 35.5934524,39.3136905 35.5934524,44.6029762 L30.6488095,44.5565476 C29.9077381,44.5565476 28.1380952,44.572619 25.339881,44.6029762 C25.7184524,41.0065476 25.9755952,36.8208333 26.1113095,32.047619 L13.764881,32.047619 L13.3845238,44.6029762 L8.12202381,44.5565476 C7.45416667,44.5565476 5.83630952,44.572619 3.26488095,44.6029762" id="Fill-1" fill="#E8C847" filter="url(#filter-1)" sketch:type="MSShapeGroup"></path>
                <path d="M57.0380952,26.5619048 C59.1077381,26.5922619 61.0791667,26.6083333 62.9541667,26.6083333 C66.1577381,26.6083333 68.664881,26.5922619 70.477381,26.5619048 C70.2809524,28.6315476 70.0809524,31.5636905 69.8791667,35.3565476 C69.6738095,39.1494048 69.5505952,42.0119048 69.5059524,43.9458333 C67.7666667,44.2619048 66.327381,44.4922619 65.1863095,44.6369048 C64.0470238,44.7797619 62.6755952,44.9083333 61.0738095,45.022619 C59.4720238,45.135119 58.0452381,45.1922619 56.789881,45.1922619 C54.7345238,45.1922619 52.7184524,45.0261905 50.7380952,44.6940476 C48.7595238,44.3619048 46.9880952,43.8244048 45.4238095,43.085119 C43.8595238,42.3440476 42.5559524,41.3404762 41.5130952,40.0708333 C40.4702381,38.8011905 39.6666667,37.297619 39.1005952,35.560119 C38.5327381,33.822619 38.2488095,32.0244048 38.2488095,30.1654762 C38.2488095,27.0994048 39.0130952,24.2494048 40.539881,21.6208333 C42.064881,18.9940476 44.2595238,16.9119048 47.1238095,15.3779762 C49.9863095,13.8440476 53.6845238,13.0779762 58.2166667,13.0779762 C61.5255952,13.0779762 65.189881,13.4779762 69.2077381,14.2779762 C69.2077381,16.485119 69.3059524,18.9404762 69.5041667,21.6440476 C68.414881,21.2815476 67.5363095,21.0065476 66.8630952,20.8172619 C66.189881,20.6279762 65.4041667,20.4547619 64.5059524,20.2958333 C63.6059524,20.1369048 62.752381,20.0190476 61.9452381,19.9440476 C61.1363095,19.8690476 60.414881,19.8315476 59.7791667,19.8315476 C58.1184524,19.8315476 56.5470238,20.0690476 55.0666667,20.5458333 C53.5863095,21.0208333 52.3130952,21.7529762 51.2488095,22.7440476 C50.1827381,23.7333333 49.3863095,24.9154762 48.8577381,26.2904762 C48.327381,27.6654762 48.0630952,29.1154762 48.0630952,30.6422619 C48.0630952,32.197619 48.364881,33.5833333 48.9702381,34.8011905 C49.5738095,36.0172619 50.5345238,36.9422619 51.8488095,37.5761905 C53.1630952,38.2119048 54.6291667,38.5279762 56.2452381,38.5279762 C57.5880952,38.5279762 59.0630952,38.3333333 60.664881,37.9386905 L60.9238095,33.0208333 C59.9380952,32.9761905 59.3559524,32.9529762 59.1738095,32.9529762 L56.7666667,32.9761905 L56.9255952,30.1886905 C56.939881,29.8869048 56.9630952,29.4511905 56.9916667,28.885119 C57.0220238,28.3190476 57.0380952,27.5458333 57.0380952,26.5619048" id="Fill-2" fill="#E8C847" filter="url(#filter-2)" sketch:type="MSShapeGroup"></path>
                <path d="M72.5077381,44.6029762 C72.8880952,41.0369048 73.1613095,38.1297619 73.327381,35.8779762 C73.6470238,31.7672619 73.8845238,27.685119 74.0452381,23.6279762 C74.2041667,19.5708333 74.2845238,16.2494048 74.2845238,13.6672619 C76.3363095,13.697619 78.1559524,13.7119048 79.7416667,13.7119048 C80.8130952,13.7119048 82.3541667,13.697619 84.3613095,13.6672619 L83.814881,21.8708333 L83.1327381,34.697619 L83.0416667,37.8494048 C85.6416667,37.8940476 87.3345238,37.9172619 88.1202381,37.9172619 C92.0952381,37.9172619 95.1041667,37.8636905 97.1434524,37.7583333 L96.6452381,44.6029762 C92.6702381,44.572619 88.8863095,44.5565476 85.289881,44.5565476 C80.4255952,44.5565476 76.164881,44.572619 72.5077381,44.6029762" id="Fill-3" fill="#E8C847" filter="url(#filter-3)" sketch:type="MSShapeGroup"></path>
                <g id="Group" transform="translate(0.330952, 54.663690)" fill="#E8C847" sketch:type="MSShapeGroup">
                    <path d="M9.52777778,9.62936508 C9.40873016,10.2615079 9.30515873,10.9043651 9.21944444,11.5579365 C8.60277778,11.6662698 8.03968254,11.7412698 7.5265873,11.7853175 C7.01349206,11.8281746 6.5718254,11.8496032 6.20515873,11.8496032 C5.39444444,11.8496032 4.6218254,11.7365079 3.88373016,11.509127 C3.14563492,11.281746 2.48134921,10.9246032 1.88968254,10.4353175 C1.29920635,9.94722222 0.869444444,9.3531746 0.60515873,8.65674603 C0.340873016,7.96031746 0.208730159,7.1984127 0.208730159,6.37222222 C0.208730159,5.47460317 0.367063492,4.64603175 0.687301587,3.88412698 C1.00515873,3.12222222 1.46230159,2.48055556 2.05992063,1.95555556 C2.65753968,1.43174603 3.36349206,1.04126984 4.17896825,0.78531746 C4.99444444,0.529365079 5.84563492,0.400793651 6.73134921,0.400793651 C7.60753968,0.400793651 8.56230159,0.499603175 9.59920635,0.699603175 C9.61706349,1.18055556 9.63253968,1.52103175 9.64801587,1.72103175 L9.70515873,2.58769841 C9.09563492,2.42579365 8.58730159,2.31507937 8.18253968,2.25555556 C7.77777778,2.19603175 7.39087302,2.16626984 7.02301587,2.16626984 C6.44444444,2.16626984 5.89087302,2.25436508 5.35753968,2.42936508 C4.8265873,2.60555556 4.35634921,2.88531746 3.94801587,3.26865079 C3.53968254,3.65198413 3.2265873,4.11507937 3.00873016,4.65793651 C2.78968254,5.20079365 2.68015873,5.76746032 2.68015873,6.35555556 C2.68015873,7.05912698 2.81468254,7.68769841 3.08492063,8.24365079 C3.35515873,8.80079365 3.78849206,9.25198413 4.38492063,9.59722222 C4.98253968,9.94246032 5.7218254,10.1150794 6.6015873,10.1150794 C7.41825397,10.1150794 8.39206349,9.9531746 9.52777778,9.62936508" id="Fill-4" filter="url(#filter-4)"></path>
                    <path d="M14.7015873,3.21984127 C15.3230159,3.21984127 15.918254,3.31388889 16.4884921,3.49960317 C17.0575397,3.68650794 17.5420635,3.96150794 17.9384921,4.32579365 C18.3361111,4.69007937 18.6349206,5.13650794 18.8349206,5.66269841 C19.0337302,6.19007937 19.1337302,6.74484127 19.1337302,7.3281746 C19.1337302,7.94365079 19.0289683,8.53888889 18.818254,9.11031746 C18.6075397,9.68293651 18.3015873,10.1793651 17.9027778,10.5972222 C17.5027778,11.0162698 17.0039683,11.3293651 16.4075397,11.5376984 C15.8099206,11.7460317 15.1742063,11.8496032 14.4992063,11.8496032 C13.8718254,11.8496032 13.2765873,11.756746 12.7123016,11.5710317 C12.1468254,11.384127 11.665873,11.1043651 11.265873,10.731746 C10.865873,10.359127 10.5623016,9.90555556 10.3551587,9.36984127 C10.1456349,8.83531746 10.0420635,8.27579365 10.0420635,7.69246032 C10.0420635,7.0984127 10.1373016,6.53174603 10.3265873,5.99126984 C10.5146825,5.45079365 10.8111111,4.96984127 11.2134921,4.5484127 C11.615873,4.1281746 12.1301587,3.80079365 12.7575397,3.56865079 C13.3837302,3.33650794 14.0325397,3.21984127 14.7015873,3.21984127 L14.7015873,3.21984127 Z M14.7015873,4.88888889 C14.2325397,4.88888889 13.8146825,5.00436508 13.4456349,5.23412698 C13.0777778,5.46269841 12.8027778,5.80436508 12.6230159,6.25912698 C12.440873,6.71269841 12.3515873,7.20674603 12.3515873,7.74126984 C12.3515873,8.21150794 12.4253968,8.63055556 12.5730159,8.99722222 C12.7218254,9.36507937 12.9646825,9.66269841 13.3003968,9.88888889 C13.6373016,10.1150794 14.0373016,10.2293651 14.5003968,10.2293651 C14.9730159,10.2293651 15.3896825,10.1115079 15.7468254,9.87698413 C16.1051587,9.64126984 16.3742063,9.29603175 16.5539683,8.84007937 C16.7337302,8.38293651 16.8242063,7.87936508 16.8242063,7.3281746 C16.8242063,6.88055556 16.7551587,6.47103175 16.6146825,6.10436508 C16.4742063,5.73769841 16.2384921,5.44365079 15.9087302,5.22103175 C15.5777778,4.99960317 15.1742063,4.88888889 14.7015873,4.88888889 L14.7015873,4.88888889 Z" id="Fill-5" filter="url(#filter-5)"></path>
                    <path d="M19.6337302,11.6555556 C19.7575397,10.4293651 19.8599206,9.05198413 19.943254,7.52222222 C20.0265873,5.99365079 20.0742063,4.62460317 20.0837302,3.41507937 C20.5813492,3.42579365 20.9789683,3.43055556 21.2765873,3.43055556 C21.6277778,3.43055556 22.0015873,3.42579365 22.3968254,3.41507937 L22.3063492,4.79126984 C22.4742063,4.55436508 22.6206349,4.36507937 22.7480159,4.22460317 C22.8753968,4.08412698 23.0361111,3.94722222 23.2349206,3.81150794 C23.4325397,3.67698413 23.6420635,3.56865079 23.865873,3.48769841 C24.0896825,3.40674603 24.3420635,3.34126984 24.6194444,3.29246032 C24.8980159,3.24365079 25.1884921,3.21984127 25.490873,3.21984127 C25.9718254,3.21984127 26.4325397,3.28055556 26.8730159,3.40198413 C27.3134921,3.5234127 27.6694444,3.71626984 27.9384921,3.98174603 C28.2087302,4.24603175 28.3873016,4.53531746 28.4730159,4.8484127 C28.5599206,5.16150794 28.6027778,5.49365079 28.6027778,5.84603175 C28.6027778,5.99126984 28.5944444,6.2234127 28.5789683,6.54126984 L28.4123016,10.084127 C28.3896825,10.5746032 28.3765873,11.0996032 28.3718254,11.6555556 C27.943254,11.6448413 27.5789683,11.6388889 27.2765873,11.6388889 C26.8646825,11.6388889 26.4515873,11.6448413 26.0337302,11.6555556 C26.0777778,11.1853175 26.1313492,10.3662698 26.1968254,9.19603175 C26.2623016,8.02698413 26.2944444,7.2531746 26.2944444,6.87460317 C26.2944444,6.44722222 26.2277778,6.10436508 26.0920635,5.84603175 C25.9575397,5.58650794 25.7480159,5.38888889 25.4646825,5.25436508 C25.1813492,5.11984127 24.8753968,5.05079365 24.5456349,5.05079365 C24.2218254,5.05079365 23.9194444,5.11269841 23.6396825,5.23769841 C23.3587302,5.36269841 23.115873,5.54246032 22.9099206,5.78055556 C22.6944444,6.0234127 22.5277778,6.3234127 22.4087302,6.68055556 C22.2849206,7.05912698 22.193254,7.68174603 22.1337302,8.55198413 C22.0789683,9.32460317 22.0361111,10.359127 22.0027778,11.6555556 C21.5861111,11.6448413 21.2099206,11.6388889 20.8742063,11.6388889 C20.5337302,11.6388889 20.1206349,11.6448413 19.6337302,11.6555556" id="Fill-6" filter="url(#filter-6)"></path>
                    <path d="M29.2646825,11.5019841 L29.0861111,9.71865079 C29.6146825,9.93531746 30.0634921,10.0853175 30.4313492,10.1686508 C30.7992063,10.2519841 31.1361111,10.2936508 31.4444444,10.2936508 C31.7515873,10.2936508 32.0111111,10.2579365 32.2218254,10.1853175 C32.4325397,10.1115079 32.5896825,10.0031746 32.6920635,9.86031746 C32.7944444,9.71626984 32.8456349,9.56746032 32.8456349,9.41150794 C32.8456349,9.34007937 32.8396825,9.27579365 32.8253968,9.21626984 C32.8123016,9.15674603 32.7873016,9.09484127 32.7527778,9.02936508 C32.7170635,8.96507937 32.6777778,8.90436508 32.6313492,8.84722222 C32.5849206,8.79126984 32.5218254,8.72579365 32.440873,8.6531746 C32.3599206,8.58055556 32.243254,8.48769841 32.0920635,8.3734127 L31.6551587,8.02460317 C31.2337302,7.69603175 30.9123016,7.43650794 30.690873,7.24722222 C30.4694444,7.05912698 30.2825397,6.86507937 30.1313492,6.66746032 C29.9801587,6.47103175 29.865873,6.26269841 29.7873016,6.04365079 C29.7087302,5.82460317 29.6694444,5.60198413 29.6694444,5.37579365 C29.6694444,4.98055556 29.7896825,4.60555556 30.0301587,4.24960317 C30.2706349,3.89246032 30.6206349,3.63174603 31.0789683,3.46626984 C31.5384921,3.30198413 32.0789683,3.21984127 32.7003968,3.21984127 C33.4075397,3.21984127 34.2230159,3.3031746 35.1468254,3.47103175 L35.2527778,5.16507937 C34.6253968,4.91031746 34.0230159,4.78293651 33.4456349,4.78293651 C33.1325397,4.78293651 32.8575397,4.81507937 32.6230159,4.87698413 C32.3884921,4.93888889 32.2194444,5.03412698 32.115873,5.16031746 C32.0146825,5.28769841 31.9634921,5.42936508 31.9634921,5.58650794 C31.9634921,5.6781746 31.9789683,5.76865079 32.0111111,5.85674603 C32.0444444,5.94603175 32.1003968,6.04007937 32.1813492,6.13769841 C32.2623016,6.23412698 32.3563492,6.32579365 32.4611111,6.41269841 C32.565873,6.4984127 32.7861111,6.66865079 33.1218254,6.9234127 C33.4563492,7.17698413 33.7492063,7.40674603 34.0003968,7.61150794 C34.2515873,7.81746032 34.4587302,8.02460317 34.6206349,8.23174603 C34.7825397,8.44007937 34.9063492,8.66269841 34.993254,8.90079365 C35.0801587,9.13769841 35.1230159,9.3781746 35.1230159,9.62103175 C35.1230159,10.0257937 34.9980159,10.4019841 34.7503968,10.7484127 C34.5015873,11.0936508 34.1265873,11.3638889 33.6242063,11.5579365 C33.1218254,11.7519841 32.5587302,11.8496032 31.9384921,11.8496032 C31.6146825,11.8496032 31.2194444,11.8234127 30.7551587,11.7734127 C30.290873,11.7222222 29.793254,11.6305556 29.2646825,11.5019841" id="Fill-7" filter="url(#filter-7)"></path>
                    <path d="M40.9861111,9.96150794 C40.9218254,10.259127 40.8194444,10.8103175 40.6789683,11.6150794 C40.2242063,11.7174603 39.868254,11.781746 39.6087302,11.809127 C39.3492063,11.8365079 39.1075397,11.8496032 38.8801587,11.8496032 C38.4801587,11.8496032 38.1218254,11.8115079 37.8063492,11.7365079 C37.4896825,11.6603175 37.2289683,11.5269841 37.0242063,11.3353175 C36.818254,11.1436508 36.6789683,10.9186508 36.6075397,10.6626984 C36.5337302,10.406746 36.4968254,10.1400794 36.4968254,9.86388889 C36.4968254,9.79365079 36.4992063,9.69960317 36.5051587,9.58174603 C36.5111111,9.46150794 36.5325397,9.0781746 36.5706349,8.43055556 L36.7551587,5.05912698 L35.5896825,5.05912698 C35.6170635,4.73531746 35.640873,4.21388889 35.6623016,3.49484127 L36.8825397,3.49484127 C36.915873,3.18293651 36.9480159,2.64960317 36.9789683,1.89960317 L37.9373016,1.71269841 C38.1384921,1.67460317 38.5242063,1.58531746 39.0992063,1.44484127 C39.0599206,2.17460317 39.0373016,2.85793651 39.0325397,3.49484127 L41.0920635,3.49484127 C41.0539683,4.22460317 41.0349206,4.74603175 41.0349206,5.05912698 L38.968254,5.05912698 C38.8551587,7.25793651 38.7980159,8.53055556 38.7980159,8.87579365 C38.7980159,9.21031746 38.8349206,9.46984127 38.9075397,9.6531746 C38.9801587,9.83769841 39.0980159,9.96984127 39.2599206,10.0507937 C39.4218254,10.131746 39.5944444,10.1722222 39.7789683,10.1722222 C39.9134921,10.1722222 40.0563492,10.1615079 40.2039683,10.1400794 C40.3527778,10.1186508 40.6134921,10.059127 40.9861111,9.96150794" id="Fill-8" filter="url(#filter-8)"></path>
                    <path d="M41.2587302,11.6555556 L41.493254,7.80555556 L41.5587302,5.56984127 C41.5694444,5.11150794 41.5742063,4.6484127 41.5742063,4.18412698 C41.5742063,4.1031746 41.5694444,3.84722222 41.5587302,3.41507937 C42.0611111,3.42579365 42.4313492,3.43055556 42.668254,3.43055556 C42.9444444,3.43055556 43.3099206,3.42579365 43.7634921,3.41507937 L43.7230159,4.55674603 C43.9277778,4.26507937 44.1027778,4.0484127 44.2492063,3.90555556 C44.3944444,3.76269841 44.5587302,3.63888889 44.7384921,3.53531746 C44.9206349,3.43412698 45.1218254,3.35555556 45.343254,3.30079365 C45.5634921,3.24722222 45.790873,3.21984127 46.0242063,3.21984127 C46.2396825,3.21984127 46.4611111,3.24722222 46.6873016,3.30079365 C46.6873016,3.8031746 46.7123016,4.44007937 46.7611111,5.21269841 C46.4420635,5.12698413 46.1527778,5.08412698 45.8944444,5.08412698 C45.5801587,5.08412698 45.3039683,5.13055556 45.0623016,5.22579365 C44.8230159,5.31984127 44.6063492,5.46269841 44.4146825,5.65555556 C44.2230159,5.84603175 44.0646825,6.08293651 43.940873,6.36388889 C43.8384921,6.59126984 43.7634921,6.88531746 43.7134921,7.24722222 C43.6718254,7.5281746 43.6361111,8.00912698 43.6075397,8.68888889 C43.5777778,9.36984127 43.5634921,10.0400794 43.5634921,10.6996032 C43.5634921,10.9531746 43.5718254,11.2722222 43.5884921,11.6555556 C43.1765873,11.6448413 42.8003968,11.6388889 42.4599206,11.6388889 C42.1242063,11.6388889 41.7242063,11.6448413 41.2587302,11.6555556" id="Fill-9" filter="url(#filter-9)"></path>
                    <path d="M55.2420635,11.6555556 C54.765873,11.6448413 54.4015873,11.6388889 54.1480159,11.6388889 C53.8289683,11.6388889 53.4670635,11.6448413 53.0611111,11.6555556 L53.0765873,10.3103175 C52.9253968,10.5365079 52.7920635,10.7198413 52.6789683,10.856746 C52.565873,10.9948413 52.4170635,11.1305556 52.2337302,11.2626984 C52.0503968,11.3948413 51.8503968,11.4996032 51.6337302,11.5781746 C51.418254,11.656746 51.1706349,11.7222222 50.893254,11.7734127 C50.6146825,11.8234127 50.318254,11.8496032 50.0063492,11.8496032 C49.4003968,11.8496032 48.8742063,11.7615079 48.4265873,11.5865079 C47.9777778,11.4103175 47.6218254,11.1448413 47.3611111,10.7876984 C47.0992063,10.431746 46.968254,9.92103175 46.968254,9.25674603 L46.968254,9.08650794 L47.0992063,6.99603175 L47.2218254,4.24126984 C47.2277778,4.01984127 47.2301587,3.74365079 47.2301587,3.41507937 C47.7420635,3.42579365 48.1444444,3.43055556 48.4361111,3.43055556 C48.743254,3.43055556 49.115873,3.42579365 49.5527778,3.41507937 L49.2837302,7.10912698 C49.2670635,7.39603175 49.2539683,7.63769841 49.2468254,7.83412698 C49.2384921,8.03174603 49.2349206,8.17460317 49.2349206,8.26031746 C49.2349206,8.6484127 49.2920635,8.97103175 49.4087302,9.2281746 C49.5242063,9.48531746 49.7265873,9.68174603 50.015873,9.81507937 C50.3039683,9.95079365 50.6134921,10.0174603 50.9420635,10.0174603 C51.2551587,10.0174603 51.5527778,9.95912698 51.8325397,9.84007937 C52.0873016,9.73293651 52.3039683,9.58174603 52.4849206,9.38650794 C52.665873,9.19246032 52.818254,8.93055556 52.943254,8.59960317 C53.0337302,8.36269841 53.1039683,8.03293651 53.1515873,7.61150794 C53.1896825,7.31507937 53.2253968,6.80436508 53.2575397,6.08055556 C53.3027778,5.20436508 53.3337302,4.31626984 53.3503968,3.41507937 C53.8849206,3.42579365 54.2944444,3.43055556 54.5753968,3.43055556 C54.8944444,3.43055556 55.2539683,3.42579365 55.6539683,3.41507937 C55.5896825,4.18650794 55.5230159,5.15198413 55.4527778,6.31150794 C55.3825397,7.46984127 55.3337302,8.42579365 55.3063492,9.17936508 C55.2801587,9.93293651 55.2587302,10.7579365 55.2420635,11.6555556" id="Fill-10" filter="url(#filter-10)"></path>
                    <path d="M62.8789683,9.78293651 C62.8527778,10.0055556 62.8123016,10.256746 62.7587302,10.5365079 C62.7039683,10.8174603 62.6468254,11.1662698 62.5873016,11.581746 C61.815873,11.7603175 61.0539683,11.8496032 60.3027778,11.8496032 C59.8646825,11.8496032 59.443254,11.809127 59.0384921,11.7281746 C58.6337302,11.6472222 58.2563492,11.5019841 57.9075397,11.2948413 C57.5587302,11.0865079 57.2527778,10.8126984 56.9884921,10.4722222 C56.7242063,10.131746 56.5253968,9.71984127 56.393254,9.23650794 C56.2611111,8.7531746 56.1944444,8.25436508 56.1944444,7.74126984 C56.1944444,7.06150794 56.3039683,6.40674603 56.5218254,5.78055556 C56.740873,5.1531746 57.0611111,4.64246032 57.4825397,4.24484127 C57.9039683,3.8484127 58.3730159,3.5781746 58.8884921,3.43531746 C59.4039683,3.29246032 59.9777778,3.21984127 60.6111111,3.21984127 C60.9611111,3.21984127 61.3242063,3.24126984 61.6968254,3.28055556 C62.0694444,3.32103175 62.5087302,3.40436508 63.0170635,3.5281746 L63.1384921,5.30198413 C62.3349206,5.02698413 61.6349206,4.88888889 61.0349206,4.88888889 C60.6694444,4.88888889 60.3218254,4.95079365 59.9968254,5.07579365 C59.6694444,5.19960317 59.3896825,5.39603175 59.1551587,5.66269841 C58.9206349,5.93055556 58.7527778,6.24007937 58.6527778,6.59126984 C58.5527778,6.94246032 58.5039683,7.30198413 58.5039683,7.66865079 C58.5039683,8.18174603 58.5837302,8.62579365 58.7420635,9.00198413 C58.9015873,9.37698413 59.1742063,9.66626984 59.5634921,9.87222222 C59.9515873,10.0781746 60.393254,10.1805556 60.8896825,10.1805556 C61.1325397,10.1805556 61.4277778,10.1496032 61.7753968,10.0876984 C62.1230159,10.0257937 62.4920635,9.9234127 62.8789683,9.78293651" id="Fill-11" filter="url(#filter-11)"></path>
                    <path d="M68.7599206,9.96150794 C68.6944444,10.259127 68.5920635,10.8103175 68.4503968,11.6150794 C67.9968254,11.7174603 67.640873,11.781746 67.3813492,11.809127 C67.1218254,11.8365079 66.8789683,11.8496032 66.6527778,11.8496032 C66.2527778,11.8496032 65.8944444,11.8115079 65.5777778,11.7365079 C65.2623016,11.6603175 65.0015873,11.5269841 64.7968254,11.3353175 C64.590873,11.1436508 64.4527778,10.9186508 64.3789683,10.6626984 C64.3063492,10.406746 64.2706349,10.1400794 64.2706349,9.86388889 C64.2706349,9.79365079 64.2730159,9.69960317 64.2777778,9.58174603 C64.2825397,9.46150794 64.3051587,9.0781746 64.343254,8.43055556 L64.5289683,5.05912698 L63.3623016,5.05912698 C63.3896825,4.73531746 63.4134921,4.21388889 63.4349206,3.49484127 L64.6551587,3.49484127 C64.6873016,3.18293651 64.7206349,2.64960317 64.7527778,1.89960317 L65.7099206,1.71269841 C65.9099206,1.67460317 66.2980159,1.58531746 66.8706349,1.44484127 C66.8313492,2.17460317 66.8099206,2.85793651 66.8051587,3.49484127 L68.8646825,3.49484127 C68.8265873,4.22460317 68.8075397,4.74603175 68.8075397,5.05912698 L66.740873,5.05912698 C66.6277778,7.25793651 66.5706349,8.53055556 66.5706349,8.87579365 C66.5706349,9.21031746 66.6075397,9.46984127 66.6801587,9.6531746 C66.7527778,9.83769841 66.8706349,9.96984127 67.0325397,10.0507937 C67.1944444,10.131746 67.368254,10.1722222 67.5515873,10.1722222 C67.6861111,10.1722222 67.8277778,10.1615079 67.9765873,10.1400794 C68.1253968,10.1186508 68.3861111,10.059127 68.7599206,9.96150794" id="Fill-12" filter="url(#filter-12)"></path>
                    <path d="M73.4718254,3.21984127 C74.093254,3.21984127 74.6896825,3.31388889 75.2587302,3.49960317 C75.8289683,3.68650794 76.3123016,3.96150794 76.7087302,4.32579365 C77.1063492,4.69007937 77.4051587,5.13650794 77.6039683,5.66269841 C77.8039683,6.19007937 77.9039683,6.74484127 77.9039683,7.3281746 C77.9039683,7.94365079 77.7992063,8.53888889 77.5884921,9.11031746 C77.3777778,9.68293651 77.0730159,10.1793651 76.6718254,10.5972222 C76.2730159,11.0162698 75.7742063,11.3293651 75.1777778,11.5376984 C74.5813492,11.7460317 73.9444444,11.8496032 73.2694444,11.8496032 C72.6420635,11.8496032 72.0468254,11.756746 71.4825397,11.5710317 C70.918254,11.384127 70.4361111,11.1043651 70.0361111,10.731746 C69.6373016,10.359127 69.3325397,9.90555556 69.1242063,9.36984127 C68.9170635,8.83531746 68.8134921,8.27579365 68.8134921,7.69246032 C68.8134921,7.0984127 68.9075397,6.53174603 69.0956349,5.99126984 C69.2849206,5.45079365 69.5813492,4.96984127 69.9837302,4.5484127 C70.3861111,4.1281746 70.9003968,3.80079365 71.5265873,3.56865079 C72.1539683,3.33650794 72.8015873,3.21984127 73.4718254,3.21984127 L73.4718254,3.21984127 Z M73.4718254,4.88888889 C73.0039683,4.88888889 72.5849206,5.00436508 72.215873,5.23412698 C71.8468254,5.46269841 71.5730159,5.80436508 71.393254,6.25912698 C71.2123016,6.71269841 71.1218254,7.20674603 71.1218254,7.74126984 C71.1218254,8.21150794 71.1968254,8.63055556 71.3444444,8.99722222 C71.4920635,9.36507937 71.7349206,9.66269841 72.0706349,9.88888889 C72.4063492,10.1150794 72.8075397,10.2293651 73.2706349,10.2293651 C73.743254,10.2293651 74.1587302,10.1115079 74.5170635,9.87698413 C74.8753968,9.64126984 75.1444444,9.29603175 75.3242063,8.84007937 C75.5051587,8.38293651 75.5956349,7.87936508 75.5956349,7.3281746 C75.5956349,6.88055556 75.5242063,6.47103175 75.3849206,6.10436508 C75.2444444,5.73769841 75.0087302,5.44365079 74.6789683,5.22103175 C74.3480159,4.99960317 73.9456349,4.88888889 73.4718254,4.88888889 L73.4718254,4.88888889 Z" id="Fill-13" filter="url(#filter-13)"></path>
                    <path d="M78.4515873,11.6555556 L78.6861111,7.80555556 L78.7503968,5.56984127 C78.7623016,5.11150794 78.7670635,4.6484127 78.7670635,4.18412698 C78.7670635,4.1031746 78.7623016,3.84722222 78.7503968,3.41507937 C79.2539683,3.42579365 79.6242063,3.43055556 79.8611111,3.43055556 C80.1373016,3.43055556 80.5015873,3.42579365 80.9551587,3.41507937 L80.915873,4.55674603 C81.1206349,4.26507937 81.2956349,4.0484127 81.4420635,3.90555556 C81.5873016,3.76269841 81.7503968,3.63888889 81.9325397,3.53531746 C82.1123016,3.43412698 82.3134921,3.35555556 82.5349206,3.30079365 C82.7563492,3.24722222 82.9837302,3.21984127 83.2170635,3.21984127 C83.4325397,3.21984127 83.6539683,3.24722222 83.8801587,3.30079365 C83.8801587,3.8031746 83.9051587,4.44007937 83.9539683,5.21269841 C83.6349206,5.12698413 83.3456349,5.08412698 83.0861111,5.08412698 C82.7730159,5.08412698 82.4968254,5.13055556 82.2551587,5.22579365 C82.0146825,5.31984127 81.7992063,5.46269841 81.6075397,5.65555556 C81.415873,5.84603175 81.2575397,6.08293651 81.1337302,6.36388889 C81.0301587,6.59126984 80.9551587,6.88531746 80.9063492,7.24722222 C80.8646825,7.5281746 80.8289683,8.00912698 80.8003968,8.68888889 C80.7706349,9.36984127 80.7563492,10.0400794 80.7563492,10.6996032 C80.7563492,10.9531746 80.7646825,11.2722222 80.7801587,11.6555556 C80.3694444,11.6448413 79.993254,11.6388889 79.6527778,11.6388889 C79.3170635,11.6388889 78.9170635,11.6448413 78.4515873,11.6555556" id="Fill-14" filter="url(#filter-14)"></path>
                    <path d="M91.4301587,9.81507937 C91.3599206,10.1353175 91.2599206,10.706746 91.1301587,11.534127 C90.5456349,11.6579365 90.0551587,11.7412698 89.6551587,11.7853175 C89.2551587,11.8281746 88.8527778,11.8496032 88.4480159,11.8496032 C87.740873,11.8496032 87.1063492,11.7793651 86.5480159,11.6388889 C85.9884921,11.4996032 85.4980159,11.2412698 85.0765873,10.8662698 C84.6551587,10.4912698 84.3444444,10.031746 84.1444444,9.48531746 C83.9456349,8.94007937 83.8444444,8.36865079 83.8444444,7.76984127 C83.8444444,7.10555556 83.9623016,6.46269841 84.193254,5.83888889 C84.4253968,5.21626984 84.7515873,4.70555556 85.1694444,4.30912698 C85.5884921,3.91269841 86.0646825,3.63174603 86.6003968,3.46626984 C87.1349206,3.30198413 87.6944444,3.21984127 88.2777778,3.21984127 C88.8289683,3.21984127 89.3527778,3.28888889 89.8503968,3.42698413 C90.3468254,3.56388889 90.7646825,3.78888889 91.1015873,4.10198413 C91.4384921,4.41388889 91.6980159,4.79007937 91.8789683,5.22936508 C92.0599206,5.66984127 92.1503968,6.15912698 92.1503968,6.69722222 C92.1503968,6.95079365 92.1242063,7.21269841 92.0694444,7.48293651 L86.1301587,7.49007937 C86.1194444,7.69007937 86.1146825,7.84960317 86.1146825,7.96865079 C86.1146825,8.33055556 86.1765873,8.66269841 86.3003968,8.96507937 C86.4242063,9.26865079 86.6051587,9.5234127 86.8444444,9.73531746 C87.0813492,9.94484127 87.3646825,10.1007937 87.6944444,10.2007937 C88.0230159,10.3007937 88.3480159,10.3507937 88.665873,10.3507937 C89.0396825,10.3507937 89.443254,10.3103175 89.8777778,10.2293651 C90.3123016,10.1484127 90.8301587,10.0103175 91.4301587,9.81507937 L91.4301587,9.81507937 Z M86.1956349,6.54126984 L89.9873016,6.54960317 C89.9873016,6.29246032 89.9789683,6.10079365 89.9634921,5.97698413 C89.9468254,5.8531746 89.9099206,5.71269841 89.8539683,5.5531746 C89.7968254,5.39484127 89.7194444,5.25436508 89.6230159,5.13412698 C89.5253968,5.01269841 89.4123016,4.91269841 89.2825397,4.83055556 C89.1527778,4.75079365 89.0027778,4.68888889 88.8325397,4.64603175 C88.6623016,4.6031746 88.4801587,4.58174603 88.2861111,4.58174603 C88.0587302,4.58174603 87.8384921,4.61626984 87.6253968,4.68650794 C87.4123016,4.75555556 87.215873,4.85793651 87.0384921,4.99246032 C86.8599206,5.12698413 86.715873,5.27698413 86.6039683,5.44484127 C86.493254,5.61150794 86.4111111,5.77222222 86.3575397,5.92460317 C86.3027778,6.0781746 86.2492063,6.28412698 86.1956349,6.54126984 L86.1956349,6.54126984 Z" id="Fill-15" filter="url(#filter-15)"></path>
                    <path d="M92.3253968,11.5019841 L92.1468254,9.71865079 C92.6765873,9.93531746 93.1242063,10.0853175 93.4920635,10.1686508 C93.8599206,10.2519841 94.1968254,10.2936508 94.5063492,10.2936508 C94.8134921,10.2936508 95.0718254,10.2579365 95.2825397,10.1853175 C95.493254,10.1115079 95.6503968,10.0031746 95.7539683,9.86031746 C95.8551587,9.71626984 95.9063492,9.56746032 95.9063492,9.41150794 C95.9063492,9.34007937 95.9003968,9.27579365 95.8861111,9.21626984 C95.8742063,9.15674603 95.8492063,9.09484127 95.8134921,9.02936508 C95.7777778,8.96507937 95.7384921,8.90436508 95.6920635,8.84722222 C95.6468254,8.79126984 95.5825397,8.72579365 95.5027778,8.6531746 C95.4206349,8.58055556 95.3051587,8.48769841 95.1539683,8.3734127 L94.715873,8.02460317 C94.2944444,7.69603175 93.9730159,7.43650794 93.7515873,7.24722222 C93.5289683,7.05912698 93.343254,6.86507937 93.193254,6.66746032 C93.0420635,6.47103175 92.9265873,6.26269841 92.8480159,6.04365079 C92.7694444,5.82460317 92.7301587,5.60198413 92.7301587,5.37579365 C92.7301587,4.98055556 92.8503968,4.60555556 93.0920635,4.24960317 C93.3313492,3.89246032 93.6813492,3.63174603 94.140873,3.46626984 C94.5992063,3.30198413 95.1396825,3.21984127 95.7611111,3.21984127 C96.4694444,3.21984127 97.2849206,3.3031746 98.2075397,3.47103175 L98.3134921,5.16507937 C97.6873016,4.91031746 97.0849206,4.78293651 96.5063492,4.78293651 C96.193254,4.78293651 95.9194444,4.81507937 95.6837302,4.87698413 C95.4492063,4.93888889 95.2801587,5.03412698 95.1777778,5.16031746 C95.0753968,5.28769841 95.0242063,5.42936508 95.0242063,5.58650794 C95.0242063,5.6781746 95.0396825,5.76865079 95.0718254,5.85674603 C95.1051587,5.94603175 95.1611111,6.04007937 95.2420635,6.13769841 C95.3242063,6.23412698 95.4170635,6.32579365 95.5218254,6.41269841 C95.6277778,6.4984127 95.8468254,6.66865079 96.1825397,6.9234127 C96.518254,7.17698413 96.8111111,7.40674603 97.0623016,7.61150794 C97.3134921,7.81746032 97.5194444,8.02460317 97.6825397,8.23174603 C97.8444444,8.44007937 97.968254,8.66269841 98.0551587,8.90079365 C98.140873,9.13769841 98.1837302,9.3781746 98.1837302,9.62103175 C98.1837302,10.0257937 98.0599206,10.4019841 97.8111111,10.7484127 C97.5634921,11.0936508 97.1873016,11.3638889 96.6849206,11.5579365 C96.1825397,11.7519841 95.6206349,11.8496032 95.0003968,11.8496032 C94.6753968,11.8496032 94.2813492,11.8234127 93.8170635,11.7734127 C93.3515873,11.7222222 92.8551587,11.6305556 92.3253968,11.5019841" id="Fill-16" filter="url(#filter-16)"></path>
                </g>
                <path d="M0.90952381,50.8779762 L97.3113095,50.8779762 M0.330952381,10.7571429 L33.664881,0.266071429 L96.3880952,11.2767857" id="Stroke-17" stroke="#E8C847" sketch:type="MSShapeGroup"></path>
            </g>
            <g id="large" sketch:type="MSLayerGroup" transform="translate(5.000000, 119.000000)" fill="#FFFFFF">
                <g id="Fill-1-+-Fill-2-+-Fill-3" sketch:type="MSShapeGroup">
                    <path d="M0.545847291,65.1251016 L2.35634303,39.6236068 L3.19167337,21.0365866 L3.42350515,12.7679201 C3.48238306,10.3723252 3.51550188,8.06872692 3.51550188,5.85712543 L3.46766358,1.37504452 C8.36188985,1.4376023 12.0233599,1.46704126 14.4557535,1.46704126 C16.3545661,1.46704126 19.6627687,1.4376023 24.3693217,1.37504452 C23.625988,10.3097674 23.1512849,18.2030872 22.9341726,25.0513241 L48.3583901,25.0513241 C48.5129446,22.4938149 48.6601394,19.0384175 48.7999745,14.6888119 C48.9361296,10.3355265 49.0060471,7.362192 49.0060471,5.77248843 C49.0060471,4.92979834 48.9766082,3.46153046 48.9140504,1.37504452 L59.968378,1.46704126 C61.1164973,1.46704126 64.3842213,1.4376023 69.7641903,1.37504452 C68.6528698,17.3787965 67.9389751,29.279494 67.6335459,37.0808171 C67.320757,44.8784603 67.1662025,54.2253285 67.1662025,65.1251016 L56.9766442,65.029425 C55.4494984,65.029425 51.8027479,65.0625439 46.0363926,65.1251016 C46.8165249,57.7138447 47.3464261,49.0882309 47.6260961,39.25194 L22.1834792,39.25194 L21.3996671,65.1251016 L10.555092,65.029425 C9.17882085,65.029425 5.8448592,65.0625439 0.545847291,65.1251016" id="Fill-1" filter="url(#filter-17)"></path>
                    <path d="M111.357754,27.9473813 C115.622723,28.0099391 119.685298,28.0430579 123.549161,28.0430579 C130.150847,28.0430579 135.317383,28.0099391 139.052451,27.9473813 C138.647665,32.2123499 138.23552,38.2546954 137.819695,46.070738 C137.39651,53.8867806 137.142599,59.7856112 137.050602,63.7709097 C133.466409,64.4222466 130.500434,64.8969497 128.148998,65.1950192 C125.801241,65.4894087 122.975102,65.7543593 119.674259,65.9898709 C116.373416,66.2217027 113.4332,66.3394585 110.846252,66.3394585 C106.610722,66.3394585 102.45615,65.9972307 98.3751747,65.312775 C94.2978795,64.6283193 90.647449,63.5206786 87.4238835,61.9972127 C84.2003179,60.4700669 81.5140132,58.4019803 79.3649695,55.7855932 C77.2159258,53.169206 75.5599846,50.070756 74.393466,46.4902431 C73.2232675,42.9097302 72.6381683,39.2041017 72.6381683,35.3733577 C72.6381683,29.055022 74.2131524,23.1819505 77.3594407,17.7651827 C80.5020492,12.3520949 85.0246086,8.06136719 90.9271191,4.90035939 C96.8259497,1.73935159 104.446959,0.16068763 113.786468,0.16068763 C120.605266,0.16068763 128.156358,0.98497837 136.436064,2.63355985 C136.436064,7.1818784 136.638457,12.2416988 137.046922,17.813021 C134.802202,17.0660076 132.991706,16.4993077 131.604395,16.1092415 C130.217084,15.7191754 128.597942,15.362228 126.746968,15.0347197 C124.892313,14.7072113 123.133336,14.4643399 121.470035,14.3097854 C119.803054,14.1552309 118.316387,14.0779536 117.006353,14.0779536 C113.584075,14.0779536 110.34579,14.5673762 107.295178,15.5499014 C104.244566,16.5287466 101.62082,18.0374931 99.4276174,20.0798206 C97.2307354,22.1184682 95.5895136,24.5545417 94.5002723,27.3880412 C93.4073511,30.2215406 92.8627304,33.2095945 92.8627304,36.3558828 C92.8627304,39.5610491 93.4846283,42.4166277 94.732104,44.9262986 C95.9758999,47.4322897 97.9556696,49.338462 100.664053,50.6448156 C103.372437,51.9548491 106.39361,52.606186 109.723892,52.606186 C112.491154,52.606186 115.530726,52.2050803 118.831569,51.3918291 L119.36515,41.2574689 C117.333862,41.1654721 116.134224,41.1176338 115.758878,41.1176338 L110.798414,41.1654721 L111.125922,35.421196 C111.155361,34.7992981 111.203199,33.90141 111.262077,32.7348914 C111.324635,31.5683728 111.357754,29.9749893 111.357754,27.9473813" id="Fill-2" filter="url(#filter-18)"></path>
                    <path d="M143.236462,65.1251016 C144.020275,57.7764025 144.583295,51.7855751 144.925522,47.1452599 C145.584219,38.6742005 146.073642,30.2620191 146.40483,21.9013559 C146.732338,13.5406927 146.897932,6.69613565 146.897932,1.37504452 C151.126102,1.4376023 154.875889,1.46704126 158.143613,1.46704126 C160.351535,1.46704126 163.527262,1.4376023 167.663435,1.37504452 L166.537395,18.2803645 L165.131685,44.7128662 L164.944012,51.2078357 C170.301902,51.2998324 173.790418,51.3476707 175.40956,51.3476707 C183.60095,51.3476707 189.801529,51.2372746 194.00394,51.0201623 L192.977257,65.1251016 C184.785867,65.0625439 176.988224,65.029425 169.576967,65.029425 C159.553003,65.029425 150.772835,65.0625439 143.236462,65.1251016" id="Fill-3" filter="url(#filter-19)"></path>
                </g>
                <g id="Group" transform="translate(0.000000, 75.362319)" sketch:type="MSShapeGroup">
                    <path d="M18.9296,19.1314317 C18.6930786,20.3873606 18.4873049,21.6645764 18.3170095,22.9630792 C17.0918284,23.1783137 15.9730819,23.3273222 14.9536745,23.4148351 C13.934267,23.4999828 13.0567724,23.5425567 12.3282864,23.5425567 C10.7175753,23.5425567 9.18255108,23.3178613 7.7161181,22.8661054 C6.24968511,22.4143494 4.92989542,21.704785 3.75438381,20.7326819 C2.58123742,19.7629439 1.72739499,18.5827019 1.20231737,17.1990514 C0.677239751,15.8154009 0.414700942,14.3016637 0.414700942,12.6602048 C0.414700942,10.8768331 0.72927447,9.23064378 1.36551717,7.7169065 C1.99702944,6.20316922 2.90527181,4.92831861 4.09260949,3.88525901 C5.27994716,2.84456464 6.68251936,2.06877428 8.30269129,1.56025316 C9.92286322,1.05173205 11.6139916,0.796288881 13.3737112,0.796288881 C15.114509,0.796288881 17.0114111,0.992601684 19.0715129,1.38995772 C19.1069911,2.34550438 19.1377389,3.02195572 19.1684867,3.41931176 L19.282017,5.14118791 C18.0710272,4.81951874 17.0610806,4.59955379 16.2569076,4.48129307 C15.4527347,4.36303234 14.68404,4.30390198 13.9531887,4.30390198 C12.8036945,4.30390198 11.7038697,4.47892785 10.6442536,4.82661438 C9.58936798,5.17666613 8.65510825,5.73249154 7.84383968,6.49409061 C7.03257111,7.25568967 6.41051969,8.17575811 5.97768544,9.25429592 C5.54248597,10.3328337 5.32488624,11.4586758 5.32488624,12.6270918 C5.32488624,14.0249336 5.59215548,15.2737668 6.12905917,16.378322 C6.66596286,17.4852424 7.52690094,18.3816587 8.7118734,19.0675709 C9.89921108,19.7534831 11.3680093,20.0964392 13.1159028,20.0964392 C14.7384399,20.0964392 16.6731854,19.77477 18.9296,19.1314317" id="Fill-4" filter="url(#filter-20)"></path>
                    <path d="M29.2088222,6.39711681 C30.4434642,6.39711681 31.6260714,6.58396876 32.7590092,6.95294222 C33.8895817,7.32428089 34.852224,7.87064544 35.6398405,8.59440108 C36.4298221,9.31815672 37.0234909,10.2051122 37.420847,11.250537 C37.8158378,12.298327 38.0145158,13.4005169 38.0145158,14.559472 C38.0145158,15.7822879 37.8063769,16.9648952 37.387734,18.1001981 C36.969091,19.2378663 36.3612309,20.2241608 35.568884,21.0543511 C34.7741719,21.8869066 33.7831471,22.508958 32.5981746,22.9228705 C31.4108369,23.336783 30.1478124,23.5425567 28.8067358,23.5425567 C27.5602677,23.5425567 26.3776605,23.35807 25.2565488,22.9890965 C24.1330719,22.6177578 23.1775253,22.0619324 22.3828132,21.3216203 C21.5881011,20.5813082 20.9849714,19.6801614 20.5734241,18.6158149 C20.1571464,17.5538336 19.9513727,16.4421828 19.9513727,15.2832277 C19.9513727,14.1029856 20.1405899,12.9771435 20.516659,11.9033362 C20.8903628,10.8295288 21.4793013,9.87398212 22.2787438,9.03669619 C23.0781863,8.20177547 24.0999589,7.55134149 25.346427,7.09012466 C26.5905298,6.62890783 27.8795717,6.39711681 29.2088222,6.39711681 L29.2088222,6.39711681 Z M29.2088222,9.71314754 C28.2769277,9.71314754 27.4467374,9.94257334 26.7135209,10.3990597 C25.9826697,10.8531809 25.4363051,11.5319975 25.0791577,12.4355094 C24.7172799,13.3366561 24.5398888,14.3182202 24.5398888,15.3802015 C24.5398888,16.3144612 24.6865321,17.1470167 24.9798187,17.8755028 C25.2754705,18.606354 25.7579743,19.1976577 26.4249648,19.6470484 C27.0943205,20.0964392 27.8890325,20.3234998 28.809101,20.3234998 C29.7480911,20.3234998 30.5759162,20.0893435 31.2854806,19.6233963 C31.9974101,19.1550838 32.5319486,18.4691716 32.889096,17.5632945 C33.2462434,16.6550521 33.4259997,15.6545664 33.4259997,14.559472 C33.4259997,13.6701514 33.2888172,12.8565176 33.0097219,12.1280315 C32.7306266,11.3995455 32.2623141,10.8153375 31.6071497,10.3730424 C30.9496201,9.93311248 30.1478124,9.71314754 29.2088222,9.71314754 L29.2088222,9.71314754 Z" id="Fill-5" filter="url(#filter-21)"></path>
                    <path d="M39.0079059,23.1570267 C39.2538882,20.7208558 39.4572967,17.9843026 39.6228617,14.945002 C39.7884267,11.9080666 39.8830353,9.18806992 39.901957,6.78501199 C40.8906166,6.80629892 41.6805983,6.81575978 42.2719019,6.81575978 C42.9696402,6.81575978 43.7123175,6.80629892 44.4975687,6.78501199 L44.3178124,9.51919995 C44.6513077,9.04852226 44.9422291,8.67245316 45.195307,8.39335785 C45.448385,8.11426254 45.7676889,7.84226287 46.1626798,7.57262842 C46.5553054,7.30535918 46.9715831,7.09012466 47.4162434,6.92929007 C47.8609038,6.76845549 48.3623292,6.63836869 48.9134242,6.5413949 C49.4668844,6.4444211 50.0439967,6.39711681 50.6447612,6.39711681 C51.6003079,6.39711681 52.5156459,6.51774275 53.3907753,6.75899463 C54.2659046,7.00024651 54.9731038,7.38341126 55.5076422,7.91085409 C56.0445459,8.43593171 56.3993281,9.01067883 56.5696235,9.63273024 C56.7422842,10.2547817 56.8274319,10.9146765 56.8274319,11.61478 C56.8274319,11.9033362 56.8108754,12.364553 56.7801276,12.9960653 L56.4489976,20.0349436 C56.4040585,21.009412 56.3780412,22.0524716 56.3685803,23.1570267 C55.5171031,23.1357398 54.7933475,23.1239137 54.192583,23.1239137 C53.3742188,23.1239137 52.5534893,23.1357398 51.723299,23.1570267 C51.810812,22.222767 51.9172466,20.5954994 52.0473334,18.2704936 C52.1774202,15.947853 52.241281,14.4104635 52.241281,13.6583253 C52.241281,12.8092133 52.108829,12.1280315 51.8391945,11.61478 C51.5719253,11.0991632 51.1556476,10.7065376 50.5927265,10.4392684 C50.0298055,10.1719991 49.4219453,10.0348167 48.7667809,10.0348167 C48.1234426,10.0348167 47.5226781,10.1578079 46.9668527,10.4061554 C46.4086621,10.6545029 45.9261583,11.0116503 45.5169762,11.4846932 C45.0888724,11.967197 44.7577423,12.563231 44.5212209,13.2727954 C44.2752386,14.0249336 44.0931171,15.2619407 43.9748563,16.9909125 C43.8660565,18.5259368 43.7809088,20.5813082 43.7146827,23.1570267 C42.8868577,23.1357398 42.1394499,23.1239137 41.4724594,23.1239137 C40.7960081,23.1239137 39.9752786,23.1357398 39.0079059,23.1570267" id="Fill-6" filter="url(#filter-22)"></path>
                    <path d="M58.1424912,22.8519141 L57.787709,19.3088228 C58.8378642,19.7392918 59.7295501,20.0373088 60.4604014,20.2028738 C61.1912527,20.3684388 61.8606084,20.4512214 62.4731989,20.4512214 C63.0834243,20.4512214 63.599041,20.3802649 64.017684,20.2359868 C64.436327,20.0893435 64.7485353,19.874109 64.9519437,19.5902833 C65.1553522,19.3040923 65.2570564,19.0084405 65.2570564,18.6985974 C65.2570564,18.5566845 65.2452303,18.428963 65.2168477,18.3107022 C65.1908304,18.1924415 65.1411609,18.0694504 65.0725697,17.9393636 C65.0016132,17.811642 64.9235611,17.691016 64.8313178,17.5774857 C64.7390744,17.4663207 64.613718,17.3362339 64.4528835,17.1919558 C64.2920489,17.0476777 64.0602579,16.863191 63.7598756,16.6361304 L62.8918419,15.9431225 C62.054556,15.2903233 61.415948,14.7747066 60.9760181,14.3986375 C60.5360883,14.0249336 60.1647496,13.6394036 59.8643673,13.246778 C59.5639851,12.8565176 59.3369245,12.4426051 59.1808203,12.0074056 C59.0247162,11.5722061 58.9466641,11.129911 58.9466641,10.6805203 C58.9466641,9.89526905 59.1855508,9.15022649 59.6633241,8.44302735 C60.1410974,7.733463 60.8364705,7.21548103 61.7470781,6.88671621 C62.6600509,6.56031661 63.7338583,6.39711681 64.9685002,6.39711681 C66.3734376,6.39711681 67.9936096,6.56268183 69.829016,6.89617707 L70.0395201,10.2618773 C68.7930521,9.7557214 67.5962535,9.50264345 66.4491245,9.50264345 C65.8270731,9.50264345 65.2807085,9.56650424 64.8147613,9.68949539 C64.348814,9.81248654 64.0129536,10.0017037 63.8071799,10.2524164 C63.6061367,10.5054944 63.5044324,10.7869549 63.5044324,11.0991632 C63.5044324,11.2812847 63.5351802,11.461041 63.599041,11.6360669 C63.665267,11.813458 63.7764321,12.00031 63.9372667,12.1942575 C64.0981013,12.3858399 64.2849532,12.5679614 64.4930921,12.7406221 C64.701231,12.9109175 65.1387957,13.2491432 65.8057862,13.7552991 C66.4704114,14.2590898 67.0522542,14.7155762 67.5513145,15.1223931 C68.0503747,15.5315752 68.461922,15.9431225 68.7835912,16.3546698 C69.1052604,16.7685824 69.3512427,17.2108775 69.5239033,17.6839204 C69.696564,18.1545981 69.7817117,18.6323714 69.7817117,19.1148752 C69.7817117,19.9190481 69.5333642,20.6664559 69.0413996,21.3547333 C68.5470698,22.0406455 67.8020272,22.5775492 66.8039067,22.9630792 C65.8057862,23.3486091 64.6870397,23.5425567 63.4547629,23.5425567 C62.8114246,23.5425567 62.0261734,23.490522 61.1037397,23.391183 C60.1813061,23.2894788 59.1926464,23.1073572 58.1424912,22.8519141" id="Fill-7" filter="url(#filter-23)"></path>
                    <path d="M81.4303931,19.7913265 C81.3026715,20.3826301 81.0992631,21.4777244 80.8201678,23.0766094 C79.9166558,23.2800179 79.2094567,23.4077395 78.6938399,23.4621394 C78.1782232,23.5165393 77.6980846,23.5425567 77.2463287,23.5425567 C76.4516166,23.5425567 75.739687,23.4668698 75.1129052,23.3178613 C74.4837581,23.1664876 73.9657762,22.9015836 73.5589593,22.520784 C73.1497772,22.1399845 72.8730471,21.692959 72.7311342,21.1844378 C72.5844909,20.6759167 72.5111693,20.1461087 72.5111693,19.5973789 C72.5111693,19.4578313 72.5158997,19.2709793 72.5277258,19.0368231 C72.5395518,18.7979364 72.5821257,18.0363374 72.6578126,16.7496607 L73.0244208,10.0513732 L70.7088758,10.0513732 C70.7632757,9.40803487 70.81058,8.37207092 70.8531539,6.94348136 L73.2774987,6.94348136 C73.3437248,6.32379516 73.4075855,5.26417907 73.4690811,3.77409393 L75.3730788,3.40275526 C75.7728,3.32706839 76.5391295,3.14967731 77.6815281,2.870582 C77.6034761,4.32045848 77.558537,5.6780916 77.5490761,6.94348136 L81.6408972,6.94348136 C81.5652103,8.39335785 81.5273669,9.4293218 81.5273669,10.0513732 L77.4213545,10.0513732 C77.1966592,14.4199244 77.0831289,16.9483387 77.0831289,17.6342509 C77.0831289,18.2988762 77.1564505,18.8144929 77.3007286,19.178736 C77.4450067,19.5453442 77.6791629,19.807883 78.0008321,19.9687176 C78.3225013,20.1295522 78.6654574,20.2099695 79.0320656,20.2099695 C79.2993349,20.2099695 79.5831606,20.1886825 79.8764472,20.1461087 C80.172099,20.1035348 80.690081,19.9852741 81.4303931,19.7913265" id="Fill-8" filter="url(#filter-24)"></path>
                    <path d="M81.9720272,23.1570267 L82.4379745,15.5079231 L82.5680613,11.0660502 C82.5893482,10.1554426 82.5988091,9.23537421 82.5988091,8.31294055 C82.5988091,8.15210597 82.5893482,7.64358485 82.5680613,6.78501199 C83.5661818,6.80629892 84.3017635,6.81575978 84.7724412,6.81575978 C85.321171,6.81575978 86.0472918,6.80629892 86.9484385,6.78501199 L86.8680213,9.05325269 C87.2748381,8.47377514 87.6225247,8.0433061 87.9134461,7.75948036 C88.2020022,7.47565462 88.5284018,7.22967231 88.8855492,7.02389865 C89.247427,6.82285542 89.6471483,6.66675126 90.0870782,6.5579514 C90.5246429,6.45151674 90.9763988,6.39711681 91.4399809,6.39711681 C91.8680847,6.39711681 92.3080146,6.45151674 92.7574054,6.5579514 C92.7574054,7.55607191 92.8070749,8.82146167 92.9040486,10.3564859 C92.2701712,10.1861904 91.695424,10.1010427 91.1821725,10.1010427 C90.5577559,10.1010427 90.0090261,10.1932861 89.5288876,10.3825032 C89.0534794,10.5693552 88.6230104,10.8531809 88.2422109,11.2363457 C87.8614113,11.61478 87.5468378,12.0854577 87.3008555,12.6436483 C87.0974471,13.0954043 86.9484385,13.6796122 86.8490995,14.3986375 C86.766317,14.9568281 86.6953606,15.9123747 86.6385954,17.2629122 C86.5794651,18.6158149 86.5510825,19.9474307 86.5510825,21.2577595 C86.5510825,21.7615502 86.567639,22.3954277 86.600752,23.1570267 C85.7823878,23.1357398 85.03498,23.1239137 84.3585287,23.1239137 C83.6915382,23.1239137 82.8968261,23.1357398 81.9720272,23.1570267" id="Fill-9" filter="url(#filter-25)"></path>
                    <path d="M109.753837,23.1570267 C108.807751,23.1357398 108.083995,23.1239137 107.580205,23.1239137 C106.946327,23.1239137 106.227302,23.1357398 105.420764,23.1570267 L105.451512,20.4843344 C105.151129,20.9337251 104.886225,21.2979681 104.66153,21.5699678 C104.436835,21.8443327 104.141183,22.1139671 103.77694,22.376506 C103.412697,22.6390448 103.015341,22.8471836 102.584872,23.0032878 C102.156768,23.159392 101.664803,23.2894788 101.113708,23.391183 C100.560248,23.490522 99.9713096,23.5425567 99.3516234,23.5425567 C98.1477292,23.5425567 97.1023044,23.3675308 96.2129837,23.0198443 C95.3212979,22.6697926 94.6140987,22.1423497 94.0961168,21.4327854 C93.5757696,20.7255862 93.315596,19.7109092 93.315596,18.3911195 L93.315596,18.0528939 L93.5757696,13.8995772 L93.8193867,8.42647085 C93.8312127,7.98654095 93.8359432,7.43781119 93.8359432,6.78501199 C94.8529854,6.80629892 95.6524279,6.81575978 96.2319054,6.81575978 C96.8421308,6.81575978 97.5824429,6.80629892 98.4504766,6.78501199 L97.9159382,14.1242726 C97.8828252,14.6942893 97.8568078,15.1744278 97.8426165,15.5646882 C97.82606,15.9573138 97.8189644,16.2411395 97.8189644,16.411435 C97.8189644,17.1824949 97.9324947,17.823468 98.1642857,18.3343544 C98.3937115,18.8452407 98.795798,19.2355011 99.3705451,19.5004051 C99.942927,19.7700396 100.557883,19.9024916 101.210682,19.9024916 C101.832733,19.9024916 102.424037,19.7865961 102.979862,19.5500746 C103.486018,19.3372053 103.916487,19.0368231 104.276,18.6489279 C104.635513,18.2633979 104.93826,17.7430508 105.186608,17.0855211 C105.366364,16.6148434 105.505911,15.959679 105.60052,15.1223931 C105.676207,14.5334547 105.747163,13.5187777 105.811024,12.0807272 C105.900902,10.3399294 105.962398,8.57547936 105.995511,6.78501199 C107.057492,6.80629892 107.871126,6.81575978 108.429317,6.81575978 C109.063194,6.81575978 109.777489,6.80629892 110.572201,6.78501199 C110.444479,8.31767098 110.312027,10.2358599 110.17248,12.5395789 C110.032932,14.8409326 109.935958,16.7401998 109.881558,18.2373806 C109.829524,19.7345614 109.78695,21.373655 109.753837,23.1570267" id="Fill-10" filter="url(#filter-26)"></path>
                    <path d="M124.926688,19.4365443 C124.874653,19.8788394 124.794236,20.3778997 124.687801,20.9337251 C124.579001,21.4919157 124.465471,22.1849236 124.34721,23.0103834 C122.814551,23.3651656 121.300814,23.5425567 119.808364,23.5425567 C118.937965,23.5425567 118.100679,23.4621394 117.296506,23.3013048 C116.492333,23.1404702 115.74256,22.8519141 115.049552,22.4403667 C114.356544,22.0264542 113.748684,21.4824549 113.223606,20.8060035 C112.698529,20.1295522 112.303538,19.311188 112.040999,18.3509109 C111.77846,17.3906338 111.646008,16.3996089 111.646008,15.3802015 C111.646008,14.029664 111.863608,12.728796 112.296442,11.4846932 C112.731642,10.2382252 113.367884,9.22354814 114.20517,8.43356649 C115.042456,7.64595007 115.974351,7.10904637 116.998489,6.82522063 C118.022627,6.5413949 119.16266,6.39711681 120.420954,6.39711681 C121.116327,6.39711681 121.837718,6.43969067 122.57803,6.51774275 C123.318342,6.59816004 124.191106,6.76372506 125.201053,7.00970737 L125.442304,10.533877 C123.845785,9.98751242 122.455039,9.71314754 121.26297,9.71314754 C120.53685,9.71314754 119.846207,9.83613869 119.200503,10.0844862 C118.550069,10.3304685 117.994244,10.7207289 117.528297,11.250537 C117.06235,11.7827102 116.728854,12.397666 116.530176,13.0954043 C116.331498,13.7931425 116.234524,14.5074373 116.234524,15.2359234 C116.234524,16.2553308 116.392994,17.1375558 116.707567,17.8849636 C117.024506,18.6300062 117.56614,19.2047533 118.339565,19.6139354 C119.110625,20.0231175 119.98812,20.226526 120.974414,20.226526 C121.456918,20.226526 122.043491,20.1650304 122.734134,20.0420392 C123.424777,19.9190481 124.157993,19.7156396 124.926688,19.4365443" id="Fill-11" filter="url(#filter-27)"></path>
                    <path d="M136.610847,19.7913265 C136.480761,20.3826301 136.277352,21.4777244 135.995892,23.0766094 C135.094745,23.2800179 134.387546,23.4077395 133.871929,23.4621394 C133.356312,23.5165393 132.873808,23.5425567 132.424418,23.5425567 C131.629706,23.5425567 130.917776,23.4668698 130.288629,23.3178613 C129.661847,23.1664876 129.143865,22.9015836 128.737048,22.520784 C128.327866,22.1399845 128.053501,21.692959 127.906858,21.1844378 C127.76258,20.6759167 127.691623,20.1461087 127.691623,19.5973789 C127.691623,19.4578313 127.696354,19.2709793 127.705815,19.0368231 C127.715276,18.7979364 127.760215,18.0363374 127.835902,16.7496607 L128.204875,10.0513732 L125.886965,10.0513732 C125.941365,9.40803487 125.988669,8.37207092 126.031243,6.94348136 L128.455588,6.94348136 C128.519449,6.32379516 128.585675,5.26417907 128.649535,3.77409393 L130.551168,3.40275526 C130.948524,3.32706839 131.719584,3.14967731 132.857252,2.870582 C132.7792,4.32045848 132.736626,5.6780916 132.727165,6.94348136 L136.818986,6.94348136 C136.743299,8.39335785 136.705456,9.4293218 136.705456,10.0513732 L132.599444,10.0513732 C132.374748,14.4199244 132.261218,16.9483387 132.261218,17.6342509 C132.261218,18.2988762 132.33454,18.8144929 132.478818,19.178736 C132.623096,19.5453442 132.857252,19.807883 133.178921,19.9687176 C133.50059,20.1295522 133.845912,20.2099695 134.210155,20.2099695 C134.477424,20.2099695 134.758884,20.1886825 135.054536,20.1461087 C135.350188,20.1035348 135.86817,19.9852741 136.610847,19.7913265" id="Fill-12" filter="url(#filter-28)"></path>
                    <path d="M145.972366,6.39711681 C147.207008,6.39711681 148.391981,6.58396876 149.522553,6.95294222 C150.655491,7.32428089 151.615768,7.87064544 152.403385,8.59440108 C153.193366,9.31815672 153.787035,10.2051122 154.182026,11.250537 C154.579382,12.298327 154.77806,13.4005169 154.77806,14.559472 C154.77806,15.7822879 154.569921,16.9648952 154.151278,18.1001981 C153.732635,19.2378663 153.12714,20.2241608 152.330063,21.0543511 C151.537716,21.8869066 150.546691,22.508958 149.361719,22.9228705 C148.176746,23.336783 146.911356,23.5425567 145.57028,23.5425567 C144.323812,23.5425567 143.141205,23.35807 142.020093,22.9890965 C140.898981,22.6177578 139.941069,22.0619324 139.146357,21.3216203 C138.35401,20.5813082 137.748516,19.6801614 137.334603,18.6158149 C136.923056,17.5538336 136.717282,16.4421828 136.717282,15.2832277 C136.717282,14.1029856 136.904134,12.9771435 137.277838,11.9033362 C137.653907,10.8295288 138.242845,9.87398212 139.042288,9.03669619 C139.84173,8.20177547 140.863503,7.55134149 142.107606,7.09012466 C143.354074,6.62890783 144.640751,6.39711681 145.972366,6.39711681 L145.972366,6.39711681 Z M145.972366,9.71314754 C145.042837,9.71314754 144.210282,9.94257334 143.477065,10.3990597 C142.743849,10.8531809 142.199849,11.5319975 141.842702,12.4355094 C141.483189,13.3366561 141.303433,14.3182202 141.303433,15.3802015 C141.303433,16.3144612 141.452441,17.1470167 141.745728,17.8755028 C142.039015,18.606354 142.521518,19.1976577 143.188509,19.6470484 C143.855499,20.0964392 144.652577,20.3234998 145.572645,20.3234998 C146.511635,20.3234998 147.337095,20.0893435 148.049025,19.6233963 C148.760954,19.1550838 149.295493,18.4691716 149.65264,17.5632945 C150.012153,16.6550521 150.191909,15.6545664 150.191909,14.559472 C150.191909,13.6701514 150.049996,12.8565176 149.773266,12.1280315 C149.494171,11.3995455 149.025858,10.8153375 148.370694,10.3730424 C147.713164,9.93311248 146.913722,9.71314754 145.972366,9.71314754 L145.972366,9.71314754 Z" id="Fill-13" filter="url(#filter-29)"></path>
                    <path d="M155.866059,23.1570267 L156.332006,15.5079231 L156.459727,11.0660502 C156.48338,10.1554426 156.49284,9.23537421 156.49284,8.31294055 C156.49284,8.15210597 156.48338,7.64358485 156.459727,6.78501199 C157.460213,6.80629892 158.195795,6.81575978 158.666473,6.81575978 C159.215202,6.81575978 159.938958,6.80629892 160.840105,6.78501199 L160.762053,9.05325269 C161.168869,8.47377514 161.516556,8.0433061 161.807477,7.75948036 C162.096034,7.47565462 162.420068,7.22967231 162.781946,7.02389865 C163.139093,6.82285542 163.538814,6.66675126 163.978744,6.5579514 C164.418674,6.45151674 164.87043,6.39711681 165.334012,6.39711681 C165.762116,6.39711681 166.202046,6.45151674 166.651437,6.5579514 C166.651437,7.55607191 166.701106,8.82146167 166.79808,10.3564859 C166.164202,10.1861904 165.589455,10.1010427 165.073839,10.1010427 C164.451787,10.1010427 163.903057,10.1932861 163.422919,10.3825032 C162.945146,10.5693552 162.517042,10.8531809 162.136242,11.2363457 C161.755443,11.61478 161.440869,12.0854577 161.194887,12.6436483 C160.989113,13.0954043 160.840105,13.6796122 160.743131,14.3986375 C160.660348,14.9568281 160.589392,15.9123747 160.532627,17.2629122 C160.473496,18.6158149 160.445114,19.9474307 160.445114,21.2577595 C160.445114,21.7615502 160.46167,22.3954277 160.492418,23.1570267 C159.676419,23.1357398 158.929011,23.1239137 158.25256,23.1239137 C157.58557,23.1239137 156.790857,23.1357398 155.866059,23.1570267" id="Fill-14" filter="url(#filter-30)"></path>
                    <path d="M181.651627,19.5004051 C181.512079,20.1366478 181.313401,21.2719508 181.055593,22.9157749 C179.894273,23.1617572 178.919804,23.3273222 178.125092,23.4148351 C177.33038,23.4999828 176.530938,23.5425567 175.726765,23.5425567 C174.321827,23.5425567 173.061168,23.403009 171.951882,23.1239137 C170.840232,22.8471836 169.865763,22.3339321 169.028477,21.5888895 C168.191191,20.843847 167.57387,19.9308742 167.176514,18.8452407 C166.781523,17.7619725 166.58048,16.6266695 166.58048,15.4369666 C166.58048,14.1171769 166.814636,12.8399611 167.273488,11.6005887 C167.734705,10.3635815 168.382774,9.3489045 169.212964,8.56128808 C170.045519,7.77367165 170.991605,7.21548103 172.055952,6.88671621 C173.117933,6.56031661 174.229584,6.39711681 175.388539,6.39711681 C176.483633,6.39711681 177.524328,6.53429925 178.512987,6.80866413 C179.499282,7.0806638 180.329472,7.52768934 180.998828,8.14974075 C181.668184,8.76942695 182.1838,9.51683473 182.543313,10.3895989 C182.902825,11.2647282 183.082582,12.2368314 183.082582,13.3059084 C183.082582,13.809699 183.030547,14.3300462 182.921747,14.8669499 L171.121692,14.8811412 C171.100405,15.2784972 171.090944,15.595436 171.090944,15.8319574 C171.090944,16.5509826 171.213935,17.2108775 171.459918,17.811642 C171.7059,18.4147717 172.065413,18.9209276 172.540821,19.3419358 C173.011498,19.7582135 173.57442,20.0680566 174.229584,20.2667346 C174.882383,20.4654126 175.528087,20.5647517 176.159599,20.5647517 C176.902276,20.5647517 177.704084,20.4843344 178.567387,20.3234998 C179.430691,20.1626652 180.459559,19.8883003 181.651627,19.5004051 L181.651627,19.5004051 Z M171.251779,12.9960653 L178.784987,13.0126218 C178.784987,12.5017354 178.768431,12.1209359 178.737683,11.8749536 C178.70457,11.6289713 178.631248,11.349876 178.520083,11.0329372 C178.406553,10.7183637 178.252814,10.4392684 178.061231,10.2003817 C177.867284,9.95912984 177.642588,9.76045183 177.38478,9.59725203 C177.126972,9.43878265 176.828955,9.3157915 176.490729,9.23064378 C176.152503,9.14549606 175.790625,9.1029222 175.405096,9.1029222 C174.95334,9.1029222 174.515775,9.17151342 174.092401,9.31106107 C173.669028,9.44824351 173.278768,9.65165196 172.926351,9.9189212 C172.571569,10.1861904 172.285378,10.4842075 172.063047,10.8177027 C171.843083,11.1488327 171.679883,11.4681367 171.573448,11.7708841 C171.464648,12.0759968 171.358214,12.4851789 171.251779,12.9960653 L171.251779,12.9960653 Z" id="Fill-15" filter="url(#filter-31)"></path>
                    <path d="M183.430268,22.8519141 L183.075486,19.3088228 C184.128007,19.7392918 185.017327,20.0373088 185.748179,20.2028738 C186.47903,20.3684388 187.148386,20.4512214 187.763341,20.4512214 C188.373567,20.4512214 188.886818,20.3802649 189.305461,20.2359868 C189.724104,20.0893435 190.036312,19.874109 190.242086,19.5902833 C190.443129,19.3040923 190.544834,19.0084405 190.544834,18.6985974 C190.544834,18.5566845 190.533007,18.428963 190.504625,18.3107022 C190.480973,18.1924415 190.431303,18.0694504 190.360347,17.9393636 C190.28939,17.811642 190.211338,17.691016 190.119095,17.5774857 C190.029217,17.4663207 189.901495,17.3362339 189.743026,17.1919558 C189.579826,17.0476777 189.3504,16.863191 189.050018,16.6361304 L188.179619,15.9431225 C187.342333,15.2903233 186.703725,14.7747066 186.263795,14.3986375 C185.8215,14.0249336 185.452527,13.6394036 185.15451,13.246778 C184.854127,12.8565176 184.624702,12.4426051 184.468597,12.0074056 C184.312493,11.5722061 184.234441,11.129911 184.234441,10.6805203 C184.234441,9.89526905 184.473328,9.15022649 184.953466,8.44302735 C185.428875,7.733463 186.124248,7.21548103 187.03722,6.88671621 C187.947828,6.56031661 189.021635,6.39711681 190.256277,6.39711681 C191.66358,6.39711681 193.283752,6.56268183 195.116793,6.89617707 L195.327297,10.2618773 C194.083194,9.7557214 192.886396,9.50264345 191.736902,9.50264345 C191.11485,9.50264345 190.570851,9.56650424 190.102538,9.68949539 C189.636591,9.81248654 189.300731,10.0017037 189.097322,10.2524164 C188.893914,10.5054944 188.79221,10.7869549 188.79221,11.0991632 C188.79221,11.2812847 188.822957,11.461041 188.886818,11.6360669 C188.953044,11.813458 189.064209,12.00031 189.225044,12.1942575 C189.388244,12.3858399 189.57273,12.5679614 189.780869,12.7406221 C189.991373,12.9109175 190.426573,13.2491432 191.093563,13.7552991 C191.760554,14.2590898 192.342397,14.7155762 192.841457,15.1223931 C193.340517,15.5315752 193.749699,15.9431225 194.073734,16.3546698 C194.395403,16.7685824 194.641385,17.2108775 194.814046,17.6839204 C194.984341,18.1545981 195.069489,18.6323714 195.069489,19.1148752 C195.069489,19.9190481 194.823507,20.6664559 194.329177,21.3547333 C193.837212,22.0406455 193.089804,22.5775492 192.091684,22.9630792 C191.093563,23.3486091 189.977182,23.5425567 188.744905,23.5425567 C188.099202,23.5425567 187.316316,23.490522 186.393882,23.391183 C185.469083,23.2894788 184.482789,23.1073572 183.430268,22.8519141" id="Fill-16" filter="url(#filter-32)"></path>
                </g>
            </g>
        </g>
    </g>
</svg>