<?xml version="1.0" encoding="UTF-8" standalone="no"?>
<svg width="512px" height="512px" viewBox="0 0 512 512" version="1.1" xmlns="http://www.w3.org/2000/svg" xmlns:xlink="http://www.w3.org/1999/xlink" xmlns:sketch="http://www.bohemiancoding.com/sketch/ns">
    <!-- Generator: Sketch 3.2.2 (9983) - http://www.bohemiancoding.com/sketch -->
    <title>arrow-right</title>
    <desc>Created with Sketch.</desc>
    <defs></defs>
    <g id="Page-1" stroke="none" stroke-width="1" fill="none" fill-rule="evenodd" sketch:type="MSPage">
        <g id="arrow-right" sketch:type="MSArtboardGroup" fill="#000000">
            <path d="M416.530699,95.0935961 C412.215102,90.8374384 406.239661,88 399.623994,88 L186.879323,88 C173.766549,88 163.167255,98.6403941 163.167255,111.64532 C163.167255,124.650246 173.766549,135.29064 186.879323,135.29064 L344.06662,135.29064 L88,390.660099 L121.528864,424 L377.310939,168.866995 L376.575865,324.453202 C376.575865,337.458128 387.175159,348.098522 400.287932,348.098522 C413.400706,348.098522 424,337.458128 424,324.453202 L424,111.64532 C424,104.551724 421.107128,98.8768473 416.530699,95.0935961 L416.530699,95.0935961 Z" id="Fill-10" sketch:type="MSShapeGroup" transform="translate(256.000000, 256.000000) rotate(45.000000) translate(-256.000000, -256.000000) "></path>
        </g>
    </g>
</svg>