<?xml version="1.0" encoding="UTF-8" standalone="no"?>
<svg width="512px" height="512px" viewBox="0 0 512 512" version="1.1" xmlns="http://www.w3.org/2000/svg" xmlns:xlink="http://www.w3.org/1999/xlink" xmlns:sketch="http://www.bohemiancoding.com/sketch/ns">
    <!-- Generator: Sketch 3.2.2 (9983) - http://www.bohemiancoding.com/sketch -->
    <title>facebook</title>
    <desc>Created with Sketch.</desc>
    <defs></defs>
    <g id="Page-1" stroke="none" stroke-width="1" fill="none" fill-rule="evenodd" sketch:type="MSPage">
        <g id="facebook" sketch:type="MSArtboardGroup" fill="#000000">
            <path d="M340.185476,137.516738 L300.433398,137.516738 C286.401864,137.516738 283.476505,143.264311 283.476505,157.784233 L283.476505,192.862447 L340.185476,192.862447 L334.728699,254.440388 L283.476505,254.440388 L283.476505,438.4 L210.018175,438.4 L210.018175,255.219573 L171.81701,255.219573 L171.81701,192.862447 L210.018175,192.862447 L210.018175,143.753942 C210.018175,97.6652427 234.663767,73.6 289.325981,73.6 L340.185476,73.6 L340.185476,137.516738 Z M449.864078,0 L62.1359223,0 C27.8194951,0 0,27.8194951 0,62.1359223 L0,449.864078 C0,484.180505 27.8194951,512 62.1359223,512 L449.864078,512 C484.180505,512 512,484.180505 512,449.864078 L512,62.1359223 C512,27.8194951 484.181748,0 449.864078,0 L449.864078,0 Z" id="Fill-1" sketch:type="MSShapeGroup"></path>
        </g>
    </g>
</svg>