<?xml version="1.0" encoding="UTF-8" standalone="no"?>
<svg width="512px" height="512px" viewBox="0 0 512 512" version="1.1" xmlns="http://www.w3.org/2000/svg" xmlns:xlink="http://www.w3.org/1999/xlink" xmlns:sketch="http://www.bohemiancoding.com/sketch/ns">
    <!-- Generator: Sketch 3.2.2 (9983) - http://www.bohemiancoding.com/sketch -->
    <title>instagram</title>
    <desc>Created with Sketch.</desc>
    <defs></defs>
    <g id="Page-1" stroke="none" stroke-width="1" fill="none" fill-rule="evenodd" sketch:type="MSPage">
        <g id="instagram" sketch:type="MSArtboardGroup" fill="#000000">
            <path d="M181.404408,258.326369 C181.404408,299.309981 214.801877,332.531573 255.999375,332.531573 C297.196874,332.531573 330.594343,299.309981 330.594343,258.326369 C330.594343,217.341515 297.198123,184.119922 255.999375,184.119922 C214.801877,184.119922 181.404408,217.341515 181.404408,258.326369 L181.404408,258.326369 Z M154.736401,258.326369 C154.736401,228.267495 168.101634,201.274408 189.205687,182.85732 C196.60847,176.398913 204.961897,171.003029 214.033616,166.89833 C226.736772,161.150757 240.825294,157.920932 255.665838,157.920932 C270.507631,157.920932 284.593655,161.150757 297.29681,166.89833 C306.369779,171.003029 314.724455,176.398913 322.125989,182.85732 C343.231291,201.274408 356.594026,228.268738 356.594026,258.326369 C356.594026,313.689476 311.319125,358.730563 255.665838,358.730563 C200.0138,358.730563 154.736401,313.689476 154.736401,258.326369 L154.736401,258.326369 Z M465.715743,58.279767 C465.715743,49.3558058 458.441628,42.1219417 449.472343,42.1219417 L394.730975,42.1219417 C385.756693,42.1219417 378.487575,49.3558058 378.487575,58.279767 L378.487575,113.934913 C378.487575,122.858874 385.757942,130.092738 394.730975,130.092738 L449.472343,130.092738 C458.441628,130.092738 465.714493,122.858874 465.714493,113.934913 L465.714493,58.279767 L465.715743,58.279767 Z M512,100.737243 L512,166.89833 L348.998865,166.89833 C325.237756,142.895223 292.203806,127.998757 255.665838,127.998757 C219.125372,127.998757 186.09392,142.893981 162.33281,166.89833 L0,166.89833 L0,100.737243 C0,66.7836893 16.9042285,36.775767 42.7789909,18.5264466 L42.7789909,127.002097 L63.5407614,127.002097 L63.5407614,7.25374757 C68.2502605,5.36978641 73.1333989,3.83378641 78.1626942,2.66687379 L78.1626942,127.00334 L98.9257138,127.00334 L98.9257138,0.058407767 C99.7064663,0.0397669903 100.479724,0 101.264224,0 L113.254084,0 L113.254084,127.000854 L134.015854,127.000854 L134.015854,0 L410.735776,0 C466.663888,0 512,45.1007379 512,100.737243 L512,100.737243 Z M362.437802,182.85732 L512,182.85732 L512,411.261515 C512,466.899262 466.663888,512 410.735776,512 L101.264224,512 C45.3386099,512 0.001249204,466.898019 0.001249204,411.261515 L0.001249204,182.85732 L148.893874,182.85732 C133.652336,204.158757 124.659316,230.188738 124.659316,258.326369 C124.659316,330.303379 183.313192,388.652738 255.667087,388.652738 C328.019734,388.652738 386.673609,330.303379 386.673609,258.326369 C386.67236,230.187495 377.678091,204.157515 362.437802,182.85732 L362.437802,182.85732 Z" id="Fill-1" sketch:type="MSShapeGroup"></path>
        </g>
    </g>
</svg>