<?xml version="1.0" encoding="UTF-8" standalone="no"?>
<svg width="512px" height="512px" viewBox="0 0 512 512" version="1.1" xmlns="http://www.w3.org/2000/svg" xmlns:xlink="http://www.w3.org/1999/xlink" xmlns:sketch="http://www.bohemiancoding.com/sketch/ns">
    <!-- Generator: Sketch 3.2.2 (9983) - http://www.bohemiancoding.com/sketch -->
    <title>paint</title>
    <desc>Created with Sketch.</desc>
    <defs></defs>
    <g id="Page-1" stroke="none" stroke-width="1" fill="none" fill-rule="evenodd" sketch:type="MSPage">
        <g id="paint" sketch:type="MSArtboardGroup" fill="#000000">
            <path d="M475.763717,89.9032119 L272.754131,290.582016 L250.401956,268.490847 L453.427542,67.8120432 C459.603591,61.7085369 469.603669,61.7085369 475.763717,67.8120432 C481.939765,73.9155496 481.939765,83.7997056 475.763717,89.9032119 L475.763717,89.9032119 Z M216.897695,345.817947 C214.833678,343.783445 194.54552,323.726778 194.54552,323.726778 L228.065782,290.582016 L250.401956,312.673184 L216.897695,345.817947 L216.897695,345.817947 Z M183.377433,423.113008 C167.63331,437.738996 97.28076,470.339089 55.8564364,438.732217 C55.8564364,438.732217 70.272549,427.470367 81.1846343,404.866568 C107.248838,335.549318 172.209345,345.817947 172.209345,345.817947 L194.54552,367.893096 C194.769522,368.117372 211.23365,397.257209 183.377433,423.113008 L183.377433,423.113008 Z M498.115892,45.7208745 C479.603747,27.4263752 449.587512,27.4263752 431.075368,45.7208745 L156.225221,317.431036 C122.576958,316.66209 75.9685935,328.596768 55.8564364,394.5659 C40.4803163,429.45681 0,427.694643 0,427.694643 C84.0486566,521.041445 183.105431,468.14439 205.713607,445.204177 C225.601763,425.051392 228.465785,400.381051 226.337768,380.644779 L498.115892,111.994381 C516.628036,93.6838615 516.628036,64.0153739 498.115892,45.7208745 L498.115892,45.7208745 Z" id="Fill-212" sketch:type="MSShapeGroup"></path>
        </g>
    </g>
</svg>