<?xml version="1.0" encoding="UTF-8" standalone="no"?>
<svg width="512px" height="512px" viewBox="0 0 512 512" version="1.1" xmlns="http://www.w3.org/2000/svg" xmlns:xlink="http://www.w3.org/1999/xlink" xmlns:sketch="http://www.bohemiancoding.com/sketch/ns">
    <!-- Generator: Sketch 3.2.2 (9983) - http://www.bohemiancoding.com/sketch -->
    <title>phone</title>
    <desc>Created with Sketch.</desc>
    <defs></defs>
    <g id="Page-1" stroke="none" stroke-width="1" fill="none" fill-rule="evenodd" sketch:type="MSPage">
        <g id="phone" sketch:type="MSArtboardGroup" fill="#000000">
            <path d="M473.044533,133.217601 C445.046455,184.031805 382.874252,262.251069 330.830765,313.836139 C270.83253,375.82003 129.392827,460.583786 129.392827,460.583786 C118.473577,466.058505 88.1697743,466.467536 79.8362287,458.5229 L49.6806515,429.796356 C43.4551965,419.853763 40.6553886,408.337974 49.6806515,401.069812 L110.008275,357.964264 C120.219339,351.372577 131.830307,350.035361 140.163852,357.964264 L177.335419,393.361156 C186.080701,387.493138 325.708764,300.086414 403.378727,179.752714 L365.31781,143.490565 C356.984264,135.561662 358.400637,124.486367 365.31781,114.748289 L410.55941,57.2952012 C418.892956,46.6761337 432.397911,49.3505655 440.714987,57.2952012 L470.887034,86.0217452 C482.712105,96.6250808 479.286457,121.339977 473.044533,133.217601 L473.044533,133.217601 Z M496.727613,65.5072801 L449.328514,20.3565783 C436.251764,7.88114055 415.022633,7.88114055 401.929414,20.3565783 L330.830765,110.657982 C319.977392,125.933707 317.754016,143.333246 330.830765,155.808683 L359.84995,183.449723 C338.340838,210.980639 312.516728,240.997203 283.448135,268.685438 C250.575097,299.992022 214.012901,328.451123 181.139863,351.828803 L153.092377,325.131681 C140.015627,312.656243 121.750999,314.764325 105.693277,325.131681 L10.8950785,392.857733 C-4.99794829,403.319481 -2.19814047,425.532997 10.8950785,438.008435 L58.2941779,483.143405 C84.4806158,508.094281 118.522985,500.102449 153.092377,483.143405 C153.092377,483.143405 257.722842,427.200584 347.300223,341.870478 C431.557969,261.606059 496.727613,155.808683 496.727613,155.808683 C510.314916,120.207277 522.914051,90.4424237 496.727613,65.5072801 L496.727613,65.5072801 Z" id="Fill-179" sketch:type="MSShapeGroup"></path>
        </g>
    </g>
</svg>