<?xml version="1.0" encoding="UTF-8" standalone="no"?>
<svg width="512px" height="512px" viewBox="0 0 512 512" version="1.1" xmlns="http://www.w3.org/2000/svg" xmlns:xlink="http://www.w3.org/1999/xlink" xmlns:sketch="http://www.bohemiancoding.com/sketch/ns">
    <!-- Generator: Sketch 3.2.2 (9983) - http://www.bohemiancoding.com/sketch -->
    <title>pin</title>
    <desc>Created with Sketch.</desc>
    <defs></defs>
    <g id="Page-1" stroke="none" stroke-width="1" fill="none" fill-rule="evenodd" sketch:type="MSPage">
        <g id="pin" sketch:type="MSArtboardGroup" fill="#000000">
            <path d="M256,239.999955 C229.488,239.999955 208,218.511959 208,191.999964 C208,165.487969 229.488,143.999973 256,143.999973 C282.512,143.999973 304,165.487969 304,191.999964 C304,218.511959 282.512,239.999955 256,239.999955 L256,239.999955 Z M256,111.999979 C211.824,111.999979 176,147.807972 176,191.999964 C176,236.191955 211.824,271.999949 256,271.999949 C300.176,271.999949 336,236.191955 336,191.999964 C336,147.807972 300.176,111.999979 256,111.999979 L256,111.999979 Z M256,463.999912 C229.392,464.143912 96,258.895951 96,191.999964 C96,103.64798 167.632,31.999994 256,31.999994 C344.368,31.999994 416,103.64798 416,191.999964 C416,257.999951 282.192,464.143912 256,463.999912 L256,463.999912 Z M256,0 C149.968,0 64,85.9679837 64,191.999964 C64,272.287949 224.08,512.175903 256,511.999903 C287.424,512.175903 448,271.199949 448,191.999964 C448,85.9679837 362.032,0 256,0 L256,0 Z" id="Fill-162" sketch:type="MSShapeGroup"></path>
        </g>
    </g>
</svg>