<?xml version="1.0" encoding="UTF-8" standalone="no"?>
<svg width="512px" height="512px" viewBox="0 0 512 512" version="1.1" xmlns="http://www.w3.org/2000/svg" xmlns:xlink="http://www.w3.org/1999/xlink" xmlns:sketch="http://www.bohemiancoding.com/sketch/ns">
    <!-- Generator: Sketch 3.2.2 (9983) - http://www.bohemiancoding.com/sketch -->
    <title>reload</title>
    <desc>Created with Sketch.</desc>
    <defs></defs>
    <g id="Page-1" stroke="none" stroke-width="1" fill="none" fill-rule="evenodd" sketch:type="MSPage">
        <g id="reload" sketch:type="MSArtboardGroup" fill="#000000">
            <path d="M379.84,32 L496,32 C504.832,32 512,24.8 512,16 C512,7.2 504.832,0 496,0 L336,0 C334.064,0 320,0 320,16 L320,176 C320,184.8 327.168,192 336,192 C344.832,192 352,184.8 352,176 L352,53.76 C427.648,89.76 480,166.72 480,256 C480,379.68 379.712,480 256,480 C132.288,480 32,379.68 32,256 C32,143.2 115.488,50.08 224,34.56 L224,2.24 C97.744,18.08 0,125.44 0,256 C0,397.44 114.624,512 256,512 C397.376,512 512,397.44 512,256 C512,159.52 458.624,75.68 379.84,32" id="Fill-21" sketch:type="MSShapeGroup"></path>
        </g>
    </g>
</svg>