<?xml version="1.0" encoding="UTF-8" standalone="no"?>
<svg width="512px" height="512px" viewBox="0 0 512 512" version="1.1" xmlns="http://www.w3.org/2000/svg" xmlns:xlink="http://www.w3.org/1999/xlink" xmlns:sketch="http://www.bohemiancoding.com/sketch/ns">
    <!-- Generator: Sketch 3.2.2 (9983) - http://www.bohemiancoding.com/sketch -->
    <title>sound</title>
    <desc>Created with Sketch.</desc>
    <defs></defs>
    <g id="Page-1" stroke="none" stroke-width="1" fill="none" fill-rule="evenodd" sketch:type="MSPage">
        <g id="sound" sketch:type="MSArtboardGroup" fill="#000000">
            <path d="M231.225806,439.037575 L115.612903,358.954632 L115.612903,153.027064 L231.225806,72.9441207 L231.225806,439.037575 L231.225806,439.037575 Z M82.5806452,310.904866 C82.5806452,321.02735 75.1814194,329.209538 66.0645161,329.209538 L49.5483871,329.209538 C40.4314839,329.209538 33.0322581,321.02735 33.0322581,310.904866 L33.0322581,201.07683 C33.0322581,190.97265 40.4314839,182.772157 49.5483871,182.772157 L66.0645161,182.772157 C75.1814194,182.772157 82.5806452,190.97265 82.5806452,201.07683 L82.5806452,310.904866 L82.5806452,310.904866 Z M231.225806,36.3347753 L82.5806452,146.162811 L33.0322581,146.162811 C14.7984516,146.162811 0,162.563798 0,182.772157 L0,329.209538 C0,349.417897 14.7984516,365.818884 33.0322581,365.818884 L82.5806452,365.818884 L231.225806,475.64692 C249.459613,475.64692 264.258065,459.245933 264.258065,439.037575 L264.258065,72.9441207 C264.258065,52.735762 249.459613,36.3347753 231.225806,36.3347753 L231.225806,36.3347753 Z M412.903226,255.990848 C412.903226,191.503486 369.763097,138.657896 313.806452,129.706911 L313.806452,166.316256 C351.496258,174.79132 379.870968,211.711844 379.870968,255.990848 C379.870968,300.269851 351.496258,337.190376 313.806452,345.665439 L313.806452,382.274785 C369.763097,373.3238 412.903226,320.47821 412.903226,255.990848 L412.903226,255.990848 Z M313.806452,0 L313.806452,37.579493 C410.789161,58.2820779 478.967742,145.943155 478.967742,255.990848 C478.967742,365.416181 412.903226,450.18512 313.806452,474.402202 L313.806452,512 C425.719742,493.841765 512,386.741125 512,255.990848 C512,125.240571 425.719742,18.1399306 313.806452,0 L313.806452,0 Z" id="Fill-129" sketch:type="MSShapeGroup"></path>
        </g>
    </g>
</svg>