<?xml version="1.0" encoding="UTF-8" standalone="no"?>
<svg width="512px" height="512px" viewBox="0 0 512 512" version="1.1" xmlns="http://www.w3.org/2000/svg" xmlns:xlink="http://www.w3.org/1999/xlink" xmlns:sketch="http://www.bohemiancoding.com/sketch/ns">
    <!-- Generator: Sketch 3.2.2 (9983) - http://www.bohemiancoding.com/sketch -->
    <title>store</title>
    <desc>Created with Sketch.</desc>
    <defs></defs>
    <g id="Page-1" stroke="none" stroke-width="1" fill="none" fill-rule="evenodd" sketch:type="MSPage">
        <g id="store" sketch:type="MSArtboardGroup" fill="#000000">
            <path d="M32.64,160 L107.184,32 L404.336,32 L480.464,160 L32.64,160 L32.64,160 Z M480,224 C479.76,246.096 454.304,256.016 432,256 C406.288,255.984 383.12,240.416 383.12,224 L368,224 C368,240.144 339.344,256 314.672,256 C291.008,256 263.488,239.648 263.488,224 L247.984,224 C247.984,240.144 219.984,256 196.336,256 C171.664,256 143.504,244.64 143.504,224 L128.352,224 C128.352,240.096 103.648,256.496 79.92,256.496 C55.856,256.496 32,246.096 32,224 L32,192 L480,192 L480,224 L480,224 Z M464,384 L48.048,384 L48,288 L79.424,288 C96.608,288 123.856,272.672 135.392,249.216 C148.336,272.016 172.496,288 195.568,288 C219.936,288 246.768,273.504 255.728,252.544 C264.704,273.008 290.976,288 314.848,288 C338.528,288 363.056,270.592 375.472,246.816 C389.984,270.816 401.696,288 432,288 C436.688,288 459.904,288.768 464,288 L464,384 L464,384 Z M464,448 C464,465.664 447.2,480 428.976,480 L82.496,480 C64.272,480 48.048,465.664 48.048,448 L48.048,416 L464,416 L464,448 L464,448 Z M418.464,0 L93.008,0 L0,160 L0,224 C0,241.04 6.128,259.664 16.016,272 L16.496,448 C16.496,483.344 46.048,512 82.496,512 L428.976,512 C465.424,512 496,483.344 496,448 L496,272 C507.2,258.816 512,245.28 512,224 L512,160 L418.464,0 L418.464,0 Z" id="Fill-97" sketch:type="MSShapeGroup"></path>
        </g>
    </g>
</svg>