<?xml version="1.0" encoding="UTF-8" standalone="no"?>
<svg width="512px" height="512px" viewBox="0 0 512 512" version="1.1" xmlns="http://www.w3.org/2000/svg" xmlns:xlink="http://www.w3.org/1999/xlink" xmlns:sketch="http://www.bohemiancoding.com/sketch/ns">
    <!-- Generator: Sketch 3.2.2 (9983) - http://www.bohemiancoding.com/sketch -->
    <title>tool</title>
    <desc>Created with Sketch.</desc>
    <defs></defs>
    <g id="Page-1" stroke="none" stroke-width="1" fill="none" fill-rule="evenodd" sketch:type="MSPage">
        <g id="tool" sketch:type="MSArtboardGroup" fill="#000000">
            <path d="M441.546654,243.991554 C402.333313,283.176473 343.385377,289.71868 296.939997,264.711391 L94.8181655,466.751155 C81.1386964,480.416341 58.9649934,480.416341 45.2684676,466.751155 C31.6060552,453.068889 31.6060552,430.931288 45.2684676,417.249022 L247.424412,215.209258 C222.436355,168.815954 228.986126,109.936087 268.18241,70.7511679 C291.686535,47.2641307 322.354472,36.0928418 353.141806,35.7170492 C320.887596,70.0166642 321.314014,123.857494 354.864532,157.388442 C388.397994,190.902309 442.263035,191.329346 476.581105,159.096591 C476.205858,189.860339 465.050779,220.504517 441.546654,243.991554 L441.546654,243.991554 Z M497.407329,91.7784717 C488.776642,101.480753 474.449018,113.830664 453.912758,132.637376 C432.165472,154.36502 401.378138,154.36502 379.630853,132.637376 C357.86651,110.875568 357.86651,80.1289013 379.630853,58.3841752 C399.672469,38.3475974 421.215074,14.6214194 420.87394,14.5189306 C362.625328,-12.35024 291.413628,-1.96469916 243.416089,46.0001011 C199.665667,89.7116125 187.197224,152.673954 205.601397,207.522591 L20.5192037,392.515036 C-6.83973455,419.845407 -6.83973455,464.171852 20.5192037,491.502222 C47.8781419,518.832593 92.2255479,518.832593 119.584486,491.502222 L304.649623,306.526858 C359.57218,324.957777 422.562553,312.454132 466.312975,268.742621 C514.242287,220.829065 524.203396,149.940916 497.407329,91.7784717 L497.407329,91.7784717 Z" id="Fill-173" sketch:type="MSShapeGroup"></path>
        </g>
    </g>
</svg>