<?xml version="1.0" encoding="UTF-8" standalone="no"?>
<svg width="512px" height="512px" viewBox="0 0 512 512" version="1.1" xmlns="http://www.w3.org/2000/svg" xmlns:xlink="http://www.w3.org/1999/xlink" xmlns:sketch="http://www.bohemiancoding.com/sketch/ns">
    <!-- Generator: Sketch 3.2.2 (9983) - http://www.bohemiancoding.com/sketch -->
    <title>twitter</title>
    <desc>Created with Sketch.</desc>
    <defs></defs>
    <g id="Page-1" stroke="none" stroke-width="1" fill="none" fill-rule="evenodd" sketch:type="MSPage">
        <g id="twitter" sketch:type="MSArtboardGroup" fill="#000000">
            <path d="M400.083262,195.262136 C404.498641,293.510214 331.226718,403.048388 201.535379,403.048388 C162.08901,403.048388 125.37165,391.484893 94.4590291,371.666019 C131.518136,376.034175 168.50765,365.751922 197.875573,342.738019 C167.308427,342.175068 141.510835,321.980893 132.622913,294.228505 C143.568777,296.321243 154.336932,295.70734 164.166835,293.03301 C130.576155,286.28132 107.384544,256.019883 108.141359,223.65701 C117.557437,228.890097 128.32932,232.032932 139.780971,232.395806 C108.670757,211.605126 99.8648544,170.525825 118.162641,139.136 C152.614524,181.395883 204.087922,209.20668 262.140272,212.119612 C251.951223,168.425631 285.098252,126.348427 330.18532,126.348427 C350.277592,126.348427 368.431223,134.829981 381.172816,148.40668 C397.084583,145.275029 412.033243,139.461592 425.53165,131.457243 C420.314718,147.769165 409.238369,161.457709 394.816621,170.103301 C408.94633,168.416932 422.409942,164.661437 434.936544,159.104 C425.573903,173.111922 413.733282,185.414835 400.083262,195.262136 M449.864078,0 L62.1359223,0 C27.8194951,0 0,27.8194951 0,62.1359223 L0,449.864078 C0,484.180505 27.8194951,512 62.1359223,512 L449.864078,512 C484.180505,512 512,484.180505 512,449.864078 L512,62.1359223 C512,27.8194951 484.180505,0 449.864078,0" id="Fill-1" sketch:type="MSShapeGroup"></path>
        </g>
    </g>
</svg>