<?xml version="1.0" encoding="UTF-8" standalone="no"?>
<svg width="512px" height="512px" viewBox="0 0 512 512" version="1.1" xmlns="http://www.w3.org/2000/svg" xmlns:xlink="http://www.w3.org/1999/xlink" xmlns:sketch="http://www.bohemiancoding.com/sketch/ns">
    <!-- Generator: Sketch 3.2.2 (9983) - http://www.bohemiancoding.com/sketch -->
    <title>user</title>
    <desc>Created with Sketch.</desc>
    <defs></defs>
    <g id="Page-1" stroke="none" stroke-width="1" fill="none" fill-rule="evenodd" sketch:type="MSPage">
        <g id="user" sketch:type="MSArtboardGroup" fill="#000000">
            <path d="M403.363636,408 C403.363636,447.76 367.496273,480 323.257682,480 L189.742318,480 C145.503727,480 109.636364,447.76 109.636364,408 L109.636364,360 C109.636364,325.984 135.957591,297.664 171.2375,290.128 C195.306818,308.864 224.679545,320 256.5,320 C288.320455,320 317.693182,308.864 341.7625,290.128 C377.042409,297.664 403.363636,325.984 403.363636,360 L403.363636,408 L403.363636,408 Z M142.272727,160 C142.272727,89.312 193.413909,32 256.5,32 C319.586091,32 370.727273,89.312 370.727273,160 C370.727273,230.688 319.586091,288 256.5,288 C193.413909,288 142.272727,230.688 142.272727,160 L142.272727,160 Z M369.927682,261.648 C390.798636,234 403.363636,198.592 403.363636,160 C403.363636,71.648 337.617682,0 256.5,0 C175.382318,0 109.636364,71.648 109.636364,160 C109.636364,198.592 122.201364,234 143.072318,261.648 C104.724591,274.64 77,309.968 77,352 L77,416 C77,469.008 120.846955,512 174.909091,512 L338.090909,512 C392.153045,512 436,469.008 436,416 L436,352 C436,309.968 408.275409,274.64 369.927682,261.648 L369.927682,261.648 Z" id="Fill-177" sketch:type="MSShapeGroup"></path>
        </g>
    </g>
</svg>